<?xml version="1.0" encoding="UTF-8" standalone="no"?>
<!-- Created with Inkscape (http://www.inkscape.org/) -->

<svg
   version="1.1"
   id="svg1"
   width="1441.108"
   height="320.95001"
   viewBox="0 0 1441.108 320.95001"
   sodipodi:docname="mm_total.svg"
   inkscape:version="1.4.3 (0d15f75042, 2025-12-25)"
   inkscape:export-filename="../src/ibus-marinamoji/icons/mm_long_dark.png"
   inkscape:export-xdpi="96"
   inkscape:export-ydpi="96"
   xml:space="preserve"
   xmlns:inkscape="http://www.inkscape.org/namespaces/inkscape"
   xmlns:sodipodi="http://sodipodi.sourceforge.net/DTD/sodipodi-0.dtd"
   xmlns="http://www.w3.org/2000/svg"
   xmlns:svg="http://www.w3.org/2000/svg"><defs
     id="defs1" /><sodipodi:namedview
     id="namedview1"
     pagecolor="#ffffff"
     bordercolor="#000000"
     borderopacity="0.25"
     inkscape:showpageshadow="2"
     inkscape:pageopacity="0.0"
     inkscape:pagecheckerboard="0"
     inkscape:deskcolor="#d1d1d1"
     showguides="true"
     inkscape:zoom="0.37811875"
     inkscape:cx="868.7747"
     inkscape:cy="-156.03564"
     inkscape:window-width="1920"
     inkscape:window-height="1019"
     inkscape:window-x="0"
     inkscape:window-y="0"
     inkscape:window-maximized="1"
     inkscape:current-layer="g6"><sodipodi:guide
       position="805.22497,731.83084"
       orientation="0,-1"
       id="guide2"
       inkscape:locked="false" /></sodipodi:namedview><g
     inkscape:groupmode="layer"
     inkscape:label="Dark"
     id="g1"
     transform="translate(-97.859528,-97.859528)"
     style="display:none"><rect
       style="display:none;fill:#ead9b3;fill-opacity:1;stroke-width:1.63417;paint-order:markers stroke fill"
       id="rect3"
       width="1427.108"
       height="320.95001"
       x="97.859528"
       y="97.859528" /><rect
       style="display:none;fill:#ead9b3;fill-opacity:1;stroke-width:0.774979;paint-order:markers stroke fill"
       id="rect1"
       width="320.95001"
       height="320.95001"
       x="97.859528"
       y="97.859528" /><rect
       style="display:inline;fill:#000000;fill-opacity:1;stroke-width:0.774979;paint-order:markers stroke fill"
       id="rect2"
       width="226.47124"
       height="197.29396"
       x="144.69304"
       y="161.36577" /><path
       style="display:inline;fill:#ffffff;fill-opacity:1;stroke-width:0.387489"
       d="m 179.36042,391.39158 c -15.83116,-0.84572 -28.36599,-5.62028 -38.62507,-14.71243 -11.5563,-10.24182 -17.38741,-23.32299 -18.71749,-41.98975 -0.53384,-7.49203 -0.52715,-149.14604 0.007,-155.81131 0.71298,-8.8908 2.59712,-16.23037 5.81402,-22.64817 8.28658,-16.53196 23.70161,-27.22077 43.96514,-30.48551 3.98343,-0.64179 9.65117,-0.68673 86.60386,-0.68673 76.90389,0 82.62059,0.0453 86.56795,0.68541 14.23164,2.30799 24.80806,7.43354 33.7612,16.36139 8.94767,8.92238 13.70902,19.28471 15.7583,34.29553 0.74103,5.42806 0.7346,156.82377 -0.007,162.74552 -1.97348,15.75993 -6.58573,25.97986 -15.92287,35.28213 -9.63027,9.59429 -21.92259,15.17374 -36.6537,16.63704 -4.77346,0.47416 -154.17094,0.77459 -162.55177,0.32688 z m 165.46771,-51.47606 c 0.84087,-0.42898 1.83656,-1.24957 2.21263,-1.82353 0.64585,-0.98569 0.68377,-4.33287 0.68377,-60.34648 0,-49.77465 -0.0866,-59.50818 -0.53894,-60.58052 -0.945,-2.24023 -1.72407,-2.40354 -11.46643,-2.40354 -12.93288,0 -12.51206,-0.34627 -13.52372,11.12789 -2.20359,24.99268 -5.57085,40.38242 -12.90004,58.95839 -8.3134,21.07046 -16.35074,34.10202 -29.42691,47.71213 -2.96047,3.08134 -4.7982,5.29891 -4.7982,5.78989 0,0.43768 0.34874,1.14452 0.77497,1.57076 0.76297,0.76297 1.29163,0.77498 34.1145,0.77498 32.64585,0 33.37133,-0.0162 34.86837,-0.77997 z m -64.96068,-18.85174 2.66598,-0.25173 3.59894,-4.87925 c 1.97941,-2.68359 3.56964,-4.90331 3.53385,-4.93273 -0.0358,-0.0294 -2.68064,-0.33936 -5.87742,-0.68878 -14.48776,-1.58357 -25.09654,-4.71704 -34.36324,-10.14973 -11.24057,-6.58989 -18.97746,-15.14041 -23.70999,-26.20336 -5.15796,-12.05746 -4.95511,-26.18392 0.53289,-37.10985 5.77487,-11.49707 18.33291,-19.33409 31.03221,-19.36608 8.06087,-0.0203 15.81998,3.87564 19.02349,9.55195 0.64077,1.13539 1.42718,2.06434 1.74757,2.06434 0.76452,0 2.69426,-2.08798 3.63624,-3.93441 4.21024,-8.25275 1.06571,-20.07606 -7.46064,-28.05179 -7.91011,-7.39928 -17.94042,-10.68066 -30.93117,-10.11901 -17.63676,0.76251 -34.93164,9.58768 -51.73878,26.40106 -15.68675,15.69259 -27.32589,36.165 -32.72049,57.553 -3.06801,12.16375 -4.29816,23.96897 -3.53506,33.92436 0.52031,6.78783 1.18016,9.22494 2.651,9.79119 2.04676,0.78796 3.40643,0.85484 5.61718,0.27626 4.85567,-1.27077 10.32892,-4.77752 14.62568,-9.37077 4.55837,-4.87291 6.68485,-9.03334 9.67435,-18.92773 2.60952,-8.63677 5.37913,-14.38395 8.58144,-17.80723 1.30475,-1.39478 2.48305,-2.53537 2.61845,-2.53466 0.13541,7.7e-4 0.2531,2.48548 0.26154,5.52172 0.0167,6.02076 0.55672,9.15246 2.58879,15.01392 6.82987,19.70072 28.73377,32.15805 60.16913,34.21979 3.81776,0.2504 15.16273,0.25647 17.77806,0.01 z m 21.29647,-31.3509 c 1.05729,-2.03663 1.55265,-3.37158 1.28058,-3.45109 -0.24404,-0.0713 -3.32081,-0.75278 -6.83728,-1.51438 -14.77045,-3.19898 -23.38408,-7.21097 -29.51333,-13.74649 -9.22183,-9.83307 -10.41226,-23.96809 -2.93685,-34.87165 1.14231,-1.66615 1.14537,-1.68426 0.23849,-1.41284 -3.55759,1.06476 -9.41836,6.52205 -11.65265,10.85043 -7.078,13.71184 -0.31161,29.95458 16.3526,39.25449 6.76391,3.77479 17.7502,6.74016 29.44919,7.94881 0.74591,0.0771 1.47743,0.16802 1.62559,0.20212 0.14816,0.0341 1.04531,-1.43262 1.99366,-3.2594 z m -6.2953,-43.38986 c 2.51896,-1.3026 3.43742,-4.92746 1.89114,-7.46367 -1.44279,-2.36646 -5.03078,-3.10239 -7.38629,-1.51501 -1.6063,1.08248 -2.27781,2.33717 -2.2853,4.26999 -0.0157,4.04246 4.1701,6.57568 7.78045,4.70869 z m 12.28184,-30.74888 c 5.74738,-2.94742 5.79374,-10.68409 0.0814,-13.59025 -2.23943,-1.13932 -3.67871,-1.28407 -6.0149,-0.60493 -3.86323,1.12308 -6.40527,4.78344 -5.80196,8.35443 0.38726,2.29211 2.16657,4.77358 4.11409,5.73758 2.19765,1.0878 5.61123,1.13402 7.62133,0.10317 z m -18.06671,-29.00253 c 3.53808,-2.08237 3.6572,-7.6961 0.20796,-9.80012 -1.96644,-1.19951 -3.45391,-1.31777 -5.45291,-0.43352 -2.30518,1.01969 -3.34028,2.68484 -3.34221,5.37653 -0.001,1.72138 0.18202,2.22981 1.2367,3.43102 0.68099,0.7756 1.59643,1.55528 2.03432,1.73263 1.38172,0.55959 4.11202,0.40215 5.31614,-0.30654 z"
       id="path1" /><text
       xml:space="preserve"
       style="font-weight:bold;font-size:47.1417px;line-height:0.9;font-family:'Noto Serif CJK JP';-inkscape-font-specification:'Noto Serif CJK JP, Bold';text-align:start;writing-mode:lr-tb;direction:ltr;text-orientation:upright;text-anchor:start;fill:#ffffff;fill-opacity:1;stroke-width:2.20976;paint-order:markers stroke fill"
       x="445.57062"
       y="349.47101"
       id="text2"><tspan
         sodipodi:role="line"
         id="tspan2"
         x="445.57062"
         y="349.47101"
         style="font-style:normal;font-variant:normal;font-weight:bold;font-stretch:normal;font-size:212.137px;font-family:Calibri;-inkscape-font-specification:'Calibri, Bold';font-variant-ligatures:normal;font-variant-caps:normal;font-variant-numeric:normal;font-variant-east-asian:normal;fill:#ffffff;fill-opacity:1;stroke-width:2.20976">marinaMoji</tspan></text><path
       id="path7"
       style="display:inline;fill:#ffffff;fill-opacity:1;stroke-width:0.387489"
       d="m 258.40836,125.05679 c -76.95269,0 -82.62009,0.0457 -86.60352,0.6875 -20.26353,3.26474 -35.68022,13.95437 -43.9668,30.48633 -3.2169,6.4178 -5.09952,13.75764 -5.8125,22.64844 -0.53415,6.66527 -0.54165,148.31852 -0.008,155.81055 1.33008,18.66676 7.1605,31.74841 18.7168,41.99023 10.25908,9.09215 22.79384,13.86522 38.625,14.71094 8.38083,0.44771 157.77927,0.14799 162.55273,-0.32617 14.73111,-1.4633 27.02208,-7.04243 36.65235,-16.63672 9.33714,-9.30227 13.95034,-19.52328 15.92382,-35.28321 0.7416,-5.92175 0.74885,-157.31608 0.008,-162.74414 -2.04928,-15.01082 -6.8121,-25.37449 -15.75977,-34.29687 -8.95314,-8.92785 -19.52812,-14.05334 -33.75976,-16.36133 -3.94736,-0.64011 -9.66447,-0.68555 -86.56836,-0.68555 z m 1.26757,35.98828 c 24.08924,0 40.41326,9.85801 46.50391,28.08008 3.81817,11.4232 0.74423,25.45218 -6.65039,30.34571 -3.90117,2.5817 -8.79871,2.87594 -12.08203,0.72461 -1.21067,-0.79325 -3.77188,-3.89398 -5.69141,-6.88868 -4.52895,-7.06564 -7.29605,-8.52028 -16.17773,-8.50976 -5.89311,0.007 -7.04962,0.288 -12.71485,3.08789 -10.50452,5.19163 -19.92936,15.90289 -24.88476,28.28125 -1.17576,2.93704 -2.72934,8.94826 -3.45313,13.35742 -3.13158,19.07782 3.54094,37.04347 19.11524,51.46289 7.93175,7.34358 9.70751,8.13777 5.51953,2.46875 -1.86644,-2.52655 -4.94766,-7.52482 -6.8457,-11.10547 -8.64784,-16.31409 -9.21158,-35.90107 -1.47461,-51.19531 1.90346,-3.76274 4.4716,-6.51924 3.16601,-3.39844 -3.71458,8.87921 -3.66947,22.59398 0.11133,33.39258 8.09288,23.11452 28.65575,40.74603 56.49219,48.4375 9.25925,2.55839 25.4928,3.68423 26.94531,1.86914 0.93229,-1.16505 2.30805,-47.93891 1.38281,-47.01367 -0.27056,0.27055 -4.14844,7.82109 -8.61914,16.7793 -8.10799,16.24657 -8.1364,16.28782 -10.70117,16.17382 -3.89564,-0.17322 -11.05102,-2.64202 -18.16016,-6.26367 -6.79193,-3.46004 -8.69368,-5.31318 -7.35156,-7.16211 21.66664,-29.84697 38.47666,-71.29927 40.9668,-101.01758 0.77115,-9.20347 0.6296,-9.07874 16.81055,-14.76171 9.94717,-3.49358 21.61993,-4.6398 23.9121,-2.34766 1.27194,1.27197 1.36915,6.97037 1.36915,80.26367 0,62.17401 -0.21331,79.05573 -1.00391,79.65625 -1.12911,0.85765 -22.88937,3.23312 -36.31445,3.96485 -4.85537,0.2646 -13.5236,0.0598 -19.26172,-0.45704 -38.59371,-3.47575 -67.75302,-18.89829 -85.09571,-45.0039 -9.51126,-14.31711 -12.83618,-26.54648 -12.21875,-44.9375 0.30083,-8.96047 0.74331,-12.01983 2.5625,-17.66016 2.56928,-7.9659 7.28421,-17.13124 11.39063,-22.14258 3.55424,-4.33748 2.5796,-4.54043 -5.83789,-1.21875 -17.31813,6.83406 -28.94348,20.12185 -34.47461,39.4043 -1.97622,6.88947 -2.10895,8.26273 -1.69141,17.58398 0.53967,12.04564 2.44401,19.89049 7.34766,30.27344 15.40829,32.62578 44.05518,49.4109 93.13867,54.57227 l 5.61914,0.59179 -3.61133,0.59766 c -5.94704,0.98676 -28.69505,0.63493 -37.7207,-0.58398 -48.44457,-6.54263 -79.98356,-37.48843 -79.69922,-78.19922 0.0962,-13.77878 3.87063,-26.21907 11.85547,-39.0625 3.31041,-5.32464 0.35588,-3.3844 -5.64648,3.70703 -6.11479,7.22424 -12.41087,19.32206 -14.87891,28.58594 -2.20381,8.27218 -2.46318,24.46935 -0.52734,33.01757 3.84453,16.97703 14.9191,34.61823 28.60156,45.5586 2.71097,2.16763 4.75616,4.11493 4.54297,4.32812 -0.63531,0.63531 -16.82075,-7.70182 -21.01758,-10.82617 -21.34516,-15.89066 -31.22996,-38.56241 -29.67578,-68.0664 1.81516,-34.45923 20.87686,-65.22068 54.46484,-87.89258 21.0081,-14.18051 40.73638,-20.85157 61.66406,-20.85157 z"
       inkscape:label="new_icon" /></g><g
     inkscape:groupmode="layer"
     inkscape:label="Light"
     id="g6"
     transform="translate(-97.859528,-97.859528)"
     style="display:inline"><rect
       style="display:none;fill:#ead9b3;fill-opacity:1;stroke-width:1.64217;paint-order:markers stroke fill"
       id="rect4"
       width="1441.108"
       height="320.95001"
       x="97.859528"
       y="97.859528" /><rect
       style="display:none;fill:#ead9b3;fill-opacity:1;stroke-width:0.774979;paint-order:markers stroke fill"
       id="rect5"
       width="320.95001"
       height="320.95001"
       x="97.859528"
       y="97.859528" /><rect
       style="display:none;fill:#fdfdfd;fill-opacity:1;stroke-width:0.774979;paint-order:markers stroke fill"
       id="rect6"
       width="226.47124"
       height="197.29396"
       x="144.69304"
       y="161.36577" /><path
       style="display:none;fill:#203758;fill-opacity:1;stroke-width:0.387489"
       d="m 179.36042,391.39158 c -15.83116,-0.84572 -28.36599,-5.62028 -38.62507,-14.71243 -11.5563,-10.24182 -17.38741,-23.32299 -18.71749,-41.98975 -0.53384,-7.49203 -0.52715,-149.14604 0.007,-155.81131 0.71298,-8.8908 2.59712,-16.23037 5.81402,-22.64817 8.28658,-16.53196 23.70161,-27.22077 43.96514,-30.48551 3.98343,-0.64179 9.65117,-0.68673 86.60386,-0.68673 76.90389,0 82.62059,0.0453 86.56795,0.68541 14.23164,2.30799 24.80806,7.43354 33.7612,16.36139 8.94767,8.92238 13.70902,19.28471 15.7583,34.29553 0.74103,5.42806 0.7346,156.82377 -0.007,162.74552 -1.97348,15.75993 -6.58573,25.97986 -15.92287,35.28213 -9.63027,9.59429 -21.92259,15.17374 -36.6537,16.63704 -4.77346,0.47416 -154.17094,0.77459 -162.55177,0.32688 z m 165.46771,-51.47606 c 0.84087,-0.42898 1.83656,-1.24957 2.21263,-1.82353 0.64585,-0.98569 0.68377,-4.33287 0.68377,-60.34648 0,-49.77465 -0.0866,-59.50818 -0.53894,-60.58052 -0.945,-2.24023 -1.72407,-2.40354 -11.46643,-2.40354 -12.93288,0 -12.51206,-0.34627 -13.52372,11.12789 -2.20359,24.99268 -5.57085,40.38242 -12.90004,58.95839 -8.3134,21.07046 -16.35074,34.10202 -29.42691,47.71213 -2.96047,3.08134 -4.7982,5.29891 -4.7982,5.78989 0,0.43768 0.34874,1.14452 0.77497,1.57076 0.76297,0.76297 1.29163,0.77498 34.1145,0.77498 32.64585,0 33.37133,-0.0162 34.86837,-0.77997 z m -64.96068,-18.85174 2.66598,-0.25173 3.59894,-4.87925 c 1.97941,-2.68359 3.56964,-4.90331 3.53385,-4.93273 -0.0358,-0.0294 -2.68064,-0.33936 -5.87742,-0.68878 -14.48776,-1.58357 -25.09654,-4.71704 -34.36324,-10.14973 -11.24057,-6.58989 -18.97746,-15.14041 -23.70999,-26.20336 -5.15796,-12.05746 -4.95511,-26.18392 0.53289,-37.10985 5.77487,-11.49707 18.33291,-19.33409 31.03221,-19.36608 8.06087,-0.0203 15.81998,3.87564 19.02349,9.55195 0.64077,1.13539 1.42718,2.06434 1.74757,2.06434 0.76452,0 2.69426,-2.08798 3.63624,-3.93441 4.21024,-8.25275 1.06571,-20.07606 -7.46064,-28.05179 -7.91011,-7.39928 -17.94042,-10.68066 -30.93117,-10.11901 -17.63676,0.76251 -34.93164,9.58768 -51.73878,26.40106 -15.68675,15.69259 -27.32589,36.165 -32.72049,57.553 -3.06801,12.16375 -4.29816,23.96897 -3.53506,33.92436 0.52031,6.78783 1.18016,9.22494 2.651,9.79119 2.04676,0.78796 3.40643,0.85484 5.61718,0.27626 4.85567,-1.27077 10.32892,-4.77752 14.62568,-9.37077 4.55837,-4.87291 6.68485,-9.03334 9.67435,-18.92773 2.60952,-8.63677 5.37913,-14.38395 8.58144,-17.80723 1.30475,-1.39478 2.48305,-2.53537 2.61845,-2.53466 0.13541,7.7e-4 0.2531,2.48548 0.26154,5.52172 0.0167,6.02076 0.55672,9.15246 2.58879,15.01392 6.82987,19.70072 28.73377,32.15805 60.16913,34.21979 3.81776,0.2504 15.16273,0.25647 17.77806,0.01 z m 21.29647,-31.3509 c 1.05729,-2.03663 1.55265,-3.37158 1.28058,-3.45109 -0.24404,-0.0713 -3.32081,-0.75278 -6.83728,-1.51438 -14.77045,-3.19898 -23.38408,-7.21097 -29.51333,-13.74649 -9.22183,-9.83307 -10.41226,-23.96809 -2.93685,-34.87165 1.14231,-1.66615 1.14537,-1.68426 0.23849,-1.41284 -3.55759,1.06476 -9.41836,6.52205 -11.65265,10.85043 -7.078,13.71184 -0.31161,29.95458 16.3526,39.25449 6.76391,3.77479 17.7502,6.74016 29.44919,7.94881 0.74591,0.0771 1.47743,0.16802 1.62559,0.20212 0.14816,0.0341 1.04531,-1.43262 1.99366,-3.2594 z m -6.2953,-43.38986 c 2.51896,-1.3026 3.43742,-4.92746 1.89114,-7.46367 -1.44279,-2.36646 -5.03078,-3.10239 -7.38629,-1.51501 -1.6063,1.08248 -2.27781,2.33717 -2.2853,4.26999 -0.0157,4.04246 4.1701,6.57568 7.78045,4.70869 z m 12.28184,-30.74888 c 5.74738,-2.94742 5.79374,-10.68409 0.0814,-13.59025 -2.23943,-1.13932 -3.67871,-1.28407 -6.0149,-0.60493 -3.86323,1.12308 -6.40527,4.78344 -5.80196,8.35443 0.38726,2.29211 2.16657,4.77358 4.11409,5.73758 2.19765,1.0878 5.61123,1.13402 7.62133,0.10317 z m -18.06671,-29.00253 c 3.53808,-2.08237 3.6572,-7.6961 0.20796,-9.80012 -1.96644,-1.19951 -3.45391,-1.31777 -5.45291,-0.43352 -2.30518,1.01969 -3.34028,2.68484 -3.34221,5.37653 -0.001,1.72138 0.18202,2.22981 1.2367,3.43102 0.68099,0.7756 1.59643,1.55528 2.03432,1.73263 1.38172,0.55959 4.11202,0.40215 5.31614,-0.30654 z"
       id="path6"
       inkscape:label="old_icon" /><text
       xml:space="preserve"
       style="font-weight:bold;font-size:47.1417px;line-height:0.9;font-family:'Noto Serif CJK JP';-inkscape-font-specification:'Noto Serif CJK JP, Bold';text-align:start;writing-mode:lr-tb;direction:ltr;text-orientation:upright;text-anchor:start;display:inline;fill:#203758;fill-opacity:1;stroke-width:2.20976;paint-order:markers stroke fill"
       x="459.57062"
       y="349.47101"
       id="text6"><tspan
         sodipodi:role="line"
         id="tspan6"
         x="0"
         y="0"
         style="font-style:normal;font-variant:normal;font-weight:bold;font-stretch:normal;font-size:212.137px;font-family:Calibri;-inkscape-font-specification:'Calibri, Bold';font-variant-ligatures:normal;font-variant-caps:normal;font-variant-numeric:normal;font-variant-east-asian:normal;fill:#203758;fill-opacity:1;stroke-width:2.20976">marinaMoji</tspan></text><path
       id="path4"
       style="display:inline;fill:#203758;fill-opacity:1;stroke-width:0.387489"
       d="m 258.40836,125.05679 c -76.95269,0 -82.62009,0.0457 -86.60352,0.6875 -20.26353,3.26474 -35.68022,13.95437 -43.9668,30.48633 -3.2169,6.4178 -5.09952,13.75764 -5.8125,22.64844 -0.53415,6.66527 -0.54165,148.31852 -0.008,155.81055 1.33008,18.66676 7.1605,31.74841 18.7168,41.99023 10.25908,9.09215 22.79384,13.86522 38.625,14.71094 8.38083,0.44771 157.77927,0.14799 162.55273,-0.32617 14.73111,-1.4633 27.02208,-7.04243 36.65235,-16.63672 9.33714,-9.30227 13.95034,-19.52328 15.92382,-35.28321 0.7416,-5.92175 0.74885,-157.31608 0.008,-162.74414 -2.04928,-15.01082 -6.8121,-25.37449 -15.75977,-34.29687 -8.95314,-8.92785 -19.52812,-14.05334 -33.75976,-16.36133 -3.94736,-0.64011 -9.66447,-0.68555 -86.56836,-0.68555 z m 1.26757,35.98828 c 24.08924,0 40.41326,9.85801 46.50391,28.08008 3.81817,11.4232 0.74423,25.45218 -6.65039,30.34571 -3.90117,2.5817 -8.79871,2.87594 -12.08203,0.72461 -1.21067,-0.79325 -3.77188,-3.89398 -5.69141,-6.88868 -4.52895,-7.06564 -7.29605,-8.52028 -16.17773,-8.50976 -5.89311,0.007 -7.04962,0.288 -12.71485,3.08789 -10.50452,5.19163 -19.92936,15.90289 -24.88476,28.28125 -1.17576,2.93704 -2.72934,8.94826 -3.45313,13.35742 -3.13158,19.07782 3.54094,37.04347 19.11524,51.46289 7.93175,7.34358 9.70751,8.13777 5.51953,2.46875 -1.86644,-2.52655 -4.94766,-7.52482 -6.8457,-11.10547 -8.64784,-16.31409 -9.21158,-35.90107 -1.47461,-51.19531 1.90346,-3.76274 4.4716,-6.51924 3.16601,-3.39844 -3.71458,8.87921 -3.66947,22.59398 0.11133,33.39258 8.09288,23.11452 28.65575,40.74603 56.49219,48.4375 9.25925,2.55839 25.4928,3.68423 26.94531,1.86914 0.93229,-1.16505 2.30805,-47.93891 1.38281,-47.01367 -0.27056,0.27055 -4.14844,7.82109 -8.61914,16.7793 -8.10799,16.24657 -8.1364,16.28782 -10.70117,16.17382 -3.89564,-0.17322 -11.05102,-2.64202 -18.16016,-6.26367 -6.79193,-3.46004 -8.69368,-5.31318 -7.35156,-7.16211 21.66664,-29.84697 38.47666,-71.29927 40.9668,-101.01758 0.77115,-9.20347 0.6296,-9.07874 16.81055,-14.76171 9.94717,-3.49358 21.61993,-4.6398 23.9121,-2.34766 1.27194,1.27197 1.36915,6.97037 1.36915,80.26367 0,62.17401 -0.21331,79.05573 -1.00391,79.65625 -1.12911,0.85765 -22.88937,3.23312 -36.31445,3.96485 -4.85537,0.2646 -13.5236,0.0598 -19.26172,-0.45704 -38.59371,-3.47575 -67.75302,-18.89829 -85.09571,-45.0039 -9.51126,-14.31711 -12.83618,-26.54648 -12.21875,-44.9375 0.30083,-8.96047 0.74331,-12.01983 2.5625,-17.66016 2.56928,-7.9659 7.28421,-17.13124 11.39063,-22.14258 3.55424,-4.33748 2.5796,-4.54043 -5.83789,-1.21875 -17.31813,6.83406 -28.94348,20.12185 -34.47461,39.4043 -1.97622,6.88947 -2.10895,8.26273 -1.69141,17.58398 0.53967,12.04564 2.44401,19.89049 7.34766,30.27344 15.40829,32.62578 44.05518,49.4109 93.13867,54.57227 l 5.61914,0.59179 -3.61133,0.59766 c -5.94704,0.98676 -28.69505,0.63493 -37.7207,-0.58398 -48.44457,-6.54263 -79.98356,-37.48843 -79.69922,-78.19922 0.0962,-13.77878 3.87063,-26.21907 11.85547,-39.0625 3.31041,-5.32464 0.35588,-3.3844 -5.64648,3.70703 -6.11479,7.22424 -12.41087,19.32206 -14.87891,28.58594 -2.20381,8.27218 -2.46318,24.46935 -0.52734,33.01757 3.84453,16.97703 14.9191,34.61823 28.60156,45.5586 2.71097,2.16763 4.75616,4.11493 4.54297,4.32812 -0.63531,0.63531 -16.82075,-7.70182 -21.01758,-10.82617 -21.34516,-15.89066 -31.22996,-38.56241 -29.67578,-68.0664 1.81516,-34.45923 20.87686,-65.22068 54.46484,-87.89258 21.0081,-14.18051 40.73638,-20.85157 61.66406,-20.85157 z"
       inkscape:label="new_icon" /></g></svg>
