<?xml version="1.0" encoding="UTF-8" standalone="no"?>
<!-- Created with Inkscape (http://www.inkscape.org/) -->

<svg
   width="30mm"
   height="30mm"
   viewBox="0 0 30 30"
   version="1.1"
   id="svg1"
   xml:space="preserve"
   inkscape:version="1.4.3 (0d15f75042, 2025-12-25)"
   sodipodi:docname="tool_icons.svg"
   inkscape:export-filename="../src/ibus-marinamoji/icons/mode_dark_kyu.png"
   inkscape:export-xdpi="96"
   inkscape:export-ydpi="96"
   xmlns:inkscape="http://www.inkscape.org/namespaces/inkscape"
   xmlns:sodipodi="http://sodipodi.sourceforge.net/DTD/sodipodi-0.dtd"
   xmlns="http://www.w3.org/2000/svg"
   xmlns:svg="http://www.w3.org/2000/svg"><sodipodi:namedview
     id="namedview1"
     pagecolor="#ffffff"
     bordercolor="#000000"
     borderopacity="0.25"
     inkscape:showpageshadow="2"
     inkscape:pageopacity="0.0"
     inkscape:pagecheckerboard="0"
     inkscape:deskcolor="#d1d1d1"
     inkscape:document-units="mm"
     showguides="true"
     inkscape:zoom="2.0688478"
     inkscape:cx="30.935093"
     inkscape:cy="85.796548"
     inkscape:window-width="1920"
     inkscape:window-height="1009"
     inkscape:window-x="0"
     inkscape:window-y="0"
     inkscape:window-maximized="1"
     inkscape:current-layer="g21"
     showgrid="false"><sodipodi:guide
       position="19.31344,25.919696"
       orientation="0,-1"
       id="guide1"
       inkscape:locked="false" /><sodipodi:guide
       position="12.979936,270.43154"
       orientation="0,-1"
       id="guide2"
       inkscape:locked="false" /><sodipodi:guide
       position="3.9639517,279.17019"
       orientation="1,0"
       id="guide3"
       inkscape:locked="false" /><sodipodi:guide
       position="26.022565,275.55875"
       orientation="1,0"
       id="guide4"
       inkscape:locked="false" /><sodipodi:guide
       position="-11.297157,4.0017402"
       orientation="0,-1"
       id="guide5"
       inkscape:locked="false" /><sodipodi:guide
       position="31.142978,27.985507"
       orientation="0,-1"
       id="guide8"
       inkscape:locked="false" /></sodipodi:namedview><defs
     id="defs1" /><rect
     style="display:none;fill:#000000;fill-opacity:1;stroke:none;stroke-width:1.611;stroke-linejoin:bevel;stroke-dasharray:none;stroke-opacity:1;paint-order:stroke markers fill"
     id="rect21"
     width="30"
     height="30"
     x="0"
     y="0"
     ry="0" /><g
     inkscape:label="Dark"
     inkscape:groupmode="layer"
     id="layer1"
     style="display:none"><rect
       style="display:none;fill:#759bce;fill-opacity:1;stroke-width:1.61;stroke-linejoin:bevel;paint-order:stroke fill markers"
       id="rect2"
       width="26.022566"
       height="25.998259"
       x="1.9887171"
       y="2.0008707"
       ry="6.2886238" /><rect
       style="display:none;fill:#ce7676;fill-opacity:1;stroke-width:1.61;stroke-linejoin:bevel;paint-order:stroke fill markers"
       id="rect3"
       width="26.022566"
       height="25.998259"
       x="1.9887171"
       y="2.0008707"
       ry="6.2886238" /><rect
       style="font-variation-settings:'opsz' 32, 'wght' 300;display:none;fill:#203859;fill-opacity:1;stroke-width:0.636628;paint-order:markers stroke fill"
       id="rect1"
       width="30"
       height="30"
       x="0"
       y="-7.1054274e-15" /><text
       xml:space="preserve"
       style="font-size:31.6059px;line-height:1.2;font-family:'Adwaita Sans';-inkscape-font-specification:'Adwaita Sans, @opsz=32,wght=300';font-variation-settings:'opsz' 32, 'wght' 300;text-align:start;writing-mode:lr-tb;direction:ltr;text-orientation:upright;text-anchor:start;display:none;fill:#ffffff;fill-opacity:1;stroke-width:1.48153;paint-order:markers stroke fill"
       x="4.4595561"
       y="26.516087"
       id="text4"
       inkscape:label="A"><tspan
         sodipodi:role="line"
         id="tspan4"
         style="font-style:normal;font-variant:normal;font-weight:normal;font-stretch:normal;font-size:31.6059px;font-family:Arial;-inkscape-font-specification:'Arial, @opsz=32,wght=300';font-variant-ligatures:normal;font-variant-caps:normal;font-variant-numeric:normal;font-variant-east-asian:normal;font-variation-settings:'opsz' 32, 'wght' 300;fill:#ffffff;fill-opacity:1;stroke-width:1.48153"
         x="0"
         y="0">A</tspan></text><text
       xml:space="preserve"
       style="font-style:normal;font-variant:normal;font-weight:normal;font-stretch:normal;font-size:26.1854px;line-height:1.2;font-family:Arial;-inkscape-font-specification:'Arial, @opsz=32,wght=300';font-variant-ligatures:normal;font-variant-caps:normal;font-variant-numeric:normal;font-variant-east-asian:normal;font-variation-settings:'opsz' 32, 'wght' 300;text-align:start;writing-mode:lr-tb;direction:ltr;text-orientation:upright;text-anchor:start;display:none;fill:#ffffff;fill-opacity:1;stroke-width:1.22744;paint-order:markers stroke fill"
       x="1.7109175"
       y="25.128304"
       id="text5"><tspan
         sodipodi:role="line"
         id="tspan5"
         style="font-style:normal;font-variant:normal;font-weight:bold;font-stretch:normal;font-size:26.1854px;font-family:'Noto Serif CJK JP';-inkscape-font-specification:'Noto Serif CJK JP, Bold';font-variant-ligatures:normal;font-variant-caps:normal;font-variant-numeric:normal;font-variant-east-asian:normal;fill:#ffffff;fill-opacity:1;stroke-width:1.22744"
         x="0"
         y="0">あ</tspan></text><text
       xml:space="preserve"
       style="font-style:normal;font-variant:normal;font-weight:normal;font-stretch:normal;font-size:26.1854px;line-height:1.2;font-family:Arial;-inkscape-font-specification:'Arial, @opsz=32,wght=300';font-variant-ligatures:normal;font-variant-caps:normal;font-variant-numeric:normal;font-variant-east-asian:normal;font-variation-settings:'opsz' 32, 'wght' 300;text-align:start;writing-mode:lr-tb;direction:ltr;text-orientation:upright;text-anchor:start;display:none;fill:#ffffff;fill-opacity:1;stroke-width:1.22744;paint-order:markers stroke fill"
       x="1.4752535"
       y="25.128304"
       id="text6"
       inkscape:label="ア"><tspan
         sodipodi:role="line"
         id="tspan6"
         style="font-style:normal;font-variant:normal;font-weight:bold;font-stretch:normal;font-size:26.1854px;font-family:'Noto Serif CJK JP';-inkscape-font-specification:'Noto Serif CJK JP, Bold';font-variant-ligatures:normal;font-variant-caps:normal;font-variant-numeric:normal;font-variant-east-asian:normal;fill:#ffffff;fill-opacity:1;stroke-width:1.22744"
         x="0"
         y="0">ア</tspan></text><text
       xml:space="preserve"
       style="font-style:normal;font-variant:normal;font-weight:bold;font-stretch:normal;font-size:22.1192px;line-height:0.9;font-family:'Noto Serif CJK JP';-inkscape-font-specification:'Noto Serif CJK JP, Bold';font-variant-ligatures:normal;font-variant-caps:normal;font-variant-numeric:normal;font-variant-east-asian:normal;text-align:start;writing-mode:lr-tb;direction:ltr;text-orientation:upright;text-anchor:start;display:none;fill:#ffffff;fill-opacity:1;stroke-width:1.03684;paint-order:markers stroke fill"
       x="1.8626429"
       y="24.936573"
       id="text7"
       inkscape:label="odoriji"><tspan
         sodipodi:role="line"
         id="tspan7"
         style="line-height:0.9;fill:#ffffff;fill-opacity:1;stroke-width:1.03684"
         x="0"
         y="0">々</tspan><tspan
         sodipodi:role="line"
         style="line-height:0.9;fill:#ffffff;fill-opacity:1;stroke-width:1.03684"
         x="0"
         y="0"
         id="tspan8" /></text><text
       xml:space="preserve"
       style="font-style:normal;font-variant:normal;font-weight:bold;font-stretch:normal;font-size:23.4998px;line-height:0.9;font-family:'Noto Serif CJK JP';-inkscape-font-specification:'Noto Serif CJK JP, Bold';font-variant-ligatures:normal;font-variant-caps:normal;font-variant-numeric:normal;font-variant-east-asian:normal;text-align:start;writing-mode:lr-tb;direction:ltr;text-orientation:upright;text-anchor:start;display:none;fill:#ffffff;fill-opacity:1;stroke-width:1.10155;paint-order:markers stroke fill"
       x="14.470834"
       y="15.529166"
       id="text9"><tspan
         sodipodi:role="line"
         id="tspan9"
         style="font-style:normal;font-variant:normal;font-weight:bold;font-stretch:normal;font-size:23.4998px;font-family:Arial;-inkscape-font-specification:'Arial, Bold';font-variant-ligatures:normal;font-variant-caps:normal;font-variant-numeric:normal;font-variant-east-asian:normal;fill:#ffffff;fill-opacity:1;stroke-width:1.10155"
         x="0"
         y="0">+</tspan></text><text
       xml:space="preserve"
       style="font-style:normal;font-variant:normal;font-weight:normal;font-stretch:normal;font-size:23.1222px;line-height:1.2;font-family:Arial;-inkscape-font-specification:'Arial, @opsz=32,wght=300';font-variant-ligatures:normal;font-variant-caps:normal;font-variant-numeric:normal;font-variant-east-asian:normal;font-variation-settings:'opsz' 32, 'wght' 300;text-align:start;writing-mode:lr-tb;direction:ltr;text-orientation:upright;text-anchor:start;display:none;fill:#ffffff;fill-opacity:1;stroke-width:1.08385;paint-order:markers stroke fill"
       x="3.3627965"
       y="23.734119"
       id="text1"><tspan
         sodipodi:role="line"
         id="tspan1"
         style="font-style:normal;font-variant:normal;font-weight:bold;font-stretch:normal;font-size:23.1222px;font-family:'Noto Serif CJK JP';-inkscape-font-specification:'Noto Serif CJK JP, Bold';font-variant-ligatures:normal;font-variant-caps:normal;font-variant-numeric:normal;font-variant-east-asian:normal;fill:#ffffff;fill-opacity:1;stroke-width:1.08385"
         x="0"
         y="0">新</tspan></text><text
       xml:space="preserve"
       style="font-style:normal;font-variant:normal;font-weight:normal;font-stretch:normal;font-size:23.1222px;line-height:1.2;font-family:Arial;-inkscape-font-specification:'Arial, @opsz=32,wght=300';font-variant-ligatures:normal;font-variant-caps:normal;font-variant-numeric:normal;font-variant-east-asian:normal;font-variation-settings:'opsz' 32, 'wght' 300;text-align:start;writing-mode:lr-tb;direction:ltr;text-orientation:upright;text-anchor:start;display:none;fill:#ffffff;fill-opacity:1;stroke-width:1.08385;paint-order:markers stroke fill"
       x="3.4735863"
       y="23.734119"
       id="text10"><tspan
         sodipodi:role="line"
         id="tspan10"
         style="font-style:normal;font-variant:normal;font-weight:bold;font-stretch:normal;font-size:23.1222px;font-family:'Noto Serif CJK JP';-inkscape-font-specification:'Noto Serif CJK JP, Bold';font-variant-ligatures:normal;font-variant-caps:normal;font-variant-numeric:normal;font-variant-east-asian:normal;fill:#ffffff;fill-opacity:1;stroke-width:1.08385"
         x="0"
         y="0">舊</tspan></text><text
       xml:space="preserve"
       style="font-weight:bold;font-size:12.0515px;line-height:0.9;font-family:Arial;-inkscape-font-specification:'Arial, Bold';text-align:start;writing-mode:lr-tb;direction:ltr;text-orientation:upright;text-anchor:start;display:none;fill:#ffffff;fill-opacity:1;stroke-width:1.61;stroke-linejoin:bevel;paint-order:stroke fill markers"
       x="10.412195"
       y="18.880779"
       id="text2"><tspan
         sodipodi:role="line"
         id="tspan2"
         style="fill:#ffffff;fill-opacity:1;stroke-width:1.61"
         x="0"
         y="0" /></text><ellipse
       style="display:none;fill:#ffffff;fill-opacity:1;stroke-width:1.61;stroke-linejoin:bevel;paint-order:stroke fill markers"
       id="path3"
       cx="14.993258"
       cy="15.039282"
       rx="11.029306"
       ry="10.958978" /><path
       id="ellipse3"
       style="display:none;fill:#ffffff;fill-opacity:1;stroke-width:1.61;stroke-linejoin:bevel;paint-order:stroke fill markers"
       d="M 14.9934,4.0803711 A 11.029306,10.958978 0 0 0 3.9640991,15.039392 11.029306,10.958978 0 0 0 14.9934,25.998413 Z" /><path
       style="display:none;fill:#ffffff;fill-opacity:1;stroke:#ffffff;stroke-width:0.845;stroke-dasharray:none;stroke-opacity:1"
       d="M 13.81079,26.272433 C 13.79427,26.245693 13.613951,25.800839 13.410077,25.283869 12.945797,24.106583 11.18927,20.318915 10.07078,18.083205 9.6045845,17.151348 9.2413615,16.370709 9.2636195,16.348451 c 0.02225,-0.02226 0.359034,-0.131926 0.7483915,-0.243709 0.508554,-0.146003 0.724071,-0.182828 0.765261,-0.130757 0.111246,0.14064 3.250198,6.376257 3.805453,7.55964 0.847462,1.806149 1.011018,2.204567 0.918297,2.236948 -0.04382,0.0153 -0.412737,0.145419 -0.819824,0.289149 -0.790961,0.279266 -0.824267,0.287405 -0.870408,0.212711 z m 8.319834,-3.470886 C 21.720613,22.6936 21.379118,22.6015 21.371747,22.59688 c -0.0074,-0.0046 0.140971,-0.38645 0.329651,-0.84851 0.304792,-0.746408 0.923586,-2.40969 1.041891,-2.800544 l 0.044,-0.145365 -4.07191,-0.01669 -4.071909,-0.01669 v -0.777886 -0.777886 l 4.440432,-0.01906 4.440434,-0.01906 0.664445,0.179379 c 0.409986,0.110684 0.664444,0.211653 0.664444,0.263652 0,0.134665 -0.428194,1.543174 -0.715281,2.352859 -0.367417,1.036241 -1.177481,3.045743 -1.223603,3.035359 -0.02103,-0.0047 -0.373706,-0.09693 -0.783717,-0.204877 z m -7.438905,-13.6101988 0.01657,-5.461409 0.826504,-0.01814 0.826504,-0.01814 v 5.479552 5.4795518 H 15.518219 14.675141 Z M 3.1372355,12.448747 v -0.713063 h 4.343197 4.3432005 v 0.713063 0.713062 H 7.4804325 3.1372355 Z M 19.251506,12.01107 C 19.147595,11.841781 18.948063,11.547894 18.8081,11.357988 18.668138,11.168081 18.563545,11.00525 18.575673,10.99614 c 0.01213,-0.0091 0.395055,-0.195351 0.85095,-0.413872 2.317257,-1.1107128 4.398533,-2.9874388 5.759585,-5.1935258 0.155564,-0.252149 0.305187,-0.458702 0.332495,-0.459007 0.108451,-0.0012 1.344061,0.547743 1.344061,0.597137 0,0.09815 -0.651723,1.104457 -1.120504,1.730148 -0.562622,0.750943 -1.959025,2.199175 -2.67169,2.7708558 -0.801969,0.643317 -2.001782,1.459709 -2.785935,1.895641 -0.391364,0.21757 -0.741413,0.39553 -0.777885,0.395466 -0.03647,-6.4e-5 -0.151334,-0.138625 -0.255244,-0.307913 z"
       id="path2"
       inkscape:label="strokes" /><text
       xml:space="preserve"
       style="font-style:normal;font-variant:normal;font-weight:normal;font-stretch:normal;font-size:26.1854px;line-height:1.2;font-family:Arial;-inkscape-font-specification:'Arial, @opsz=32,wght=300';font-variant-ligatures:normal;font-variant-caps:normal;font-variant-numeric:normal;font-variant-east-asian:normal;font-variation-settings:'opsz' 32, 'wght' 300;text-align:start;writing-mode:lr-tb;direction:ltr;text-orientation:upright;text-anchor:start;display:none;fill:#ffffff;fill-opacity:1;stroke-width:1.22744;paint-order:markers stroke fill"
       x="1.9073"
       y="24.950455"
       id="text3"
       inkscape:label="Composer"><tspan
         sodipodi:role="line"
         id="tspan3"
         style="font-style:normal;font-variant:normal;font-weight:bold;font-stretch:normal;font-size:26.1854px;font-family:'Noto Serif CJK JP';-inkscape-font-specification:'Noto Serif CJK JP, Bold';font-variant-ligatures:normal;font-variant-caps:normal;font-variant-numeric:normal;font-variant-east-asian:normal;fill:#ffffff;fill-opacity:1;stroke-width:1.22744"
         x="0"
         y="0">⿰</tspan></text><text
       xml:space="preserve"
       style="font-style:normal;font-variant:normal;font-weight:normal;font-stretch:normal;font-size:26.1854px;line-height:1.2;font-family:Arial;-inkscape-font-specification:'Arial, @opsz=32,wght=300';font-variant-ligatures:normal;font-variant-caps:normal;font-variant-numeric:normal;font-variant-east-asian:normal;font-variation-settings:'opsz' 32, 'wght' 300;text-align:start;writing-mode:lr-tb;direction:ltr;text-orientation:upright;text-anchor:start;display:none;fill:#ffffff;fill-opacity:1;stroke-width:1.22744;paint-order:markers stroke fill"
       x="8.4405642"
       y="25.128304"
       id="text30"
       inkscape:label="ア_half"><tspan
         sodipodi:role="line"
         id="tspan30"
         style="font-style:normal;font-variant:normal;font-weight:bold;font-stretch:normal;font-size:26.1854px;font-family:'Noto Serif CJK JP';-inkscape-font-specification:'Noto Serif CJK JP, Bold';font-variant-ligatures:normal;font-variant-caps:normal;font-variant-numeric:normal;font-variant-east-asian:normal;fill:#ffffff;fill-opacity:1;stroke-width:1.22744"
         x="0"
         y="0">ｱ</tspan></text><rect
       style="display:none;fill:#ffffff;fill-opacity:1;stroke-width:0.845;stroke-linejoin:bevel"
       id="rect30"
       width="4.2833419"
       height="21.917955"
       x="3.9639518"
       y="4.0803041" /><rect
       style="display:none;fill:#ffffff;fill-opacity:1;stroke-width:0.845;stroke-linejoin:bevel"
       id="rect31"
       width="4.2833419"
       height="21.917955"
       x="21.739223"
       y="4.0803041" /><text
       xml:space="preserve"
       style="font-size:24.597px;line-height:1.2;font-family:'Adwaita Sans';-inkscape-font-specification:'Adwaita Sans, @opsz=32,wght=300';font-variation-settings:'opsz' 32, 'wght' 300;text-align:start;writing-mode:lr-tb;direction:ltr;text-orientation:upright;text-anchor:start;display:none;fill:#ffffff;fill-opacity:1;stroke-width:1.15298;paint-order:markers stroke fill"
       x="11.071235"
       y="20.507692"
       id="text31"
       inkscape:label="A_half"
       transform="scale(0.77824087,1.2849492)"><tspan
         sodipodi:role="line"
         id="tspan31"
         style="font-style:normal;font-variant:normal;font-weight:normal;font-stretch:normal;font-size:24.597px;font-family:Arial;-inkscape-font-specification:'Arial, @opsz=32,wght=300';font-variant-ligatures:normal;font-variant-caps:normal;font-variant-numeric:normal;font-variant-east-asian:normal;font-variation-settings:'opsz' 32, 'wght' 300;fill:#ffffff;fill-opacity:1;stroke-width:1.15298"
         x="0"
         y="0">A</tspan></text><rect
       style="display:inline;fill:#ffffff;fill-opacity:1;stroke-width:0.845;stroke-linejoin:bevel"
       id="rect32"
       width="4.2833419"
       height="21.917955"
       x="4.009975"
       y="-25.952236"
       transform="rotate(90)" /><rect
       style="display:inline;fill:#ffffff;fill-opacity:1;stroke-width:0.845;stroke-linejoin:bevel"
       id="rect33"
       width="4.2833419"
       height="21.917955"
       x="21.785246"
       y="-25.952236"
       transform="rotate(90)" /><text
       xml:space="preserve"
       style="font-size:22.5293px;line-height:1.2;font-family:'Adwaita Sans';-inkscape-font-specification:'Adwaita Sans, @opsz=32,wght=300';font-variation-settings:'opsz' 32, 'wght' 300;text-align:start;writing-mode:lr-tb;direction:ltr;text-orientation:upright;text-anchor:start;display:inline;fill:#ffffff;fill-opacity:1;stroke-width:1.05606;paint-order:markers stroke fill"
       x="4.0723791"
       y="27.52784"
       id="text33"
       inkscape:label="A_half"
       transform="scale(1.2946869,0.77238752)"><tspan
         sodipodi:role="line"
         id="tspan33"
         style="font-style:normal;font-variant:normal;font-weight:normal;font-stretch:normal;font-size:22.5293px;font-family:Arial;-inkscape-font-specification:'Arial, @opsz=32,wght=300';font-variant-ligatures:normal;font-variant-caps:normal;font-variant-numeric:normal;font-variant-east-asian:normal;font-variation-settings:'opsz' 32, 'wght' 300;fill:#ffffff;fill-opacity:1;stroke-width:1.05606"
         x="4.0723791"
         y="27.52784">A</tspan></text><g
       id="g4"
       style="display:none"><rect
         style="fill:#000000;fill-opacity:1;stroke:none;stroke-width:1.611;stroke-linejoin:bevel;stroke-dasharray:none;stroke-opacity:1;paint-order:stroke markers fill"
         id="rect4"
         width="6.7689524"
         height="6.7512665"
         x="19.253613"
         y="20.920591"
         ry="0" /><path
         style="fill:#ffffff;fill-opacity:1;stroke:#000000;stroke-width:1.29163;stroke-dasharray:none;stroke-opacity:1;paint-order:stroke markers fill"
         d="m 18.22192,28.986068 c -0.725046,-0.08922 -1.301381,-0.506729 -1.543404,-1.11808 -0.139275,-0.351809 -0.135454,-0.242054 -0.135454,-3.890279 0,-3.614899 -0.0032,-3.518566 0.126967,-3.838875 0.131123,-0.322695 0.411199,-0.623334 0.729325,-0.782868 0.222737,-0.111698 0.451605,-0.163109 0.763452,-0.171483 l 0.236457,-0.0063 0.01356,-1.241411 c 0.01428,-1.307629 0.01948,-1.376761 0.138444,-1.839204 0.327545,-1.2733 1.235142,-2.387645 2.401753,-2.948859 0.665717,-0.320253 1.489549,-0.475383 2.213879,-0.416887 0.481541,0.03891 0.714188,0.08323 1.089849,0.207685 0.68469,0.226841 1.291294,0.607872 1.765819,1.109177 0.623658,0.658851 0.997402,1.377298 1.199394,2.305606 l 0.06392,0.293781 0.0099,1.27091 0.0099,1.270905 0.228749,-0.0016 c 0.125812,-0.001 0.303989,0.01409 0.395949,0.0334 0.541808,0.11356 0.981907,0.508 1.163134,1.042449 l 0.06477,0.191022 v 3.523235 3.523236 l -0.05435,0.171906 c -0.200583,0.634486 -0.698202,1.100902 -1.340761,1.25669 -0.183259,0.04443 -0.334254,0.04613 -4.835582,0.05456 -2.555527,0.0047 -4.673016,0.0054 -4.705528,0.0014 z m 5.502884,-2.147164 c 0.0973,-0.0973 0.09723,-0.08815 0.0059,-0.697064 -0.01463,-0.09754 -0.03129,-0.214586 -0.03701,-0.260105 -0.0057,-0.04552 -0.0522,-0.375377 -0.103289,-0.733021 -0.05108,-0.357644 -0.09866,-0.698145 -0.105735,-0.756669 l -0.01286,-0.106406 0.147533,-0.06885 c 0.184588,-0.08615 0.448076,-0.346141 0.553275,-0.54594 0.199202,-0.378338 0.241201,-0.815724 0.114325,-1.190622 -0.210551,-0.622151 -0.795457,-1.050394 -1.433984,-1.049902 -0.241773,1.88e-4 -0.392167,0.03763 -0.646712,0.160967 -0.254294,0.123225 -0.437353,0.279884 -0.583383,0.499249 -0.498524,0.748878 -0.298857,1.666525 0.462189,2.124164 0.150783,0.09067 0.156747,0.09775 0.144166,0.170983 -0.0072,0.04202 -0.03348,0.228231 -0.05837,0.413803 -0.02488,0.185572 -0.07678,0.550216 -0.115348,0.81032 -0.03856,0.260105 -0.0772,0.530397 -0.08587,0.600649 -0.0087,0.07025 -0.0202,0.150056 -0.02562,0.177344 -0.0054,0.02728 -0.0163,0.118777 -0.02417,0.203311 -0.01267,0.136026 -0.0082,0.161402 0.03882,0.220695 0.02922,0.03685 0.0756,0.07608 0.103065,0.08718 0.02747,0.0111 0.394163,0.02085 0.814881,0.02167 l 0.764945,0.0014 z m 2.109944,-8.754398 c -0.0023,-1.291722 -0.01975,-1.469816 -0.189582,-1.938691 -0.202211,-0.558257 -0.648147,-1.106904 -1.180736,-1.452695 -0.804336,-0.522224 -1.909109,-0.61677 -2.789547,-0.238723 -0.426907,0.183308 -0.786702,0.444347 -1.076553,0.781063 -0.346257,0.402236 -0.557391,0.830136 -0.666541,1.350859 -0.06167,0.294207 -0.0626,0.31305 -0.07038,1.42134 -0.0043,0.617746 -0.003,1.136479 0.0032,1.152736 0.0088,0.02342 0.628833,0.02958 2.991608,0.02958 h 2.980548 z"
         id="path4" /></g><path
       style="display:inline;fill:#203859;stroke-width:0.0988682;fill-opacity:1"
       d="m 7.0946837,27.582515 c -1.334163,-0.207744 -2.391875,-1.328697 -2.530758,-2.682082 -0.0376,-0.366128 -0.03744,-19.4845466 9.8e-5,-19.8125781 0.157105,-1.3714336 1.204261,-2.4655794 2.554457,-2.6690988 0.38661,-0.058278 15.3768943,-0.058278 15.7635013,0 1.344496,0.2026552 2.383811,1.2828499 2.554249,2.6547121 0.03668,0.2954015 0.03754,13.0925378 0.0011,13.4463328 -0.174984,1.688796 -1.324433,3.082466 -2.92485,3.546295 -0.566962,0.16432 0.05515,0.151053 -7.825937,0.166901 l -7.1806023,0.01445 -0.20265,0.09676 c -0.341984,0.163304 -0.580041,0.468116 -0.647377,0.82891 -0.03439,0.184301 -0.03406,1.628977 3.96e-4,1.810781 0.08125,0.428428 0.375816,0.761452 0.786603,0.8893 0.154947,0.04826 0.395231,0.04954 8.9201153,0.04954 7.096778,0 8.76088,0.0063 8.76088,0.03347 0,0.08361 -0.336779,0.545574 -0.558965,0.766717 -0.480041,0.477781 -1.03987,0.764289 -1.682754,0.86119 -0.367981,0.05547 -15.4306493,0.05394 -15.7873343,-0.0016 z M 15.11798,18.624517 c 0.81483,-0.03412 1.34542,-0.109268 1.956624,-0.277061 1.857559,-0.509971 3.147205,-1.733704 3.746793,-3.555292 0.219247,-0.666108 0.332521,-1.32064 0.381144,-2.202504 C 21.2696,11.373665 21.118791,10.142206 20.785147,9.1810924 20.126192,7.282899 18.635898,6.0336201 16.54364,5.6255282 15.799399,5.4803648 15.888553,5.4839394 12.757147,5.4736121 l -2.9101743,-0.00963 v 6.5758539 c 0,3.616718 0.0079,6.5837 0.01744,6.593289 0.02645,0.02646 4.5954973,0.01891 5.2535653,-0.0086 z M 12.044315,12.048123 V 7.2976549 l 1.157532,3.746e-4 c 1.643228,5.445e-4 2.231413,0.041076 2.910171,0.200526 1.742841,0.409434 2.609559,1.4470334 2.880358,3.4482575 0.05771,0.426476 0.06674,1.632014 0.01548,2.066542 -0.171563,1.454369 -0.700533,2.470644 -1.583156,3.041611 -0.396863,0.25673 -0.939871,0.467981 -1.495806,0.581914 -0.591265,0.121178 -0.817379,0.135271 -2.38699,0.148799 l -1.497598,0.01292 z"
       id="path21"
       inkscape:label="dictionary" /></g><g
     inkscape:label="Light"
     inkscape:groupmode="layer"
     id="g21"
     style="display:inline"><rect
       style="display:none;fill:#203859;stroke-width:1.61;stroke-linejoin:bevel;paint-order:stroke fill markers"
       id="rect5"
       width="26.022566"
       height="25.998259"
       x="1.9887171"
       y="2.0008707"
       ry="6.2886238" /><rect
       style="display:none;fill:#7b2c2c;fill-opacity:1;stroke-width:1.61;stroke-linejoin:bevel;paint-order:stroke fill markers"
       id="rect6"
       width="26.022566"
       height="25.998259"
       x="1.9887171"
       y="2.0008707"
       ry="6.2886238" /><rect
       style="font-variation-settings:'opsz' 32, 'wght' 300;display:none;fill:#203859;fill-opacity:1;stroke-width:0.636628;paint-order:markers stroke fill"
       id="rect7"
       width="30"
       height="30"
       x="0"
       y="-7.1054274e-15" /><text
       xml:space="preserve"
       style="font-size:31.6059px;line-height:1.2;font-family:'Adwaita Sans';-inkscape-font-specification:'Adwaita Sans, @opsz=32,wght=300';font-variation-settings:'opsz' 32, 'wght' 300;text-align:start;writing-mode:lr-tb;direction:ltr;text-orientation:upright;text-anchor:start;display:none;fill:#203859;fill-opacity:1;stroke-width:1.48153;paint-order:markers stroke fill"
       x="4.4595561"
       y="26.516087"
       id="text11"
       inkscape:label="A"><tspan
         sodipodi:role="line"
         id="tspan11"
         style="font-style:normal;font-variant:normal;font-weight:normal;font-stretch:normal;font-size:31.6059px;font-family:Arial;-inkscape-font-specification:'Arial, @opsz=32,wght=300';font-variant-ligatures:normal;font-variant-caps:normal;font-variant-numeric:normal;font-variant-east-asian:normal;font-variation-settings:'opsz' 32, 'wght' 300;stroke-width:1.48153"
         x="0"
         y="0">A</tspan></text><text
       xml:space="preserve"
       style="font-style:normal;font-variant:normal;font-weight:normal;font-stretch:normal;font-size:26.1854px;line-height:1.2;font-family:Arial;-inkscape-font-specification:'Arial, @opsz=32,wght=300';font-variant-ligatures:normal;font-variant-caps:normal;font-variant-numeric:normal;font-variant-east-asian:normal;font-variation-settings:'opsz' 32, 'wght' 300;text-align:start;writing-mode:lr-tb;direction:ltr;text-orientation:upright;text-anchor:start;display:none;fill:#203859;fill-opacity:1;stroke-width:1.22744;paint-order:markers stroke fill"
       x="1.7109175"
       y="25.128304"
       id="text12"><tspan
         sodipodi:role="line"
         id="tspan12"
         style="font-style:normal;font-variant:normal;font-weight:bold;font-stretch:normal;font-size:26.1854px;font-family:'Noto Serif CJK JP';-inkscape-font-specification:'Noto Serif CJK JP, Bold';font-variant-ligatures:normal;font-variant-caps:normal;font-variant-numeric:normal;font-variant-east-asian:normal;stroke-width:1.22744"
         x="1.7109175"
         y="25.128304">あ</tspan></text><text
       xml:space="preserve"
       style="font-style:normal;font-variant:normal;font-weight:normal;font-stretch:normal;font-size:26.1854px;line-height:1.2;font-family:Arial;-inkscape-font-specification:'Arial, @opsz=32,wght=300';font-variant-ligatures:normal;font-variant-caps:normal;font-variant-numeric:normal;font-variant-east-asian:normal;font-variation-settings:'opsz' 32, 'wght' 300;text-align:start;writing-mode:lr-tb;direction:ltr;text-orientation:upright;text-anchor:start;display:none;fill:#203859;fill-opacity:1;stroke-width:1.22744;paint-order:markers stroke fill"
       x="1.4752535"
       y="25.128304"
       id="text13"
       inkscape:label="ア"><tspan
         sodipodi:role="line"
         id="tspan13"
         style="font-style:normal;font-variant:normal;font-weight:bold;font-stretch:normal;font-size:26.1854px;font-family:'Noto Serif CJK JP';-inkscape-font-specification:'Noto Serif CJK JP, Bold';font-variant-ligatures:normal;font-variant-caps:normal;font-variant-numeric:normal;font-variant-east-asian:normal;stroke-width:1.22744"
         x="0"
         y="0">ア</tspan></text><text
       xml:space="preserve"
       style="font-style:normal;font-variant:normal;font-weight:bold;font-stretch:normal;font-size:23.4998px;line-height:0.9;font-family:'Noto Serif CJK JP';-inkscape-font-specification:'Noto Serif CJK JP, Bold';font-variant-ligatures:normal;font-variant-caps:normal;font-variant-numeric:normal;font-variant-east-asian:normal;text-align:start;writing-mode:lr-tb;direction:ltr;text-orientation:upright;text-anchor:start;display:none;fill:#203859;fill-opacity:1;stroke-width:1.10155;paint-order:markers stroke fill"
       x="14.470834"
       y="15.529166"
       id="text16"><tspan
         sodipodi:role="line"
         id="tspan16"
         style="font-style:normal;font-variant:normal;font-weight:bold;font-stretch:normal;font-size:23.4998px;font-family:Arial;-inkscape-font-specification:'Arial, Bold';font-variant-ligatures:normal;font-variant-caps:normal;font-variant-numeric:normal;font-variant-east-asian:normal;stroke-width:1.10155"
         x="14.470834"
         y="15.529166">+</tspan></text><text
       xml:space="preserve"
       style="font-style:normal;font-variant:normal;font-weight:normal;font-stretch:normal;font-size:23.1222px;line-height:1.2;font-family:Arial;-inkscape-font-specification:'Arial, @opsz=32,wght=300';font-variant-ligatures:normal;font-variant-caps:normal;font-variant-numeric:normal;font-variant-east-asian:normal;font-variation-settings:'opsz' 32, 'wght' 300;text-align:start;writing-mode:lr-tb;direction:ltr;text-orientation:upright;text-anchor:start;display:none;fill:#ffffff;fill-opacity:1;stroke-width:1.08385;paint-order:markers stroke fill"
       x="3.3627965"
       y="23.734119"
       id="text17"><tspan
         sodipodi:role="line"
         id="tspan17"
         style="font-style:normal;font-variant:normal;font-weight:bold;font-stretch:normal;font-size:23.1222px;font-family:'Noto Serif CJK JP';-inkscape-font-specification:'Noto Serif CJK JP, Bold';font-variant-ligatures:normal;font-variant-caps:normal;font-variant-numeric:normal;font-variant-east-asian:normal;fill:#ffffff;fill-opacity:1;stroke-width:1.08385"
         x="3.3627965"
         y="23.734119">新</tspan></text><text
       xml:space="preserve"
       style="font-style:normal;font-variant:normal;font-weight:normal;font-stretch:normal;font-size:23.1222px;line-height:1.2;font-family:Arial;-inkscape-font-specification:'Arial, @opsz=32,wght=300';font-variant-ligatures:normal;font-variant-caps:normal;font-variant-numeric:normal;font-variant-east-asian:normal;font-variation-settings:'opsz' 32, 'wght' 300;text-align:start;writing-mode:lr-tb;direction:ltr;text-orientation:upright;text-anchor:start;display:none;fill:#ffffff;fill-opacity:1;stroke-width:1.08385;paint-order:markers stroke fill"
       x="3.4735863"
       y="23.734119"
       id="text18"><tspan
         sodipodi:role="line"
         id="tspan18"
         style="font-style:normal;font-variant:normal;font-weight:bold;font-stretch:normal;font-size:23.1222px;font-family:'Noto Serif CJK JP';-inkscape-font-specification:'Noto Serif CJK JP, Bold';font-variant-ligatures:normal;font-variant-caps:normal;font-variant-numeric:normal;font-variant-east-asian:normal;fill:#ffffff;fill-opacity:1;stroke-width:1.08385"
         x="3.4735863"
         y="23.734119">舊</tspan></text><text
       xml:space="preserve"
       style="font-weight:bold;font-size:12.0515px;line-height:0.9;font-family:Arial;-inkscape-font-specification:'Arial, Bold';text-align:start;writing-mode:lr-tb;direction:ltr;text-orientation:upright;text-anchor:start;display:none;fill:#7b2c2c;stroke-width:1.61;stroke-linejoin:bevel;paint-order:stroke fill markers"
       x="10.412195"
       y="18.880779"
       id="text19"><tspan
         sodipodi:role="line"
         id="tspan19"
         style="stroke-width:1.61"
         x="10.412195"
         y="18.880779" /></text><ellipse
       style="display:none;fill:#203859;fill-opacity:1;stroke-width:1.61;stroke-linejoin:bevel;paint-order:stroke fill markers"
       id="ellipse19"
       cx="14.993258"
       cy="15.039282"
       rx="11.029306"
       ry="10.958978" /><path
       id="path19"
       style="display:none;fill:#203859;fill-opacity:1;stroke-width:1.61;stroke-linejoin:bevel;paint-order:stroke fill markers"
       d="M 14.9934,4.0803711 A 11.029306,10.958978 0 0 0 3.9640991,15.039392 11.029306,10.958978 0 0 0 14.9934,25.998413 Z" /><text
       xml:space="preserve"
       style="font-style:normal;font-variant:normal;font-weight:normal;font-stretch:normal;font-size:26.1854px;line-height:1.2;font-family:Arial;-inkscape-font-specification:'Arial, @opsz=32,wght=300';font-variant-ligatures:normal;font-variant-caps:normal;font-variant-numeric:normal;font-variant-east-asian:normal;font-variation-settings:'opsz' 32, 'wght' 300;text-align:start;writing-mode:lr-tb;direction:ltr;text-orientation:upright;text-anchor:start;display:none;fill:#203859;fill-opacity:1;stroke-width:1.22744;paint-order:markers stroke fill"
       x="1.9073"
       y="24.950455"
       id="text20"
       inkscape:label="Composer"><tspan
         sodipodi:role="line"
         id="tspan20"
         style="font-style:normal;font-variant:normal;font-weight:bold;font-stretch:normal;font-size:26.1854px;font-family:'Noto Serif CJK JP';-inkscape-font-specification:'Noto Serif CJK JP, Bold';font-variant-ligatures:normal;font-variant-caps:normal;font-variant-numeric:normal;font-variant-east-asian:normal;stroke-width:1.22744"
         x="0"
         y="0">⿰</tspan></text><path
       style="display:none;fill:#203859;fill-opacity:1;stroke:#203859;stroke-width:0.845;stroke-dasharray:none;stroke-opacity:1"
       d="M 13.81079,26.272433 C 13.79427,26.245693 13.613951,25.800839 13.410077,25.283869 12.945797,24.106583 11.18927,20.318915 10.07078,18.083205 9.6045845,17.151348 9.2413615,16.370709 9.2636195,16.348451 c 0.02225,-0.02226 0.359034,-0.131926 0.7483915,-0.243709 0.508554,-0.146003 0.724071,-0.182828 0.765261,-0.130757 0.111246,0.14064 3.250198,6.376257 3.805453,7.55964 0.847462,1.806149 1.011018,2.204567 0.918297,2.236948 -0.04382,0.0153 -0.412737,0.145419 -0.819824,0.289149 -0.790961,0.279266 -0.824267,0.287405 -0.870408,0.212711 z m 8.319834,-3.470886 C 21.720613,22.6936 21.379118,22.6015 21.371747,22.59688 c -0.0074,-0.0046 0.140971,-0.38645 0.329651,-0.84851 0.304792,-0.746408 0.923586,-2.40969 1.041891,-2.800544 l 0.044,-0.145365 -4.07191,-0.01669 -4.071909,-0.01669 v -0.777886 -0.777886 l 4.440432,-0.01906 4.440434,-0.01906 0.664445,0.179379 c 0.409986,0.110684 0.664444,0.211653 0.664444,0.263652 0,0.134665 -0.428194,1.543174 -0.715281,2.352859 -0.367417,1.036241 -1.177481,3.045743 -1.223603,3.035359 -0.02103,-0.0047 -0.373706,-0.09693 -0.783717,-0.204877 z m -7.438905,-13.6101988 0.01657,-5.461409 0.826504,-0.01814 0.826504,-0.01814 v 5.479552 5.4795518 H 15.518219 14.675141 Z M 3.1372355,12.448747 v -0.713063 h 4.343197 4.3432005 v 0.713063 0.713062 H 7.4804325 3.1372355 Z M 19.251506,12.01107 C 19.147595,11.841781 18.948063,11.547894 18.8081,11.357988 18.668138,11.168081 18.563545,11.00525 18.575673,10.99614 c 0.01213,-0.0091 0.395055,-0.195351 0.85095,-0.413872 2.317257,-1.1107128 4.398533,-2.9874388 5.759585,-5.1935258 0.155564,-0.252149 0.305187,-0.458702 0.332495,-0.459007 0.108451,-0.0012 1.344061,0.547743 1.344061,0.597137 0,0.09815 -0.651723,1.104457 -1.120504,1.730148 -0.562622,0.750943 -1.959025,2.199175 -2.67169,2.7708558 -0.801969,0.643317 -2.001782,1.459709 -2.785935,1.895641 -0.391364,0.21757 -0.741413,0.39553 -0.777885,0.395466 -0.03647,-6.4e-5 -0.151334,-0.138625 -0.255244,-0.307913 z"
       id="path1"
       inkscape:label="strokes" /><g
       id="g20"
       style="display:none"><rect
         style="fill:#ffffff;fill-opacity:1;stroke:none;stroke-width:1.611;stroke-linejoin:bevel;stroke-dasharray:none;stroke-opacity:1;paint-order:stroke markers fill"
         id="rect20"
         width="6.7689524"
         height="6.7512665"
         x="19.253613"
         y="20.920591"
         ry="0" /><path
         style="fill:#203859;fill-opacity:1;stroke:#ffffff;stroke-width:1.29163;stroke-dasharray:none;stroke-opacity:1;paint-order:stroke markers fill"
         d="m 18.22192,28.986068 c -0.725046,-0.08922 -1.301381,-0.506729 -1.543404,-1.11808 -0.139275,-0.351809 -0.135454,-0.242054 -0.135454,-3.890279 0,-3.614899 -0.0032,-3.518566 0.126967,-3.838875 0.131123,-0.322695 0.411199,-0.623334 0.729325,-0.782868 0.222737,-0.111698 0.451605,-0.163109 0.763452,-0.171483 l 0.236457,-0.0063 0.01356,-1.241411 c 0.01428,-1.307629 0.01948,-1.376761 0.138444,-1.839204 0.327545,-1.2733 1.235142,-2.387645 2.401753,-2.948859 0.665717,-0.320253 1.489549,-0.475383 2.213879,-0.416887 0.481541,0.03891 0.714188,0.08323 1.089849,0.207685 0.68469,0.226841 1.291294,0.607872 1.765819,1.109177 0.623658,0.658851 0.997402,1.377298 1.199394,2.305606 l 0.06392,0.293781 0.0099,1.27091 0.0099,1.270905 0.228749,-0.0016 c 0.125812,-0.001 0.303989,0.01409 0.395949,0.0334 0.541808,0.11356 0.981907,0.508 1.163134,1.042449 l 0.06477,0.191022 v 3.523235 3.523236 l -0.05435,0.171906 c -0.200583,0.634486 -0.698202,1.100902 -1.340761,1.25669 -0.183259,0.04443 -0.334254,0.04613 -4.835582,0.05456 -2.555527,0.0047 -4.673016,0.0054 -4.705528,0.0014 z m 5.502884,-2.147164 c 0.0973,-0.0973 0.09723,-0.08815 0.0059,-0.697064 -0.01463,-0.09754 -0.03129,-0.214586 -0.03701,-0.260105 -0.0057,-0.04552 -0.0522,-0.375377 -0.103289,-0.733021 -0.05108,-0.357644 -0.09866,-0.698145 -0.105735,-0.756669 l -0.01286,-0.106406 0.147533,-0.06885 c 0.184588,-0.08615 0.448076,-0.346141 0.553275,-0.54594 0.199202,-0.378338 0.241201,-0.815724 0.114325,-1.190622 -0.210551,-0.622151 -0.795457,-1.050394 -1.433984,-1.049902 -0.241773,1.88e-4 -0.392167,0.03763 -0.646712,0.160967 -0.254294,0.123225 -0.437353,0.279884 -0.583383,0.499249 -0.498524,0.748878 -0.298857,1.666525 0.462189,2.124164 0.150783,0.09067 0.156747,0.09775 0.144166,0.170983 -0.0072,0.04202 -0.03348,0.228231 -0.05837,0.413803 -0.02488,0.185572 -0.07678,0.550216 -0.115348,0.81032 -0.03856,0.260105 -0.0772,0.530397 -0.08587,0.600649 -0.0087,0.07025 -0.0202,0.150056 -0.02562,0.177344 -0.0054,0.02728 -0.0163,0.118777 -0.02417,0.203311 -0.01267,0.136026 -0.0082,0.161402 0.03882,0.220695 0.02922,0.03685 0.0756,0.07608 0.103065,0.08718 0.02747,0.0111 0.394163,0.02085 0.814881,0.02167 l 0.764945,0.0014 z m 2.109944,-8.754398 c -0.0023,-1.291722 -0.01975,-1.469816 -0.189582,-1.938691 -0.202211,-0.558257 -0.648147,-1.106904 -1.180736,-1.452695 -0.804336,-0.522224 -1.909109,-0.61677 -2.789547,-0.238723 -0.426907,0.183308 -0.786702,0.444347 -1.076553,0.781063 -0.346257,0.402236 -0.557391,0.830136 -0.666541,1.350859 -0.06167,0.294207 -0.0626,0.31305 -0.07038,1.42134 -0.0043,0.617746 -0.003,1.136479 0.0032,1.152736 0.0088,0.02342 0.628833,0.02958 2.991608,0.02958 h 2.980548 z"
         id="path20" /></g><text
       xml:space="preserve"
       style="font-style:normal;font-variant:normal;font-weight:normal;font-stretch:normal;font-size:26.1854px;line-height:1.2;font-family:Arial;-inkscape-font-specification:'Arial, @opsz=32,wght=300';font-variant-ligatures:normal;font-variant-caps:normal;font-variant-numeric:normal;font-variant-east-asian:normal;font-variation-settings:'opsz' 32, 'wght' 300;text-align:start;writing-mode:lr-tb;direction:ltr;text-orientation:upright;text-anchor:start;display:none;fill:#203859;fill-opacity:1;stroke-width:1.22744;paint-order:markers stroke fill"
       x="8.4405642"
       y="25.128304"
       id="text24"
       inkscape:label="ア_half"><tspan
         sodipodi:role="line"
         id="tspan24"
         style="font-style:normal;font-variant:normal;font-weight:bold;font-stretch:normal;font-size:26.1854px;font-family:'Noto Serif CJK JP';-inkscape-font-specification:'Noto Serif CJK JP, Bold';font-variant-ligatures:normal;font-variant-caps:normal;font-variant-numeric:normal;font-variant-east-asian:normal;stroke-width:1.22744"
         x="8.4405642"
         y="25.128304">ｱ</tspan></text><rect
       style="display:none;fill:#203859;fill-opacity:1;stroke-width:0.845;stroke-linejoin:bevel"
       id="rect24"
       width="4.2833419"
       height="21.917955"
       x="3.9639518"
       y="4.0803041" /><rect
       style="display:none;fill:#203859;fill-opacity:1;stroke-width:0.845;stroke-linejoin:bevel"
       id="rect24-3"
       width="4.2833419"
       height="21.917955"
       x="21.739223"
       y="4.0803041" /><text
       xml:space="preserve"
       style="font-size:24.597px;line-height:1.2;font-family:'Adwaita Sans';-inkscape-font-specification:'Adwaita Sans, @opsz=32,wght=300';font-variation-settings:'opsz' 32, 'wght' 300;text-align:start;writing-mode:lr-tb;direction:ltr;text-orientation:upright;text-anchor:start;display:none;fill:#203859;fill-opacity:1;stroke-width:1.15298;paint-order:markers stroke fill"
       x="11.071235"
       y="20.507692"
       id="text25"
       inkscape:label="A_half"
       transform="scale(0.77824087,1.2849492)"><tspan
         sodipodi:role="line"
         id="tspan25"
         style="font-style:normal;font-variant:normal;font-weight:normal;font-stretch:normal;font-size:24.597px;font-family:Arial;-inkscape-font-specification:'Arial, @opsz=32,wght=300';font-variant-ligatures:normal;font-variant-caps:normal;font-variant-numeric:normal;font-variant-east-asian:normal;font-variation-settings:'opsz' 32, 'wght' 300;stroke-width:1.15298"
         x="11.071235"
         y="20.507692">A</tspan></text><rect
       style="display:none;fill:#203859;fill-opacity:1;stroke-width:0.845;stroke-linejoin:bevel"
       id="rect25"
       width="4.2833419"
       height="21.917955"
       x="4.009975"
       y="-25.952236"
       transform="rotate(90)" /><rect
       style="display:none;fill:#203859;fill-opacity:1;stroke-width:0.845;stroke-linejoin:bevel"
       id="rect26"
       width="4.2833419"
       height="21.917955"
       x="21.785246"
       y="-25.952236"
       transform="rotate(90)" /><text
       xml:space="preserve"
       style="font-size:22.5293px;line-height:1.2;font-family:'Adwaita Sans';-inkscape-font-specification:'Adwaita Sans, @opsz=32,wght=300';font-variation-settings:'opsz' 32, 'wght' 300;text-align:start;writing-mode:lr-tb;direction:ltr;text-orientation:upright;text-anchor:start;display:none;fill:#203859;fill-opacity:1;stroke-width:1.05606;paint-order:markers stroke fill"
       x="4.0723791"
       y="27.52784"
       id="text26"
       inkscape:label="A_half"
       transform="scale(1.2946869,0.77238751)"><tspan
         sodipodi:role="line"
         id="tspan26"
         style="font-style:normal;font-variant:normal;font-weight:normal;font-stretch:normal;font-size:22.5293px;font-family:Arial;-inkscape-font-specification:'Arial, @opsz=32,wght=300';font-variant-ligatures:normal;font-variant-caps:normal;font-variant-numeric:normal;font-variant-east-asian:normal;font-variation-settings:'opsz' 32, 'wght' 300;stroke-width:1.05606"
         x="4.0723791"
         y="27.52784">A</tspan></text><path
       style="display:none;fill:#203859;fill-opacity:1;stroke-width:0.0988682"
       d="m 7.0946837,27.582515 c -1.334163,-0.207744 -2.391875,-1.328697 -2.530758,-2.682082 -0.0376,-0.366128 -0.03744,-19.4845466 9.8e-5,-19.8125781 0.157105,-1.3714336 1.204261,-2.4655794 2.554457,-2.6690988 0.38661,-0.058278 15.3768943,-0.058278 15.7635013,0 1.344496,0.2026552 2.383811,1.2828499 2.554249,2.6547121 0.03668,0.2954015 0.03754,13.0925378 0.0011,13.4463328 -0.174984,1.688796 -1.324433,3.082466 -2.92485,3.546295 -0.566962,0.16432 0.05515,0.151053 -7.825937,0.166901 l -7.1806023,0.01445 -0.20265,0.09676 c -0.341984,0.163304 -0.580041,0.468116 -0.647377,0.82891 -0.03439,0.184301 -0.03406,1.628977 3.96e-4,1.810781 0.08125,0.428428 0.375816,0.761452 0.786603,0.8893 0.154947,0.04826 0.395231,0.04954 8.9201153,0.04954 7.096778,0 8.76088,0.0063 8.76088,0.03347 0,0.08361 -0.336779,0.545574 -0.558965,0.766717 -0.480041,0.477781 -1.03987,0.764289 -1.682754,0.86119 -0.367981,0.05547 -15.4306493,0.05394 -15.7873343,-0.0016 z M 15.11798,18.624517 c 0.81483,-0.03412 1.34542,-0.109268 1.956624,-0.277061 1.857559,-0.509971 3.147205,-1.733704 3.746793,-3.555292 0.219247,-0.666108 0.332521,-1.32064 0.381144,-2.202504 C 21.2696,11.373665 21.118791,10.142206 20.785147,9.1810924 20.126192,7.282899 18.635898,6.0336201 16.54364,5.6255282 15.799399,5.4803648 15.888553,5.4839394 12.757147,5.4736121 l -2.9101743,-0.00963 v 6.5758539 c 0,3.616718 0.0079,6.5837 0.01744,6.593289 0.02645,0.02646 4.5954973,0.01891 5.2535653,-0.0086 z M 12.044315,12.048123 V 7.2976549 l 1.157532,3.746e-4 c 1.643228,5.445e-4 2.231413,0.041076 2.910171,0.200526 1.742841,0.409434 2.609559,1.4470334 2.880358,3.4482575 0.05771,0.426476 0.06674,1.632014 0.01548,2.066542 -0.171563,1.454369 -0.700533,2.470644 -1.583156,3.041611 -0.396863,0.25673 -0.939871,0.467981 -1.495806,0.581914 -0.591265,0.121178 -0.817379,0.135271 -2.38699,0.148799 l -1.497598,0.01292 z"
       id="path22"
       inkscape:label="dictionary" /><rect
       style="display:none;fill:none;stroke:#203859;stroke-width:1.61;stroke-linejoin:bevel;stroke-opacity:1;paint-order:stroke fill markers"
       id="rect8"
       width="26.022566"
       height="25.998259"
       x="1.9887171"
       y="2.0008707"
       ry="6.2886238" /><path
       style="display:none;fill:#203859;fill-opacity:1;stroke-width:0.187233"
       d="M 9.3272162,24.862581 C 9.2166209,24.805941 8.9336004,24.622117 8.6982831,24.454085 6.4694059,22.862526 5.2927206,20.547241 5.2927206,17.753191 c 0,-1.67237 0.3312784,-3.182265 0.9739206,-4.43893 1.0678182,-2.088077 2.8689,-3.4170352 5.2927518,-3.9053452 0.436625,-0.08796 0.791077,-0.115824 1.783401,-0.1401821 l 1.238473,-0.030401 0.02477,-1.9320178 c 0.01362,-1.06261 0.04337,-1.9696924 0.06608,-2.015739 0.112037,-0.2270374 0.477972,-0.3284702 0.72654,-0.2013874 0.09536,0.048755 2.204948,1.6767858 4.687969,3.6178464 3.314326,2.5909221 4.530994,3.5688231 4.576313,3.6782361 0.09864,0.238142 0.03081,0.49295 -0.184584,0.693383 -0.206926,0.192555 -8.661506,6.805756 -8.957838,7.006854 -0.275489,0.18695 -0.530999,0.172314 -0.746051,-0.04273 L 14.60603,19.874343 v -1.936972 -1.936972 l -0.879316,6.55e-4 c -0.662196,4.87e-4 -0.989561,0.02341 -1.325808,0.09281 -1.64395,0.339308 -2.9689021,1.499231 -3.4870153,3.052695 -0.2101044,0.629958 -0.269538,1.081224 -0.2380845,1.807741 0.051599,1.191884 0.3574254,2.146617 1.0228746,3.193233 0.1378809,0.216856 0.2506911,0.435222 0.2506911,0.485257 0,0.116939 -0.2165546,0.334369 -0.3321359,0.333475 -0.04892,-3.75e-4 -0.1794315,-0.04703 -0.2900267,-0.103671 z"
       id="path5" /><rect
       style="display:inline;fill:none;fill-opacity:1;stroke:#203859;stroke-width:2;stroke-linejoin:bevel;stroke-dasharray:none;stroke-dashoffset:0;stroke-opacity:1"
       id="rect11"
       width="12.30226"
       height="5.598115"
       x="8.8488693"
       y="2.7944627"
       ry="1.5089717" /><rect
       style="display:inline;fill:#ffffff;fill-opacity:1;stroke:#203859;stroke-width:1.94943;stroke-linejoin:bevel;stroke-dasharray:none;stroke-opacity:1;paint-order:normal"
       id="rect9"
       width="26.063494"
       height="20.488159"
       x="1.9682537"
       y="6.3621712"
       ry="3.019542" /><text
       xml:space="preserve"
       style="font-style:normal;font-variant:normal;font-weight:bold;font-stretch:normal;font-size:19.7333px;line-height:0.9;font-family:'Noto Serif CJK JP';-inkscape-font-specification:'Noto Serif CJK JP, Bold';font-variant-ligatures:normal;font-variant-caps:normal;font-variant-numeric:normal;font-variant-east-asian:normal;text-align:start;writing-mode:lr-tb;direction:ltr;text-orientation:upright;text-anchor:start;display:inline;fill:#203859;fill-opacity:1;stroke-width:0.925;paint-order:markers stroke fill"
       x="4.9650068"
       y="23.372324"
       id="text15"
       inkscape:label="odoriji"><tspan
         sodipodi:role="line"
         id="tspan14"
         style="line-height:0.9;stroke-width:0.925"
         x="4.9650068"
         y="23.372324">々</tspan><tspan
         sodipodi:role="line"
         style="line-height:0.9;stroke-width:0.925"
         x="4.9650068"
         y="41.132294"
         id="tspan15" /></text></g></svg>
