<?xml version="1.0" encoding="UTF-8" standalone="no"?>
<!-- Created with Inkscape (http://www.inkscape.org/) -->

<svg
   width="26.022566mm"
   height="25.998259mm"
   viewBox="0 0 26.022566 25.998259"
   version="1.1"
   id="svg1"
   xml:space="preserve"
   inkscape:version="1.4.2 (ebf0e940d0, 2025-05-08)"
   sodipodi:docname="tool_icons_small.svg"
   inkscape:export-filename="../src/ibus-marinamoji/icons/small_dark_composer.png"
   inkscape:export-xdpi="96"
   inkscape:export-ydpi="96"
   xmlns:inkscape="http://www.inkscape.org/namespaces/inkscape"
   xmlns:sodipodi="http://sodipodi.sourceforge.net/DTD/sodipodi-0.dtd"
   xmlns="http://www.w3.org/2000/svg"
   xmlns:svg="http://www.w3.org/2000/svg"><sodipodi:namedview
     id="namedview1"
     pagecolor="#ffffff"
     bordercolor="#000000"
     borderopacity="0.25"
     inkscape:showpageshadow="2"
     inkscape:pageopacity="0.0"
     inkscape:pagecheckerboard="0"
     inkscape:deskcolor="#d1d1d1"
     inkscape:document-units="mm"
     showguides="true"
     inkscape:zoom="1.4814521"
     inkscape:cx="-113.06474"
     inkscape:cy="154.57806"
     inkscape:window-width="1920"
     inkscape:window-height="1009"
     inkscape:window-x="0"
     inkscape:window-y="0"
     inkscape:window-maximized="1"
     inkscape:current-layer="g47"
     showgrid="false"><sodipodi:guide
       position="17.324723,27.920567"
       orientation="0,-1"
       id="guide1"
       inkscape:locked="false" /><sodipodi:guide
       position="10.991219,272.43241"
       orientation="0,-1"
       id="guide2"
       inkscape:locked="false" /><sodipodi:guide
       position="1.9752346,281.17106"
       orientation="1,0"
       id="guide3"
       inkscape:locked="false" /><sodipodi:guide
       position="24.033848,277.55962"
       orientation="1,0"
       id="guide4"
       inkscape:locked="false" /><sodipodi:guide
       position="-13.285874,6.0026109"
       orientation="0,-1"
       id="guide5"
       inkscape:locked="false" /></sodipodi:namedview><defs
     id="defs1" /><g
     inkscape:label="Light"
     inkscape:groupmode="layer"
     id="layer1"
     transform="translate(-1.9887171,-2.0008707)"
     style="display:inline"><rect
       style="display:inline;fill:#203859;fill-opacity:1;stroke-width:1.61;stroke-linejoin:bevel;paint-order:stroke fill markers"
       id="rect2"
       width="26.022566"
       height="25.998259"
       x="1.9887171"
       y="2.0008707"
       ry="6.2886238" /><rect
       style="display:none;fill:#7b2c2c;fill-opacity:1;stroke-width:1.61;stroke-linejoin:bevel;paint-order:stroke fill markers"
       id="rect34"
       width="26.022566"
       height="25.998259"
       x="1.9887171"
       y="2.0008707"
       ry="6.2886238"
       inkscape:label="Red square" /><path
       id="path21"
       style="display:none;fill:#ffffff;fill-opacity:1;stroke-width:0.372281"
       inkscape:label="Half"
       d="M 15.038567,5.9329304 C 13.605311,5.9293564 13.257597,5.959397 12.625277,6.14222 11.01609,6.607493 9.8861467,7.2587659 8.6575607,8.4294189 6.8800407,10.123115 5.9322451,12.377142 5.9290451,14.916361 c -0.0045,3.520272 1.9027674,6.657748 4.9728229,8.18038 0.935963,0.464204 1.594129,0.67773 2.659269,0.861446 0.466485,0.08046 0.967208,0.101828 1.47743,0.09457 z" /><path
       style="display:none;fill:#ffffff;fill-opacity:1;stroke-width:0.372281"
       d="m 13.561211,23.957945 c -1.06514,-0.183716 -1.723517,-0.396885 -2.65948,-0.861089 -3.0700556,-1.522632 -4.9774246,-4.660301 -4.9729206,-8.180573 0.0032,-2.539219 0.95146,-4.793137 2.72898,-6.4868329 1.228586,-1.170653 2.3584896,-1.822017 3.9676766,-2.28729 0.63232,-0.182823 0.979978,-0.212993 2.413234,-0.209419 1.534357,0.0039 1.746997,0.02647 2.540946,0.270737 0.934399,0.287472 1.826173,0.704016 2.531768,1.182592 0.651758,0.442061 1.83057,1.605319 2.322795,2.292148 1.714603,2.3924879 2.124662,5.8528419 1.028877,8.6823659 -0.819347,2.115716 -2.738052,4.085774 -4.838973,4.968489 -1.573171,0.660977 -3.493689,0.899528 -5.062903,0.628872 z"
       id="path4"
       inkscape:label="Full" /><g
       id="g19"
       inkscape:label="A"
       style="display:none"><path
         style="fill:#ffffff;fill-opacity:1;stroke-width:0.372281"
         d="m 7.0027942,24.019148 c -0.02826,-0.07372 1.369333,-4.038362 3.1058158,-8.810332 1.736483,-4.771969 3.157251,-8.7170648 3.157251,-8.7668786 0,-0.049813 0.09186,-0.20736 0.204149,-0.3501022 0.202209,-0.2570755 0.216426,-0.2595176 1.50211,-0.2580234 0.713876,8.191e-4 1.35165,0.035628 1.417267,0.077326 0.171257,0.1088358 0.14436,0.037747 3.23732,8.5542352 3.541126,9.7505 3.413637,9.387141 3.35092,9.550576 -0.07925,0.206512 -2.545302,0.197674 -2.752838,-0.0099 -0.08092,-0.0809 -0.511869,-1.244421 -0.957719,-2.585607 l -0.810629,-2.438519 -3.45716,0.02313 -3.45716,0.02313 -0.845399,2.472614 c -0.464962,1.359938 -0.9082138,2.512377 -0.9849928,2.560974 -0.07679,0.0486 -0.706128,0.08904 -1.398549,0.08987 -0.971969,0.0011 -1.270685,-0.02905 -1.310386,-0.132515 z"
         id="path16" /><path
         style="fill:#203859;fill-opacity:1;stroke-width:0.372281"
         d="m 17.599828,16.430359 c 0,-0.02193 -0.576222,-1.693419 -1.280489,-3.714427 -0.704276,-2.021008 -1.280497,-3.6947937 -1.280497,-3.7195227 0,-0.02473 -0.02115,-0.02384 -0.04695,0.002 -0.04651,0.04654 -2.612543,7.3414237 -2.612543,7.4271837 0,0.02456 1.1746,0.04465 2.610225,0.04465 1.435635,0 2.610236,-0.01794 2.610236,-0.03987 z"
         id="path17" /></g><g
       id="g18"
       inkscape:label="Settings"
       style="display:none"><path
         style="fill:#ffffff;fill-opacity:1;stroke-width:0.372281"
         d="m 13.224754,26.22604 c -0.353598,-0.178922 -0.47597,-0.503307 -0.564473,-1.496317 -0.07185,-0.806155 -0.100326,-0.89442 -0.324998,-1.007327 -0.423488,-0.212824 -1.876907,-0.817829 -1.964686,-0.817829 -0.04601,0 -0.3873817,0.236896 -0.7585974,0.526433 -0.8718524,0.680021 -1.0795804,0.785104 -1.395338,0.705853 C 7.9258648,24.063863 5.9916533,22.212618 5.7764863,21.801342 5.5343367,21.338489 5.6094786,21.111953 6.2771216,20.292044 6.6290051,19.859908 6.9171157,19.43256 6.9173667,19.342383 6.9179257,19.135352 6.3365111,17.603215 6.2331175,17.539314 6.1907924,17.513154 5.7224025,17.43845 5.1922468,17.373298 4.4500464,17.282088 4.1694732,17.204268 3.9724623,17.034979 3.7186331,16.816868 3.7163471,16.802017 3.685181,15.168672 3.65243,13.45224 3.720188,13.040224 4.065576,12.855374 c 0.095817,-0.05127 0.6067922,-0.158219 1.1355009,-0.237645 0.5287087,-0.07943 1.0151167,-0.201993 1.0809064,-0.272372 0.065792,-0.07038 0.2600143,-0.497616 0.4316099,-0.949412 L 7.0255842,10.574497 6.6700569,10.140623 C 6.4689328,9.895178 6.345199,9.6571268 6.3851478,9.592488 6.4271305,9.524555 6.41287,9.504737 6.3499752,9.54361 6.195823,9.638881 5.6373357,8.9163471 5.6373357,8.621645 c 0,-0.3453191 0.183292,-0.5945592 1.2204647,-1.6595857 0.9216792,-0.9464314 1.2941251,-1.1967474 1.6729098,-1.1243384 0.119492,0.022843 0.5466867,0.3040908 0.9493214,0.6249965 0.402633,0.3209054 0.8126244,0.5834646 0.9110884,0.5834646 0.09846,0 0.343479,-0.082573 0.544475,-0.1834958 0.200996,-0.1009222 0.609233,-0.2619236 0.907194,-0.3577803 0.29796,-0.095857 0.592481,-0.2142964 0.654492,-0.2631989 0.06201,-0.048903 0.144601,-0.5339761 0.183535,-1.0779412 0.05931,-0.8285966 0.107527,-1.0317525 0.297272,-1.2524186 l 0.226485,-0.2633905 h 1.729977 c 1.714318,0 1.732194,0.00224 1.974941,0.2462482 0.209492,0.2105913 0.253511,0.3674813 0.304,1.0834919 0.08954,1.2697967 0.07681,1.2422526 0.66226,1.4339044 0.284482,0.093129 0.726309,0.2740075 0.981839,0.4019531 0.255528,0.1279454 0.543637,0.2323162 0.640245,0.2319357 0.09661,-3.723e-4 0.508083,-0.2660173 0.914393,-0.5903037 0.625309,-0.4990751 0.799243,-0.5896135 1.132742,-0.5896247 0.368616,-1.26e-5 0.467535,0.071325 1.535578,1.1074248 0.678927,0.658621 1.168004,1.214446 1.206778,1.3714758 0.08159,0.3304253 -0.03872,0.6542143 -0.401081,1.0793854 -0.155183,0.1820859 -0.424693,0.5154906 -0.598911,0.7408984 l -0.316758,0.409834 0.311089,0.870657 c 0.1711,0.47886 0.350427,0.921251 0.398503,0.98309 0.04808,0.06184 0.538793,0.167727 1.090479,0.235309 0.88051,0.10786 1.036574,0.156382 1.277302,0.39711 l 0.274237,0.274236 v 1.660148 c 0,2.183886 -0.01439,2.206311 -1.53619,2.393609 -0.590066,0.07262 -0.928171,0.162779 -1.033296,0.275528 -0.12936,0.138743 -0.779491,1.585706 -0.779491,1.734874 0,0.02478 0.267563,0.381743 0.594583,0.793264 0.690299,0.868668 0.783679,1.07538 0.672351,1.488347 -0.100314,0.372116 -2.111211,2.366736 -2.479148,2.459081 -0.361537,0.09074 -0.57209,-0.0017 -1.321446,-0.580169 -0.367162,-0.28343 -0.7259,-0.551202 -0.797198,-0.595047 -0.07916,-0.04867 -0.462632,0.06163 -0.984992,0.283359 -1.384383,0.587635 -1.345181,0.560775 -1.372129,0.940155 -0.101338,1.426688 -0.141372,1.605961 -0.421089,1.885679 l -0.278232,0.278233 -1.558941,-0.0015 c -1.048858,-9.67e-4 -1.638539,-0.04175 -1.802212,-0.124566 z"
         id="path13" /><path
         style="fill:#203859;fill-opacity:1;stroke-width:0.372281"
         d="m 16.568506,19.272574 c 2.634962,-1.013738 3.749692,-4.127574 2.355227,-6.57898 -0.369977,-0.650404 -1.307745,-1.519539 -1.985459,-1.840148 -1.757598,-0.831478 -3.824221,-0.448784 -5.17545,0.95838 -0.320338,0.333599 -0.677389,0.792675 -0.79345,1.020172 -0.694092,1.360533 -0.657828,3.109801 0.09163,4.419708 0.559084,0.977177 1.813688,1.923675 2.919072,2.202208 0.59955,0.151074 1.974846,0.05473 2.588434,-0.18134 z"
         id="path14" /></g><g
       id="g21"
       inkscape:label="Kata"
       style="display:none"><path
         style="fill:#ffffff;fill-opacity:1;stroke-width:0.372281"
         d="m 17.229162,14.819666 c -0.820941,-0.557104 -1.363113,-1.003884 -1.414424,-1.165556 -0.03958,-0.124788 0.246597,-0.503295 1.009662,-1.335259 0.959956,-1.046644 2.296144,-2.6182739 2.296205,-2.7008189 9e-6,-0.01781 -2.588787,-0.02025 -5.752883,-0.0054 -5.1572407,0.02413 -5.7691617,0.01065 -5.9099767,-0.130161 -0.121719,-0.121712 -0.157076,-0.367632 -0.157076,-1.092261 0,-1.481912 -0.877588,-1.316289 6.9722837,-1.315861 6.407989,3.48e-4 6.784098,0.01005 7.063859,0.18224 0.470377,0.289508 1.313236,1.087706 1.384003,1.310675 0.04847,0.152731 -0.122406,0.481407 -0.680451,1.308782 -1.052387,1.5603079 -4.088629,5.1763779 -4.346353,5.1763779 -0.06705,0 -0.276243,-0.10472 -0.464849,-0.232711 z"
         id="path12" /><path
         style="fill:#ffffff;fill-opacity:1;stroke-width:0.372281"
         d="m 9.1373963,22.168948 c -0.463874,-0.471556 -0.751375,-0.844522 -0.752086,-0.975665 -7.46e-4,-0.149095 0.203561,-0.364066 0.686461,-0.722051 1.8205447,-1.34963 2.8895577,-3.114074 3.2922207,-5.433936 0.07846,-0.45219 0.194874,-1.464872 0.258629,-2.250404 0.06371,-0.785532 0.161078,-1.483646 0.216278,-1.551364 0.07047,-0.08644 0.462997,-0.123124 1.317644,-0.123124 1.210476,0 1.217646,0.0013 1.278023,0.2419 0.08565,0.341305 -0.134786,3.207011 -0.314784,4.092069 -0.318005,1.563587 -1.005169,3.24484 -1.812647,4.434926 -0.785206,1.15726 -2.805258,3.047367 -3.259769,3.050074 -0.08749,3.71e-4 -0.4969497,-0.34257 -0.9099697,-0.762425 z"
         id="path11" /></g><g
       id="g20"
       inkscape:label="Hira"
       style="display:none"><path
         style="fill:#ffffff;fill-opacity:1;stroke-width:0.372281"
         d="m 17.59147,24.509751 c -0.198042,-0.222854 -0.663876,-1.340125 -0.663876,-1.592256 0,-0.148231 0.102298,-0.222482 0.418622,-0.303853 1.314338,-0.338082 2.388384,-0.7835 3.004801,-1.246123 0.179667,-0.134832 0.374607,-0.20968 0.443258,-0.170188 0.06735,0.03877 0.09088,0.0354 0.05217,-0.0076 -0.0388,-0.04292 0.08063,-0.254529 0.265298,-0.470255 1.466335,-1.713076 1.092592,-4.344027 -0.797582,-5.614615 -0.557518,-0.374774 -0.82552,-0.459099 -0.82552,-0.259751 0,0.246807 -1.219012,2.572551 -1.87842,3.583829 -0.814687,1.249417 -1.257043,1.812842 -2.130884,2.714141 l -0.625988,0.645657 0.219565,0.610255 c 0.138459,0.384827 0.185026,0.644593 0.126042,0.703216 -0.05142,0.05113 -0.492447,0.247741 -0.980017,0.436917 -0.98922,0.383806 -1.18485,0.355999 -1.36247,-0.193651 -0.0509,-0.157887 -0.10595,-0.302641 -0.12209,-0.321677 -0.0161,-0.01903 -0.50871,0.15592 -1.09463,0.388785 -1.02711,0.408217 -1.10413,0.423429 -2.1487799,0.424378 -1.304992,0.0011 -1.942562,-0.206899 -2.688302,-0.877377 -2.48758,-2.23654 -0.44771,-7.410859 3.6979119,-9.380092 l 0.91112,-0.432796 7.4e-4,-0.510856 c 3.3e-4,-0.280969 0.029,-0.876534 0.0639,-1.323474 l 0.0633,-0.812619 H 9.4119491 c -2.400422,0 -2.591132,-0.04016 -2.689882,-0.5665018 -0.10083,-0.537481 0.0251,-1.429578 0.22216,-1.573668 0.12704,-0.09288 0.7619,-0.125313 2.452842,-0.125313 h 2.2814499 l 0.0686,-1.157367 c 0.0799,-1.347092 0.12278,-1.566295 0.32158,-1.642582 0.0805,-0.03092 0.55056,-0.06055 1.04438,-0.06584 1.11203,-0.01191 1.19106,0.05706 1.1109,0.969682 -0.0298,0.338592 -0.08,0.905509 -0.11159,1.259817 -0.0567,0.635098 -0.0543,0.643527 0.17237,0.596793 0.12645,-0.02608 0.62881,-0.07464 1.116383,-0.107932 1.002588,-0.06845 1.970408,-0.20757 4.555942,-0.654892 2.240459,-0.387624 2.191254,-0.408144 2.191254,0.913821 0,1.16712 0.142814,1.090583 -2.905719,1.557228 -1.411751,0.2160988 -4.174098,0.4973878 -4.88972,0.4979208 l -0.45725,3.41e-4 -0.0709,0.990397 c -0.039,0.544719 -0.0548,1.006469 -0.0352,1.026112 0.0196,0.01964 0.2573,-0.0099 0.52814,-0.06564 0.27083,-0.05574 1.135112,-0.107494 1.920648,-0.114993 0.785535,-0.0075 1.458556,-0.05584 1.495608,-0.107425 0.037,-0.05159 0.09678,-0.307602 0.132721,-0.56893 0.07513,-0.546392 0.26359,-0.784738 0.570409,-0.721458 0.117969,0.02433 0.521603,0.09353 0.89695,0.153782 0.983871,0.157925 1.077849,0.225358 1.007937,0.723178 -0.03159,0.224795 -0.08689,0.552773 -0.122845,0.72884 -0.04857,0.237665 -0.03055,0.320142 0.07001,0.3202 0.07447,4.3e-5 0.401386,0.126834 0.726437,0.281758 2.323936,1.107636 3.550183,3.392543 3.206536,5.974897 -0.140139,1.053063 -0.392045,1.743785 -0.924946,2.536204 -0.751518,1.117501 -2.230906,2.083561 -4.159669,2.71632 -1.274364,0.418071 -1.370278,0.432665 -1.545762,0.235193 z"
         id="path7" /><path
         style="fill:#000000;stroke-width:0.372281"
         d="m 14.957609,18.312165 c 0.352128,-0.436733 0.833738,-1.132283 1.070227,-1.545668 0.464544,-0.811998 1.196123,-2.438025 1.139462,-2.532561 -0.05085,-0.08479 -1.766608,-0.0046 -2.455949,0.114741 -1.03784,0.179727 -0.96091,0.07975 -0.89215,1.159315 0.16002,2.512396 0.2835,3.665728 0.38892,3.63258 0.0601,-0.01888 0.39736,-0.391674 0.74949,-0.828407 z"
         id="path9" /><path
         style="fill:#000000;stroke-width:0.372281"
         d="m 10.212319,21.625695 c 0.23425,-0.05403 0.75842,-0.256018 1.16482,-0.448866 0.57808,-0.274322 0.72534,-0.385962 0.67661,-0.512951 -0.10659,-0.277769 -0.33163,-2.068679 -0.4572,-3.638479 -0.0661,-0.826164 -0.15121,-1.502115 -0.18915,-1.502115 -0.038,0 -0.39604,0.21622 -0.79575,0.480489 -1.6390649,1.08365 -2.6475019,2.614797 -2.6475019,4.019813 0,0.892513 0.31358,1.398506 0.984997,1.589378 0.453335,0.12888 0.746725,0.131835 1.2631749,0.01273 z"
         id="path8" /></g><path
       style="display:none;fill:#ffffff;fill-opacity:1;stroke-width:0.282779"
       d="m 14.176898,24.93817 c -1.611826,-0.107804 -3.500704,-0.783837 -4.8689924,-1.74262 -0.323365,-0.226587 -0.600071,-0.411978 -0.614903,-0.411978 -0.01485,0 0.0051,0.199437 0.04441,0.443191 0.09635,0.59828 0.01813,0.952961 -0.274815,1.245892 -0.581168,0.581166 -1.511572,0.43476 -1.841056,-0.289705 -0.157939,-0.34727 -0.900064,-5.057704 -0.899459,-5.709067 5.66e-4,-0.469888 0.21805,-0.830872 0.619558,-1.027734 0.273513,-0.134107 0.321315,-0.133561 1.906877,0.02178 3.5022554,0.343142 3.6944664,0.367387 3.8808724,0.489525 0.668764,0.43819 0.632258,1.547969 -0.06542,1.988834 -0.209754,0.132545 -0.330027,0.149302 -0.860363,0.119868 -0.339087,-0.01881 -0.598885,-0.0056 -0.577329,0.0292 0.103281,0.167111 1.336522,0.909292 1.857673,1.117969 0.862713,0.345448 1.533996,0.471157 2.515954,0.471157 0.978259,0 1.653262,-0.125718 2.503981,-0.466362 1.79299,-0.717949 3.286394,-2.321671 3.889532,-4.176854 0.07023,-0.216038 0.151374,-0.392797 0.180307,-0.392797 0.09415,0 3.021391,0.816536 3.057813,0.852958 0.06864,0.06863 -0.379902,1.288209 -0.731941,1.990136 -0.953899,1.90197 -2.508706,3.456201 -4.419257,4.417623 -1.652746,0.831687 -3.344779,1.159977 -5.303437,1.028978 z M 6.8538986,12.943991 c -0.797371,-0.222536 -1.465796,-0.42064 -1.485387,-0.440231 -0.06885,-0.06885 0.379067,-1.287279 0.731696,-1.990383 2.092072,-4.1713649 6.8388804,-6.3250439 11.3940424,-5.1696069 1.039439,0.26366 2.319809,0.850511 3.197645,1.465626 0.323364,0.226588 0.600071,0.411977 0.614903,0.411977 0.01484,0 -0.0051,-0.199435 -0.04441,-0.44319 -0.03925,-0.243755 -0.04942,-0.560187 -0.02259,-0.703184 0.183524,-0.978266 1.588795,-1.2206 2.091064,-0.360596 0.16174,0.276935 0.940855,5.0444499 0.944455,5.7792509 0.0025,0.509592 -0.201237,0.861218 -0.617149,1.065144 -0.273514,0.134106 -0.321316,0.133561 -1.906878,-0.02179 -3.726051,-0.365068 -3.669838,-0.357475 -3.909457,-0.528097 -0.302366,-0.215304 -0.447742,-0.518692 -0.447742,-0.934398 0,-0.39067 0.120138,-0.664164 0.410819,-0.935229 0.184423,-0.1719779 0.256789,-0.1869719 0.898342,-0.1861409 0.383767,5.09e-4 0.682759,-0.02337 0.664424,-0.05304 -0.09841,-0.159223 -1.345608,-0.905796 -1.851815,-1.108491 -0.862714,-0.345447 -1.533996,-0.471157 -2.515954,-0.471157 -0.508403,0 -1.079074,0.04834 -1.39489,0.11814 -2.317889,0.512333 -4.2560564,2.2568109 -4.9651554,4.4689629 -0.07256,0.226326 -0.177871,0.418148 -0.234047,0.426272 -0.05617,0.0081 -0.754538,-0.167304 -1.55191,-0.389842 z"
       id="path22"
       inkscape:label="Reload" /><g
       id="g32"
       inkscape:label="Toolbar"
       style="display:none"><path
         style="fill:#ffffff;fill-opacity:1;stroke-width:0.255026"
         d="M 22.769233,8.6763206 C 23.200422,8.4908282 23.718956,7.920892 23.869844,7.4666048 24.113243,6.7338016 23.888486,5.8339082 23.337782,5.336389 22.925602,4.9640084 22.532434,4.816624 21.943664,4.8137856 c -0.419417,-0.00204 -0.572027,0.029642 -0.888014,0.1842381 -1.234905,0.6041836 -1.559262,2.1548308 -0.664018,3.1744587 0.591506,0.6736882 1.523617,0.8712132 2.377601,0.5038382 z"
         id="path28" /><path
         style="fill:#ffffff;fill-opacity:1;stroke-width:0.255026"
         d="M 15.62968,8.7891976 C 16.370262,8.5963017 16.919701,8.071097 17.127037,7.3578848 17.56358,5.8562357 16.057766,4.4113986 14.546181,4.8815357 c -0.55098,0.1713695 -1.178623,0.7882253 -1.333847,1.3109231 -0.352226,1.1860729 0.307979,2.3465565 1.493924,2.6259628 0.372873,0.08785 0.487943,0.0842 0.923422,-0.02922 z"
         id="path27" /><path
         style="fill:#ffffff;fill-opacity:1;stroke-width:0.255026"
         d="M 9.2385917,8.6507086 C 10.475881,8.0496952 10.783804,6.5014631 9.8658143,5.4970347 9.4227941,5.0123 8.9830357,4.8146169 8.347739,4.8146169 c -0.8281445,0 -1.5207404,0.4542592 -1.8774727,1.2313961 -0.2058388,0.4484165 -0.1982798,1.2111444 0.016169,1.6312659 0.5415774,1.0610087 1.7164113,1.4765447 2.7521594,0.9734297 z"
         id="path26" /><path
         style="fill:#ffffff;fill-opacity:1;stroke-width:0.255026"
         d="m 10.973765,25.045002 c 0.16782,-0.0644 0.126365,-0.373993 -0.09731,-0.726685 -0.725354,-1.143762 -0.9609949,-1.930579 -0.9623719,-3.213412 -10e-4,-1.004132 0.1008649,-1.460796 0.4488369,-2.010621 0.326448,-0.515817 0.530545,-0.440942 0.61377,0.225167 0.08122,0.650032 0.370231,1.599824 0.676762,2.224045 0.553393,1.12693 1.264289,1.897984 2.417329,2.621884 0.856108,0.53748 1.610254,0.80495 2.509571,0.890055 0.412822,0.03907 0.494125,0.0276 0.639657,-0.09025 0.269846,-0.218506 0.136026,-0.465516 -0.409787,-0.756409 -1.2723,-0.678075 -2.384731,-1.930831 -2.902431,-3.268555 -0.363419,-0.939071 -0.483115,-1.639511 -0.444609,-2.601814 0.01857,-0.463895 0.08293,-1.025629 0.143047,-1.248297 0.498929,-1.848076 1.971204,-3.141048 3.571036,-3.136128 0.559148,0.0018 0.981483,0.160003 1.161995,0.435499 0.160511,0.244973 0.04569,0.346669 -0.487491,0.431758 -0.485214,0.07744 -0.68864,0.186116 -0.74204,0.396425 -0.09834,0.38732 0.188262,0.83352 0.72707,1.131944 0.326912,0.181065 0.421764,0.200651 0.969638,0.200215 0.49341,-5.1e-4 0.657889,-0.02782 0.877183,-0.146252 0.345027,-0.186342 0.790294,-0.649104 0.980471,-1.018998 0.18748,-0.364646 0.203572,-1.08928 0.03705,-1.668239 -0.09807,-0.340957 -0.183394,-0.469446 -0.540638,-0.814126 -1.14504,-1.104761 -3.598166,-1.842835 -5.47735,-1.647975 -2.960112,0.306948 -5.4076131,2.119645 -7.9193853,5.865348 -0.4102035,0.611719 -2.0936247,3.323281 -2.6541199,4.275103 -0.4509872,0.765867 -0.345325,1.332514 0.2476375,1.32803 0.4910313,-0.0037 1.69922,-0.710991 2.5871654,-1.514535 0.5948625,-0.538319 0.640484,-0.520513 0.8159416,0.318445 0.098618,0.471552 0.2411292,0.886767 0.4478759,1.304902 0.6511006,1.316822 2.0935298,2.47133 2.7654918,2.213474 z"
         id="path25" /><path
         style="fill:#ffffff;fill-opacity:1;stroke-width:0.255026"
         d="m 24.807178,25.150758 c 1.21549,-0.139244 1.478743,-0.293381 1.320415,-0.773115 -0.04377,-0.132615 -0.145186,-0.281323 -0.225374,-0.330462 -0.08019,-0.04914 -0.52535,-0.125182 -0.989244,-0.16899 -3.220378,-0.304115 -5.441495,-1.148796 -7.006791,-2.664645 -0.598127,-0.579232 -0.879193,-0.951939 -1.185933,-1.572602 -0.340354,-0.688676 -0.44414,-1.169563 -0.44414,-2.05788 0,-1.002766 -0.104945,-1.130944 -0.583138,-0.712249 -0.5714,0.500305 -0.98041,1.388441 -1.073232,2.330452 -0.114328,1.160249 0.680747,2.542146 2.061042,3.582229 1.691279,1.274417 3.956311,2.125016 6.376616,2.394645 0.444946,0.04957 1.178249,0.03809 1.749779,-0.02738 z"
         id="path24" /></g><text
       xml:space="preserve"
       style="font-weight:bold;font-size:10.2131px;line-height:0.9;font-family:Arial;-inkscape-font-specification:'Arial, Bold';text-align:start;writing-mode:lr-tb;direction:ltr;text-orientation:upright;text-anchor:start;display:none;fill:#ffffff;fill-opacity:1;stroke-width:1.3644;stroke-linejoin:bevel;paint-order:stroke fill markers"
       x="4.1727691"
       y="22.641491"
       id="text32"
       inkscape:label="Japanese"><tspan
         sodipodi:role="line"
         id="tspan32"
         style="font-style:normal;font-variant:normal;font-weight:bold;font-stretch:normal;font-size:21.5253px;font-family:'Source Han Sans';-inkscape-font-specification:'Source Han Sans, Bold';font-variant-ligatures:normal;font-variant-caps:normal;font-variant-numeric:normal;font-variant-east-asian:normal;stroke-width:1.3644"
         x="0"
         y="0">日</tspan></text><g
       id="g33"
       inkscape:label="Blocked"
       style="display:none"><circle
         style="fill:#ffffff;fill-opacity:1;stroke-width:1.47257;stroke-linejoin:bevel;paint-order:stroke fill markers"
         id="path32"
         cx="15"
         cy="15"
         r="10.023539" /><circle
         style="fill:#203859;fill-opacity:1;stroke-width:1.00054;stroke-linejoin:bevel;paint-order:stroke fill markers"
         id="circle32"
         cx="21.213203"
         cy="-5.8578642e-08"
         r="6.8105083"
         transform="rotate(45)" /><path
         style="fill:#000000;fill-opacity:1;stroke:#ffffff;stroke-width:4.296;stroke-linejoin:bevel;stroke-dasharray:none;stroke-opacity:1;paint-order:stroke fill markers"
         d="M 21.176143,8.8238568 8.8238566,21.176144"
         id="path33" /></g><g
       id="g34"
       inkscape:label="Sync"
       style="display:none"><rect
         style="fill:#ffffff;fill-opacity:1;stroke:none;stroke-width:3.7415;stroke-linejoin:bevel;stroke-dasharray:none;stroke-opacity:1;paint-order:stroke fill markers"
         id="rect33"
         width="12.452981"
         height="5.7112575"
         x="8.5137167"
         y="17.263906"
         ry="0" /><circle
         style="fill:#ffffff;fill-opacity:1;stroke:none;stroke-width:4.10366;stroke-linejoin:bevel;stroke-dasharray:none;stroke-opacity:1;paint-order:stroke fill markers"
         id="path34"
         cx="8.9261293"
         cy="17.919298"
         r="5.0558667" /><circle
         style="fill:#ffffff;fill-opacity:1;stroke:none;stroke-width:4.10366;stroke-linejoin:bevel;stroke-dasharray:none;stroke-opacity:1;paint-order:stroke fill markers"
         id="path34-2"
         cx="20.966698"
         cy="17.919298"
         r="5.0558667" /><circle
         style="fill:#ffffff;fill-opacity:1;stroke:none;stroke-width:4.10366;stroke-linejoin:bevel;stroke-dasharray:none;stroke-opacity:1;paint-order:stroke fill markers"
         id="path34-1"
         cx="12.97105"
         cy="13.561481"
         r="5.0558672" /><circle
         style="fill:#ffffff;fill-opacity:1;stroke:none;stroke-width:3.73485;stroke-linejoin:bevel;stroke-dasharray:none;stroke-opacity:1;paint-order:stroke fill markers"
         id="path34-1-5"
         cx="18.490425"
         cy="11.24819"
         r="4.60149" /></g><text
       xml:space="preserve"
       style="font-style:normal;font-variant:normal;font-weight:normal;font-stretch:normal;font-size:23.1222px;line-height:1.2;font-family:Arial;-inkscape-font-specification:'Arial, @opsz=32,wght=300';font-variant-ligatures:normal;font-variant-caps:normal;font-variant-numeric:normal;font-variant-east-asian:normal;font-variation-settings:'opsz' 32, 'wght' 300;text-align:start;writing-mode:lr-tb;direction:ltr;text-orientation:upright;text-anchor:start;display:none;fill:#ffffff;fill-opacity:1;stroke-width:1.08385;paint-order:markers stroke fill"
       x="3.4735863"
       y="23.774883"
       id="text10"
       inkscape:label="kyu"><tspan
         sodipodi:role="line"
         id="tspan10"
         style="font-style:normal;font-variant:normal;font-weight:bold;font-stretch:normal;font-size:23.1222px;font-family:'Noto Serif CJK JP';-inkscape-font-specification:'Noto Serif CJK JP, Bold';font-variant-ligatures:normal;font-variant-caps:normal;font-variant-numeric:normal;font-variant-east-asian:normal;fill:#ffffff;fill-opacity:1;stroke-width:1.08385"
         x="0"
         y="0">舊</tspan></text><text
       xml:space="preserve"
       style="font-style:normal;font-variant:normal;font-weight:normal;font-stretch:normal;font-size:23.1222px;line-height:1.2;font-family:Arial;-inkscape-font-specification:'Arial, @opsz=32,wght=300';font-variant-ligatures:normal;font-variant-caps:normal;font-variant-numeric:normal;font-variant-east-asian:normal;font-variation-settings:'opsz' 32, 'wght' 300;text-align:start;writing-mode:lr-tb;direction:ltr;text-orientation:upright;text-anchor:start;display:none;fill:#ffffff;fill-opacity:1;stroke-width:1.08385;paint-order:markers stroke fill"
       x="3.3695273"
       y="23.797993"
       id="text34"
       inkscape:label="kyu"><tspan
         sodipodi:role="line"
         id="tspan34"
         style="font-style:normal;font-variant:normal;font-weight:bold;font-stretch:normal;font-size:23.1222px;font-family:'Noto Serif CJK JP';-inkscape-font-specification:'Noto Serif CJK JP, Bold';font-variant-ligatures:normal;font-variant-caps:normal;font-variant-numeric:normal;font-variant-east-asian:normal;fill:#ffffff;fill-opacity:1;stroke-width:1.08385"
         x="3.3695273"
         y="23.797993">新</tspan></text><text
       xml:space="preserve"
       style="font-weight:bold;font-size:25.4px;line-height:0.9;font-family:'Source Han Sans';-inkscape-font-specification:'Source Han Sans, Bold';text-align:start;writing-mode:lr-tb;direction:ltr;text-orientation:upright;text-anchor:start;display:none;fill:#000000;stroke:#000000;stroke-width:4.29601;stroke-linejoin:bevel;paint-order:stroke fill markers"
       x="2.7443504"
       y="24.804417"
       id="text4"
       inkscape:label="Odoriji"><tspan
         sodipodi:role="line"
         id="tspan4"
         style="fill:#ffffff;fill-opacity:1;stroke:none;stroke-width:4.296"
         x="2.7443504"
         y="24.804417">々</tspan></text><text
       xml:space="preserve"
       style="font-style:normal;font-variant:normal;font-weight:normal;font-stretch:normal;font-size:20.9517px;line-height:1.2;font-family:Arial;-inkscape-font-specification:'Arial, @opsz=32,wght=300';font-variant-ligatures:normal;font-variant-caps:normal;font-variant-numeric:normal;font-variant-east-asian:normal;font-variation-settings:'opsz' 32, 'wght' 300;text-align:start;writing-mode:lr-tb;direction:ltr;text-orientation:upright;text-anchor:start;display:none;fill:#ffffff;fill-opacity:1;stroke-width:0.98211;paint-order:markers stroke fill"
       x="4.5241499"
       y="22.961649"
       id="text1"
       inkscape:label="composer"><tspan
         sodipodi:role="line"
         id="tspan1"
         style="font-style:normal;font-variant:normal;font-weight:bold;font-stretch:normal;font-size:20.9517px;font-family:'Noto Serif CJK JP';-inkscape-font-specification:'Noto Serif CJK JP, Bold';font-variant-ligatures:normal;font-variant-caps:normal;font-variant-numeric:normal;font-variant-east-asian:normal;fill:#ffffff;fill-opacity:1;stroke-width:0.98211"
         x="4.5241499"
         y="22.961649">⿰</tspan></text></g><g
     inkscape:label="Dark"
     inkscape:groupmode="layer"
     id="g47"
     transform="translate(-1.9887171,-2.0008707)"
     style="display:inline"><rect
       style="display:inline;fill:#ffffff;fill-opacity:1;stroke-width:1.61;stroke-linejoin:bevel;paint-order:stroke fill markers"
       id="rect1"
       width="26.022566"
       height="25.998259"
       x="1.9887171"
       y="2.0008707"
       ry="6.2886238" /><rect
       style="display:none;fill:#7b2c2c;fill-opacity:1;stroke-width:1.61;stroke-linejoin:bevel;paint-order:stroke fill markers"
       id="rect3"
       width="26.022566"
       height="25.998259"
       x="1.9887171"
       y="2.0008707"
       ry="6.2886238"
       inkscape:label="Red square" /><path
       id="path3"
       style="display:none;fill:#000000;fill-opacity:1;stroke-width:0.372281"
       inkscape:label="Half"
       d="M 15.038567,5.9329304 C 13.605311,5.9293564 13.257597,5.959397 12.625277,6.14222 11.01609,6.607493 9.8861467,7.2587659 8.6575607,8.4294189 6.8800407,10.123115 5.9322451,12.377142 5.9290451,14.916361 c -0.0045,3.520272 1.9027674,6.657748 4.9728229,8.18038 0.935963,0.464204 1.594129,0.67773 2.659269,0.861446 0.466485,0.08046 0.967208,0.101828 1.47743,0.09457 z" /><path
       style="display:none;fill:#000000;fill-opacity:1;stroke-width:0.372281"
       d="m 13.561211,23.957945 c -1.06514,-0.183716 -1.723517,-0.396885 -2.65948,-0.861089 -3.0700556,-1.522632 -4.9774246,-4.660301 -4.9729206,-8.180573 0.0032,-2.539219 0.95146,-4.793137 2.72898,-6.4868329 1.228586,-1.170653 2.3584896,-1.822017 3.9676766,-2.28729 0.63232,-0.182823 0.979978,-0.212993 2.413234,-0.209419 1.534357,0.0039 1.746997,0.02647 2.540946,0.270737 0.934399,0.287472 1.826173,0.704016 2.531768,1.182592 0.651758,0.442061 1.83057,1.605319 2.322795,2.292148 1.714603,2.3924879 2.124662,5.8528419 1.028877,8.6823659 -0.819347,2.115716 -2.738052,4.085774 -4.838973,4.968489 -1.573171,0.660977 -3.493689,0.899528 -5.062903,0.628872 z"
       id="path5"
       inkscape:label="Full" /><g
       id="g10"
       inkscape:label="A"
       style="display:none"><path
         style="fill:#000000;fill-opacity:1;stroke-width:0.372281"
         d="m 7.0027942,24.019148 c -0.02826,-0.07372 1.369333,-4.038362 3.1058158,-8.810332 1.736483,-4.771969 3.157251,-8.7170648 3.157251,-8.7668786 0,-0.049813 0.09186,-0.20736 0.204149,-0.3501022 0.202209,-0.2570755 0.216426,-0.2595176 1.50211,-0.2580234 0.713876,8.191e-4 1.35165,0.035628 1.417267,0.077326 0.171257,0.1088358 0.14436,0.037747 3.23732,8.5542352 3.541126,9.7505 3.413637,9.387141 3.35092,9.550576 -0.07925,0.206512 -2.545302,0.197674 -2.752838,-0.0099 -0.08092,-0.0809 -0.511869,-1.244421 -0.957719,-2.585607 l -0.810629,-2.438519 -3.45716,0.02313 -3.45716,0.02313 -0.845399,2.472614 c -0.464962,1.359938 -0.9082138,2.512377 -0.9849928,2.560974 -0.07679,0.0486 -0.706128,0.08904 -1.398549,0.08987 -0.971969,0.0011 -1.270685,-0.02905 -1.310386,-0.132515 z"
         id="path6" /><path
         style="fill:#ffffff;fill-opacity:1;stroke-width:0.372281"
         d="m 17.599828,16.430359 c 0,-0.02193 -0.576222,-1.693419 -1.280489,-3.714427 -0.704276,-2.021008 -1.280497,-3.6947937 -1.280497,-3.7195227 0,-0.02473 -0.02115,-0.02384 -0.04695,0.002 -0.04651,0.04654 -2.612543,7.3414237 -2.612543,7.4271837 0,0.02456 1.1746,0.04465 2.610225,0.04465 1.435635,0 2.610236,-0.01794 2.610236,-0.03987 z"
         id="path10" /></g><g
       id="g22"
       inkscape:label="Settings"
       style="display:none"><path
         style="fill:#000000;fill-opacity:1;stroke-width:0.372281"
         d="m 13.224754,26.22604 c -0.353598,-0.178922 -0.47597,-0.503307 -0.564473,-1.496317 -0.07185,-0.806155 -0.100326,-0.89442 -0.324998,-1.007327 -0.423488,-0.212824 -1.876907,-0.817829 -1.964686,-0.817829 -0.04601,0 -0.3873817,0.236896 -0.7585974,0.526433 -0.8718524,0.680021 -1.0795804,0.785104 -1.395338,0.705853 C 7.9258648,24.063863 5.9916533,22.212618 5.7764863,21.801342 5.5343367,21.338489 5.6094786,21.111953 6.2771216,20.292044 6.6290051,19.859908 6.9171157,19.43256 6.9173667,19.342383 6.9179257,19.135352 6.3365111,17.603215 6.2331175,17.539314 6.1907924,17.513154 5.7224025,17.43845 5.1922468,17.373298 4.4500464,17.282088 4.1694732,17.204268 3.9724623,17.034979 3.7186331,16.816868 3.7163471,16.802017 3.685181,15.168672 3.65243,13.45224 3.720188,13.040224 4.065576,12.855374 c 0.095817,-0.05127 0.6067922,-0.158219 1.1355009,-0.237645 0.5287087,-0.07943 1.0151167,-0.201993 1.0809064,-0.272372 0.065792,-0.07038 0.2600143,-0.497616 0.4316099,-0.949412 L 7.0255842,10.574497 6.6700569,10.140623 C 6.4689328,9.895178 6.345199,9.6571268 6.3851478,9.592488 6.4271305,9.524555 6.41287,9.504737 6.3499752,9.54361 6.195823,9.638881 5.6373357,8.9163471 5.6373357,8.621645 c 0,-0.3453191 0.183292,-0.5945592 1.2204647,-1.6595857 0.9216792,-0.9464314 1.2941251,-1.1967474 1.6729098,-1.1243384 0.119492,0.022843 0.5466867,0.3040908 0.9493214,0.6249965 0.402633,0.3209054 0.8126244,0.5834646 0.9110884,0.5834646 0.09846,0 0.343479,-0.082573 0.544475,-0.1834958 0.200996,-0.1009222 0.609233,-0.2619236 0.907194,-0.3577803 0.29796,-0.095857 0.592481,-0.2142964 0.654492,-0.2631989 0.06201,-0.048903 0.144601,-0.5339761 0.183535,-1.0779412 0.05931,-0.8285966 0.107527,-1.0317525 0.297272,-1.2524186 l 0.226485,-0.2633905 h 1.729977 c 1.714318,0 1.732194,0.00224 1.974941,0.2462482 0.209492,0.2105913 0.253511,0.3674813 0.304,1.0834919 0.08954,1.2697967 0.07681,1.2422526 0.66226,1.4339044 0.284482,0.093129 0.726309,0.2740075 0.981839,0.4019531 0.255528,0.1279454 0.543637,0.2323162 0.640245,0.2319357 0.09661,-3.723e-4 0.508083,-0.2660173 0.914393,-0.5903037 0.625309,-0.4990751 0.799243,-0.5896135 1.132742,-0.5896247 0.368616,-1.26e-5 0.467535,0.071325 1.535578,1.1074248 0.678927,0.658621 1.168004,1.214446 1.206778,1.3714758 0.08159,0.3304253 -0.03872,0.6542143 -0.401081,1.0793854 -0.155183,0.1820859 -0.424693,0.5154906 -0.598911,0.7408984 l -0.316758,0.409834 0.311089,0.870657 c 0.1711,0.47886 0.350427,0.921251 0.398503,0.98309 0.04808,0.06184 0.538793,0.167727 1.090479,0.235309 0.88051,0.10786 1.036574,0.156382 1.277302,0.39711 l 0.274237,0.274236 v 1.660148 c 0,2.183886 -0.01439,2.206311 -1.53619,2.393609 -0.590066,0.07262 -0.928171,0.162779 -1.033296,0.275528 -0.12936,0.138743 -0.779491,1.585706 -0.779491,1.734874 0,0.02478 0.267563,0.381743 0.594583,0.793264 0.690299,0.868668 0.783679,1.07538 0.672351,1.488347 -0.100314,0.372116 -2.111211,2.366736 -2.479148,2.459081 -0.361537,0.09074 -0.57209,-0.0017 -1.321446,-0.580169 -0.367162,-0.28343 -0.7259,-0.551202 -0.797198,-0.595047 -0.07916,-0.04867 -0.462632,0.06163 -0.984992,0.283359 -1.384383,0.587635 -1.345181,0.560775 -1.372129,0.940155 -0.101338,1.426688 -0.141372,1.605961 -0.421089,1.885679 l -0.278232,0.278233 -1.558941,-0.0015 c -1.048858,-9.67e-4 -1.638539,-0.04175 -1.802212,-0.124566 z"
         id="path15" /><path
         style="fill:#ffffff;fill-opacity:1;stroke-width:0.372281"
         d="m 16.568506,19.272574 c 2.634962,-1.013738 3.749692,-4.127574 2.355227,-6.57898 -0.369977,-0.650404 -1.307745,-1.519539 -1.985459,-1.840148 -1.757598,-0.831478 -3.824221,-0.448784 -5.17545,0.95838 -0.320338,0.333599 -0.677389,0.792675 -0.79345,1.020172 -0.694092,1.360533 -0.657828,3.109801 0.09163,4.419708 0.559084,0.977177 1.813688,1.923675 2.919072,2.202208 0.59955,0.151074 1.974846,0.05473 2.588434,-0.18134 z"
         id="path18" /></g><g
       id="g29"
       inkscape:label="Kata"
       style="display:none"><path
         style="fill:#000000;fill-opacity:1;stroke-width:0.372281"
         d="m 17.229162,14.819666 c -0.820941,-0.557104 -1.363113,-1.003884 -1.414424,-1.165556 -0.03958,-0.124788 0.246597,-0.503295 1.009662,-1.335259 0.959956,-1.046644 2.296144,-2.6182739 2.296205,-2.7008189 9e-6,-0.01781 -2.588787,-0.02025 -5.752883,-0.0054 -5.1572407,0.02413 -5.7691617,0.01065 -5.9099767,-0.130161 -0.121719,-0.121712 -0.157076,-0.367632 -0.157076,-1.092261 0,-1.481912 -0.877588,-1.316289 6.9722837,-1.315861 6.407989,3.48e-4 6.784098,0.01005 7.063859,0.18224 0.470377,0.289508 1.313236,1.087706 1.384003,1.310675 0.04847,0.152731 -0.122406,0.481407 -0.680451,1.308782 -1.052387,1.5603079 -4.088629,5.1763779 -4.346353,5.1763779 -0.06705,0 -0.276243,-0.10472 -0.464849,-0.232711 z"
         id="path23" /><path
         style="fill:#000000;fill-opacity:1;stroke-width:0.372281"
         d="m 9.1373963,22.168948 c -0.463874,-0.471556 -0.751375,-0.844522 -0.752086,-0.975665 -7.46e-4,-0.149095 0.203561,-0.364066 0.686461,-0.722051 1.8205447,-1.34963 2.8895577,-3.114074 3.2922207,-5.433936 0.07846,-0.45219 0.194874,-1.464872 0.258629,-2.250404 0.06371,-0.785532 0.161078,-1.483646 0.216278,-1.551364 0.07047,-0.08644 0.462997,-0.123124 1.317644,-0.123124 1.210476,0 1.217646,0.0013 1.278023,0.2419 0.08565,0.341305 -0.134786,3.207011 -0.314784,4.092069 -0.318005,1.563587 -1.005169,3.24484 -1.812647,4.434926 -0.785206,1.15726 -2.805258,3.047367 -3.259769,3.050074 -0.08749,3.71e-4 -0.4969497,-0.34257 -0.9099697,-0.762425 z"
         id="path29" /></g><g
       id="g35"
       inkscape:label="Hira"
       style="display:none"><path
         style="fill:#000000;fill-opacity:1;stroke-width:0.372281"
         d="m 17.59147,24.509751 c -0.198042,-0.222854 -0.663876,-1.340125 -0.663876,-1.592256 0,-0.148231 0.102298,-0.222482 0.418622,-0.303853 1.314338,-0.338082 2.388384,-0.7835 3.004801,-1.246123 0.179667,-0.134832 0.374607,-0.20968 0.443258,-0.170188 0.06735,0.03877 0.09088,0.0354 0.05217,-0.0076 -0.0388,-0.04292 0.08063,-0.254529 0.265298,-0.470255 1.466335,-1.713076 1.092592,-4.344027 -0.797582,-5.614615 -0.557518,-0.374774 -0.82552,-0.459099 -0.82552,-0.259751 0,0.246807 -1.219012,2.572551 -1.87842,3.583829 -0.814687,1.249417 -1.257043,1.812842 -2.130884,2.714141 l -0.625988,0.645657 0.219565,0.610255 c 0.138459,0.384827 0.185026,0.644593 0.126042,0.703216 -0.05142,0.05113 -0.492447,0.247741 -0.980017,0.436917 -0.98922,0.383806 -1.18485,0.355999 -1.36247,-0.193651 -0.0509,-0.157887 -0.10595,-0.302641 -0.12209,-0.321677 -0.0161,-0.01903 -0.50871,0.15592 -1.09463,0.388785 -1.02711,0.408217 -1.10413,0.423429 -2.1487799,0.424378 -1.304992,0.0011 -1.942562,-0.206899 -2.688302,-0.877377 -2.48758,-2.23654 -0.44771,-7.410859 3.6979119,-9.380092 l 0.91112,-0.432796 7.4e-4,-0.510856 c 3.3e-4,-0.280969 0.029,-0.876534 0.0639,-1.323474 l 0.0633,-0.812619 H 9.4119491 c -2.400422,0 -2.591132,-0.04016 -2.689882,-0.5665018 -0.10083,-0.537481 0.0251,-1.429578 0.22216,-1.573668 0.12704,-0.09288 0.7619,-0.125313 2.452842,-0.125313 h 2.2814499 l 0.0686,-1.157367 c 0.0799,-1.347092 0.12278,-1.566295 0.32158,-1.642582 0.0805,-0.03092 0.55056,-0.06055 1.04438,-0.06584 1.11203,-0.01191 1.19106,0.05706 1.1109,0.969682 -0.0298,0.338592 -0.08,0.905509 -0.11159,1.259817 -0.0567,0.635098 -0.0543,0.643527 0.17237,0.596793 0.12645,-0.02608 0.62881,-0.07464 1.116383,-0.107932 1.002588,-0.06845 1.970408,-0.20757 4.555942,-0.654892 2.240459,-0.387624 2.191254,-0.408144 2.191254,0.913821 0,1.16712 0.142814,1.090583 -2.905719,1.557228 -1.411751,0.2160988 -4.174098,0.4973878 -4.88972,0.4979208 l -0.45725,3.41e-4 -0.0709,0.990397 c -0.039,0.544719 -0.0548,1.006469 -0.0352,1.026112 0.0196,0.01964 0.2573,-0.0099 0.52814,-0.06564 0.27083,-0.05574 1.135112,-0.107494 1.920648,-0.114993 0.785535,-0.0075 1.458556,-0.05584 1.495608,-0.107425 0.037,-0.05159 0.09678,-0.307602 0.132721,-0.56893 0.07513,-0.546392 0.26359,-0.784738 0.570409,-0.721458 0.117969,0.02433 0.521603,0.09353 0.89695,0.153782 0.983871,0.157925 1.077849,0.225358 1.007937,0.723178 -0.03159,0.224795 -0.08689,0.552773 -0.122845,0.72884 -0.04857,0.237665 -0.03055,0.320142 0.07001,0.3202 0.07447,4.3e-5 0.401386,0.126834 0.726437,0.281758 2.323936,1.107636 3.550183,3.392543 3.206536,5.974897 -0.140139,1.053063 -0.392045,1.743785 -0.924946,2.536204 -0.751518,1.117501 -2.230906,2.083561 -4.159669,2.71632 -1.274364,0.418071 -1.370278,0.432665 -1.545762,0.235193 z"
         id="path30" /><path
         style="fill:#ffffff;fill-opacity:1;stroke-width:0.372281"
         d="m 14.957609,18.312165 c 0.352128,-0.436733 0.833738,-1.132283 1.070227,-1.545668 0.464544,-0.811998 1.196123,-2.438025 1.139462,-2.532561 -0.05085,-0.08479 -1.766608,-0.0046 -2.455949,0.114741 -1.03784,0.179727 -0.96091,0.07975 -0.89215,1.159315 0.16002,2.512396 0.2835,3.665728 0.38892,3.63258 0.0601,-0.01888 0.39736,-0.391674 0.74949,-0.828407 z"
         id="path31" /><path
         style="fill:#ffffff;fill-opacity:1;stroke-width:0.372281"
         d="m 10.212319,21.625695 c 0.23425,-0.05403 0.75842,-0.256018 1.16482,-0.448866 0.57808,-0.274322 0.72534,-0.385962 0.67661,-0.512951 -0.10659,-0.277769 -0.33163,-2.068679 -0.4572,-3.638479 -0.0661,-0.826164 -0.15121,-1.502115 -0.18915,-1.502115 -0.038,0 -0.39604,0.21622 -0.79575,0.480489 -1.6390649,1.08365 -2.6475019,2.614797 -2.6475019,4.019813 0,0.892513 0.31358,1.398506 0.984997,1.589378 0.453335,0.12888 0.746725,0.131835 1.2631749,0.01273 z"
         id="path35" /></g><path
       style="display:none;fill:#000000;fill-opacity:1;stroke-width:0.282779"
       d="m 14.176898,24.93817 c -1.611826,-0.107804 -3.500704,-0.783837 -4.8689924,-1.74262 -0.323365,-0.226587 -0.600071,-0.411978 -0.614903,-0.411978 -0.01485,0 0.0051,0.199437 0.04441,0.443191 0.09635,0.59828 0.01813,0.952961 -0.274815,1.245892 -0.581168,0.581166 -1.511572,0.43476 -1.841056,-0.289705 -0.157939,-0.34727 -0.900064,-5.057704 -0.899459,-5.709067 5.66e-4,-0.469888 0.21805,-0.830872 0.619558,-1.027734 0.273513,-0.134107 0.321315,-0.133561 1.906877,0.02178 3.5022554,0.343142 3.6944664,0.367387 3.8808724,0.489525 0.668764,0.43819 0.632258,1.547969 -0.06542,1.988834 -0.209754,0.132545 -0.330027,0.149302 -0.860363,0.119868 -0.339087,-0.01881 -0.598885,-0.0056 -0.577329,0.0292 0.103281,0.167111 1.336522,0.909292 1.857673,1.117969 0.862713,0.345448 1.533996,0.471157 2.515954,0.471157 0.978259,0 1.653262,-0.125718 2.503981,-0.466362 1.79299,-0.717949 3.286394,-2.321671 3.889532,-4.176854 0.07023,-0.216038 0.151374,-0.392797 0.180307,-0.392797 0.09415,0 3.021391,0.816536 3.057813,0.852958 0.06864,0.06863 -0.379902,1.288209 -0.731941,1.990136 -0.953899,1.90197 -2.508706,3.456201 -4.419257,4.417623 -1.652746,0.831687 -3.344779,1.159977 -5.303437,1.028978 z M 6.8538986,12.943991 c -0.797371,-0.222536 -1.465796,-0.42064 -1.485387,-0.440231 -0.06885,-0.06885 0.379067,-1.287279 0.731696,-1.990383 2.092072,-4.1713649 6.8388804,-6.3250439 11.3940424,-5.1696069 1.039439,0.26366 2.319809,0.850511 3.197645,1.465626 0.323364,0.226588 0.600071,0.411977 0.614903,0.411977 0.01484,0 -0.0051,-0.199435 -0.04441,-0.44319 -0.03925,-0.243755 -0.04942,-0.560187 -0.02259,-0.703184 0.183524,-0.978266 1.588795,-1.2206 2.091064,-0.360596 0.16174,0.276935 0.940855,5.0444499 0.944455,5.7792509 0.0025,0.509592 -0.201237,0.861218 -0.617149,1.065144 -0.273514,0.134106 -0.321316,0.133561 -1.906878,-0.02179 -3.726051,-0.365068 -3.669838,-0.357475 -3.909457,-0.528097 -0.302366,-0.215304 -0.447742,-0.518692 -0.447742,-0.934398 0,-0.39067 0.120138,-0.664164 0.410819,-0.935229 0.184423,-0.1719779 0.256789,-0.1869719 0.898342,-0.1861409 0.383767,5.09e-4 0.682759,-0.02337 0.664424,-0.05304 -0.09841,-0.159223 -1.345608,-0.905796 -1.851815,-1.108491 -0.862714,-0.345447 -1.533996,-0.471157 -2.515954,-0.471157 -0.508403,0 -1.079074,0.04834 -1.39489,0.11814 -2.317889,0.512333 -4.2560564,2.2568109 -4.9651554,4.4689629 -0.07256,0.226326 -0.177871,0.418148 -0.234047,0.426272 -0.05617,0.0081 -0.754538,-0.167304 -1.55191,-0.389842 z"
       id="path36"
       inkscape:label="Reload" /><g
       id="g41"
       inkscape:label="Toolbar"
       style="display:none"><path
         style="fill:#000000;fill-opacity:1;stroke-width:0.255026"
         d="M 22.769233,8.6763206 C 23.200422,8.4908282 23.718956,7.920892 23.869844,7.4666048 24.113243,6.7338016 23.888486,5.8339082 23.337782,5.336389 22.925602,4.9640084 22.532434,4.816624 21.943664,4.8137856 c -0.419417,-0.00204 -0.572027,0.029642 -0.888014,0.1842381 -1.234905,0.6041836 -1.559262,2.1548308 -0.664018,3.1744587 0.591506,0.6736882 1.523617,0.8712132 2.377601,0.5038382 z"
         id="path37" /><path
         style="fill:#000000;fill-opacity:1;stroke-width:0.255026"
         d="M 15.62968,8.7891976 C 16.370262,8.5963017 16.919701,8.071097 17.127037,7.3578848 17.56358,5.8562357 16.057766,4.4113986 14.546181,4.8815357 c -0.55098,0.1713695 -1.178623,0.7882253 -1.333847,1.3109231 -0.352226,1.1860729 0.307979,2.3465565 1.493924,2.6259628 0.372873,0.08785 0.487943,0.0842 0.923422,-0.02922 z"
         id="path38" /><path
         style="fill:#000000;fill-opacity:1;stroke-width:0.255026"
         d="M 9.2385917,8.6507086 C 10.475881,8.0496952 10.783804,6.5014631 9.8658143,5.4970347 9.4227941,5.0123 8.9830357,4.8146169 8.347739,4.8146169 c -0.8281445,0 -1.5207404,0.4542592 -1.8774727,1.2313961 -0.2058388,0.4484165 -0.1982798,1.2111444 0.016169,1.6312659 0.5415774,1.0610087 1.7164113,1.4765447 2.7521594,0.9734297 z"
         id="path39" /><path
         style="fill:#000000;fill-opacity:1;stroke-width:0.255026"
         d="m 10.973765,25.045002 c 0.16782,-0.0644 0.126365,-0.373993 -0.09731,-0.726685 -0.725354,-1.143762 -0.9609949,-1.930579 -0.9623719,-3.213412 -10e-4,-1.004132 0.1008649,-1.460796 0.4488369,-2.010621 0.326448,-0.515817 0.530545,-0.440942 0.61377,0.225167 0.08122,0.650032 0.370231,1.599824 0.676762,2.224045 0.553393,1.12693 1.264289,1.897984 2.417329,2.621884 0.856108,0.53748 1.610254,0.80495 2.509571,0.890055 0.412822,0.03907 0.494125,0.0276 0.639657,-0.09025 0.269846,-0.218506 0.136026,-0.465516 -0.409787,-0.756409 -1.2723,-0.678075 -2.384731,-1.930831 -2.902431,-3.268555 -0.363419,-0.939071 -0.483115,-1.639511 -0.444609,-2.601814 0.01857,-0.463895 0.08293,-1.025629 0.143047,-1.248297 0.498929,-1.848076 1.971204,-3.141048 3.571036,-3.136128 0.559148,0.0018 0.981483,0.160003 1.161995,0.435499 0.160511,0.244973 0.04569,0.346669 -0.487491,0.431758 -0.485214,0.07744 -0.68864,0.186116 -0.74204,0.396425 -0.09834,0.38732 0.188262,0.83352 0.72707,1.131944 0.326912,0.181065 0.421764,0.200651 0.969638,0.200215 0.49341,-5.1e-4 0.657889,-0.02782 0.877183,-0.146252 0.345027,-0.186342 0.790294,-0.649104 0.980471,-1.018998 0.18748,-0.364646 0.203572,-1.08928 0.03705,-1.668239 -0.09807,-0.340957 -0.183394,-0.469446 -0.540638,-0.814126 -1.14504,-1.104761 -3.598166,-1.842835 -5.47735,-1.647975 -2.960112,0.306948 -5.4076131,2.119645 -7.9193853,5.865348 -0.4102035,0.611719 -2.0936247,3.323281 -2.6541199,4.275103 -0.4509872,0.765867 -0.345325,1.332514 0.2476375,1.32803 0.4910313,-0.0037 1.69922,-0.710991 2.5871654,-1.514535 0.5948625,-0.538319 0.640484,-0.520513 0.8159416,0.318445 0.098618,0.471552 0.2411292,0.886767 0.4478759,1.304902 0.6511006,1.316822 2.0935298,2.47133 2.7654918,2.213474 z"
         id="path40" /><path
         style="fill:#000000;fill-opacity:1;stroke-width:0.255026"
         d="m 24.807178,25.150758 c 1.21549,-0.139244 1.478743,-0.293381 1.320415,-0.773115 -0.04377,-0.132615 -0.145186,-0.281323 -0.225374,-0.330462 -0.08019,-0.04914 -0.52535,-0.125182 -0.989244,-0.16899 -3.220378,-0.304115 -5.441495,-1.148796 -7.006791,-2.664645 -0.598127,-0.579232 -0.879193,-0.951939 -1.185933,-1.572602 -0.340354,-0.688676 -0.44414,-1.169563 -0.44414,-2.05788 0,-1.002766 -0.104945,-1.130944 -0.583138,-0.712249 -0.5714,0.500305 -0.98041,1.388441 -1.073232,2.330452 -0.114328,1.160249 0.680747,2.542146 2.061042,3.582229 1.691279,1.274417 3.956311,2.125016 6.376616,2.394645 0.444946,0.04957 1.178249,0.03809 1.749779,-0.02738 z"
         id="path41" /></g><text
       xml:space="preserve"
       style="font-weight:bold;font-size:10.2131px;line-height:0.9;font-family:Arial;-inkscape-font-specification:'Arial, Bold';text-align:start;writing-mode:lr-tb;direction:ltr;text-orientation:upright;text-anchor:start;display:none;fill:#000000;fill-opacity:1;stroke-width:1.3644;stroke-linejoin:bevel;paint-order:stroke fill markers"
       x="4.1727691"
       y="22.641491"
       id="text41"
       inkscape:label="Japanese"><tspan
         sodipodi:role="line"
         id="tspan41"
         style="font-style:normal;font-variant:normal;font-weight:bold;font-stretch:normal;font-size:21.5253px;font-family:'Source Han Sans';-inkscape-font-specification:'Source Han Sans, Bold';font-variant-ligatures:normal;font-variant-caps:normal;font-variant-numeric:normal;font-variant-east-asian:normal;fill:#000000;fill-opacity:1;stroke-width:1.3644"
         x="0"
         y="0">日</tspan></text><g
       id="g42"
       inkscape:label="Blocked"
       style="display:none"><circle
         style="fill:#000000;fill-opacity:1;stroke-width:1.47257;stroke-linejoin:bevel;paint-order:stroke fill markers"
         id="circle41"
         cx="15"
         cy="15"
         r="10.023539" /><circle
         style="fill:#ffffff;fill-opacity:1;stroke-width:1.00054;stroke-linejoin:bevel;paint-order:stroke fill markers"
         id="circle42"
         cx="21.213203"
         cy="-5.8578642e-08"
         r="6.8105083"
         transform="rotate(45)" /><path
         style="fill:#000000;fill-opacity:1;stroke:#000000;stroke-width:4.296;stroke-linejoin:bevel;stroke-dasharray:none;stroke-opacity:1;paint-order:stroke fill markers"
         d="M 21.176143,8.8238568 8.8238566,21.176144"
         id="path42" /></g><g
       id="g46"
       inkscape:label="Sync"
       style="display:none"><rect
         style="fill:#000000;fill-opacity:1;stroke:none;stroke-width:3.7415;stroke-linejoin:bevel;stroke-dasharray:none;stroke-opacity:1;paint-order:stroke fill markers"
         id="rect42"
         width="12.452981"
         height="5.7112575"
         x="8.5137167"
         y="17.263906"
         ry="0" /><circle
         style="fill:#000000;fill-opacity:1;stroke:none;stroke-width:4.10366;stroke-linejoin:bevel;stroke-dasharray:none;stroke-opacity:1;paint-order:stroke fill markers"
         id="circle43"
         cx="8.9261293"
         cy="17.919298"
         r="5.0558667" /><circle
         style="fill:#000000;fill-opacity:1;stroke:none;stroke-width:4.10366;stroke-linejoin:bevel;stroke-dasharray:none;stroke-opacity:1;paint-order:stroke fill markers"
         id="circle44"
         cx="20.966698"
         cy="17.919298"
         r="5.0558667" /><circle
         style="fill:#000000;fill-opacity:1;stroke:none;stroke-width:4.10366;stroke-linejoin:bevel;stroke-dasharray:none;stroke-opacity:1;paint-order:stroke fill markers"
         id="circle45"
         cx="12.97105"
         cy="13.561481"
         r="5.0558672" /><circle
         style="fill:#000000;fill-opacity:1;stroke:none;stroke-width:3.73485;stroke-linejoin:bevel;stroke-dasharray:none;stroke-opacity:1;paint-order:stroke fill markers"
         id="circle46"
         cx="18.490425"
         cy="11.24819"
         r="4.60149" /></g><text
       xml:space="preserve"
       style="font-style:normal;font-variant:normal;font-weight:normal;font-stretch:normal;font-size:23.1222px;line-height:1.2;font-family:Arial;-inkscape-font-specification:'Arial, @opsz=32,wght=300';font-variant-ligatures:normal;font-variant-caps:normal;font-variant-numeric:normal;font-variant-east-asian:normal;font-variation-settings:'opsz' 32, 'wght' 300;text-align:start;writing-mode:lr-tb;direction:ltr;text-orientation:upright;text-anchor:start;display:none;fill:#ffffff;fill-opacity:1;stroke-width:1.08385;paint-order:markers stroke fill"
       x="3.4735863"
       y="23.774883"
       id="text46"
       inkscape:label="kyu"><tspan
         sodipodi:role="line"
         id="tspan46"
         style="font-style:normal;font-variant:normal;font-weight:bold;font-stretch:normal;font-size:23.1222px;font-family:'Noto Serif CJK JP';-inkscape-font-specification:'Noto Serif CJK JP, Bold';font-variant-ligatures:normal;font-variant-caps:normal;font-variant-numeric:normal;font-variant-east-asian:normal;fill:#ffffff;fill-opacity:1;stroke-width:1.08385"
         x="0"
         y="0">舊</tspan></text><text
       xml:space="preserve"
       style="font-style:normal;font-variant:normal;font-weight:normal;font-stretch:normal;font-size:23.1222px;line-height:1.2;font-family:Arial;-inkscape-font-specification:'Arial, @opsz=32,wght=300';font-variant-ligatures:normal;font-variant-caps:normal;font-variant-numeric:normal;font-variant-east-asian:normal;font-variation-settings:'opsz' 32, 'wght' 300;text-align:start;writing-mode:lr-tb;direction:ltr;text-orientation:upright;text-anchor:start;display:none;fill:#000000;fill-opacity:1;stroke-width:1.08385;paint-order:markers stroke fill"
       x="3.3695273"
       y="23.797993"
       id="text47"
       inkscape:label="kyu"><tspan
         sodipodi:role="line"
         id="tspan47"
         style="font-style:normal;font-variant:normal;font-weight:bold;font-stretch:normal;font-size:23.1222px;font-family:'Noto Serif CJK JP';-inkscape-font-specification:'Noto Serif CJK JP, Bold';font-variant-ligatures:normal;font-variant-caps:normal;font-variant-numeric:normal;font-variant-east-asian:normal;fill:#000000;fill-opacity:1;stroke-width:1.08385"
         x="0"
         y="0">新</tspan></text><text
       xml:space="preserve"
       style="font-weight:bold;font-size:25.4px;line-height:0.9;font-family:'Source Han Sans';-inkscape-font-specification:'Source Han Sans, Bold';text-align:start;writing-mode:lr-tb;direction:ltr;text-orientation:upright;text-anchor:start;display:none;fill:#000000;fill-opacity:1;stroke:#000000;stroke-width:4.29601;stroke-linejoin:bevel;paint-order:stroke fill markers"
       x="2.7443504"
       y="24.804417"
       id="text5"
       inkscape:label="Odoriji"><tspan
         sodipodi:role="line"
         id="tspan5"
         style="fill:#000000;fill-opacity:1;stroke:none;stroke-width:4.296"
         x="2.7443504"
         y="24.804417">々</tspan></text><text
       xml:space="preserve"
       style="font-style:normal;font-variant:normal;font-weight:normal;font-stretch:normal;font-size:20.9517px;line-height:1.2;font-family:Arial;-inkscape-font-specification:'Arial, @opsz=32,wght=300';font-variant-ligatures:normal;font-variant-caps:normal;font-variant-numeric:normal;font-variant-east-asian:normal;font-variation-settings:'opsz' 32, 'wght' 300;text-align:start;writing-mode:lr-tb;direction:ltr;text-orientation:upright;text-anchor:start;display:inline;fill:#000000;fill-opacity:1;stroke-width:0.98211;paint-order:markers stroke fill"
       x="4.5241499"
       y="22.961649"
       id="text2"
       inkscape:label="composer"><tspan
         sodipodi:role="line"
         id="tspan2"
         style="font-style:normal;font-variant:normal;font-weight:bold;font-stretch:normal;font-size:20.9517px;font-family:'Noto Serif CJK JP';-inkscape-font-specification:'Noto Serif CJK JP, Bold';font-variant-ligatures:normal;font-variant-caps:normal;font-variant-numeric:normal;font-variant-east-asian:normal;fill:#000000;fill-opacity:1;stroke-width:0.98211"
         x="4.5241499"
         y="22.961649">⿰</tspan></text></g></svg>
