<?xml version="1.0" encoding="UTF-8" standalone="no"?>
<!-- Created with Inkscape (http://www.inkscape.org/) -->

<svg
   version="1.1"
   id="svg1"
   width="1441.108"
   height="320.95001"
   viewBox="0 0 1441.108 320.95001"
   sodipodi:docname="logo_long_light.svg"
   inkscape:version="1.4.3 (0d15f75042, 2025-12-25)"
   inkscape:export-filename="../256/mm_long_light.png"
   inkscape:export-xdpi="96"
   inkscape:export-ydpi="96"
   xml:space="preserve"
   xmlns:inkscape="http://www.inkscape.org/namespaces/inkscape"
   xmlns:sodipodi="http://sodipodi.sourceforge.net/DTD/sodipodi-0.dtd"
   xmlns="http://www.w3.org/2000/svg"
   xmlns:svg="http://www.w3.org/2000/svg"><defs
     id="defs1" /><sodipodi:namedview
     id="namedview1"
     pagecolor="#ffffff"
     bordercolor="#000000"
     borderopacity="0.25"
     inkscape:showpageshadow="2"
     inkscape:pageopacity="0.0"
     inkscape:pagecheckerboard="0"
     inkscape:deskcolor="#d1d1d1"
     showguides="true"
     inkscape:zoom="0.37811875"
     inkscape:cx="868.77469"
     inkscape:cy="-156.03564"
     inkscape:window-width="1920"
     inkscape:window-height="1009"
     inkscape:window-x="0"
     inkscape:window-y="0"
     inkscape:window-maximized="1"
     inkscape:current-layer="g6"><sodipodi:guide
       position="805.22497,731.83084"
       orientation="0,-1"
       id="guide2"
       inkscape:locked="false" /></sodipodi:namedview><g
     inkscape:groupmode="layer"
     inkscape:label="Light"
     id="g6"
     transform="translate(-97.859528,-97.859528)"
     style="display:inline"><path
       style="font-weight:bold;font-size:212.137px;line-height:0.9;font-family:Calibri;-inkscape-font-specification:'Calibri, Bold';text-orientation:upright;fill:#203758;stroke-width:2.20976;paint-order:markers stroke fill"
       d="m 619.60561,345.9492 q 0,1.03583 -0.6215,1.86449 -0.62149,0.72508 -2.07165,1.24299 -1.45016,0.51791 -3.93614,0.72508 -2.48598,0.31074 -6.31853,0.31074 -3.93613,0 -6.42212,-0.31074 -2.48598,-0.20717 -4.03971,-0.72508 -1.45016,-0.51791 -2.07165,-1.24299 -0.51792,-0.82866 -0.51792,-1.86449 v -54.79515 q 0,-4.66121 -0.93224,-8.49376 -0.82866,-3.83256 -2.69314,-6.5257 -1.76091,-2.79673 -4.55764,-4.24689 -2.69314,-1.55373 -6.52569,-1.55373 -4.66122,0 -9.42601,3.62538 -4.7648,3.62539 -10.35825,10.56542 v 61.42443 q 0,1.03583 -0.6215,1.86449 -0.62149,0.72508 -2.17523,1.24299 -1.45016,0.51791 -3.93614,0.72508 -2.48598,0.31074 -6.21495,0.31074 -3.83255,0 -6.31853,-0.31074 -2.48598,-0.20717 -4.03972,-0.72508 -1.45016,-0.51791 -2.07165,-1.24299 -0.6215,-0.82866 -0.6215,-1.86449 v -54.79515 q 0,-4.66121 -0.93224,-8.49376 -0.82866,-3.83256 -2.58956,-6.5257 -1.7609,-2.79673 -4.55763,-4.24689 -2.79673,-1.55373 -6.5257,-1.55373 -4.7648,0 -9.52959,3.62538 -4.7648,3.62539 -10.25467,10.56542 v 61.42443 q 0,1.03583 -0.6215,1.86449 -0.62149,0.72508 -2.17523,1.24299 -1.45015,0.51791 -3.93613,0.72508 -2.48599,0.31074 -6.31854,0.31074 -3.83255,0 -6.31853,-0.31074 -2.48598,-0.20717 -4.03972,-0.72508 -1.45016,-0.51791 -2.07165,-1.24299 -0.6215,-0.82866 -0.6215,-1.86449 v -92.3956 q 0,-1.03583 0.51792,-1.7609 0.51791,-0.82866 1.86448,-1.34658 1.34658,-0.51791 3.41823,-0.72507 2.17523,-0.31075 5.38629,-0.31075 3.31464,0 5.48987,0.31075 2.17523,0.20716 3.31464,0.72507 1.24299,0.51792 1.7609,1.34658 0.51792,0.72507 0.51792,1.7609 v 10.669 q 7.6651,-8.2866 15.22663,-12.4299 7.6651,-4.14331 15.9517,-4.14331 5.69704,0 10.25467,1.24299 4.55763,1.13941 8.07944,3.41823 3.62539,2.17523 6.21495,5.28271 2.58956,3.10747 4.35047,6.94002 4.1433,-4.45404 8.07943,-7.6651 4.03972,-3.21106 7.87227,-5.17913 3.93614,-2.07165 7.76869,-3.00389 3.93614,-1.03583 7.97586,-1.03583 9.21884,0 15.53737,3.10748 6.31854,3.10748 10.15109,8.49377 3.93613,5.2827 5.59346,12.4299 1.65732,7.14719 1.65732,15.12305 z m 104.30758,0.31075 q 0,1.45016 -1.03582,2.27882 -1.03583,0.82866 -3.31464,1.1394 -2.17524,0.41433 -6.5257,0.41433 -4.66121,0 -6.83645,-0.41433 -2.07165,-0.31074 -3.00389,-1.1394 -0.82866,-0.82866 -0.82866,-2.27882 v -7.35436 q -5.69704,6.11137 -13.0514,9.52959 -7.25077,3.41823 -16.15887,3.41823 -7.35436,0 -13.56931,-1.96807 -6.11137,-1.86449 -10.669,-5.59346 -4.45405,-3.83255 -6.94003,-9.42601 -2.48598,-5.59345 -2.48598,-13.05139 0,-8.07944 3.10748,-13.98364 3.21106,-6.00779 9.42601,-9.84034 6.31853,-3.93614 15.64096,-5.80062 9.32242,-1.86449 21.64874,-1.86449 h 9.01168 v -5.59345 q 0,-4.35047 -0.93224,-7.56153 -0.82866,-3.31464 -2.90031,-5.48987 -1.96807,-2.17523 -5.38629,-3.21106 -3.31464,-1.03582 -8.2866,-1.03582 -6.5257,0 -11.70483,1.45015 -5.07554,1.45016 -9.01168,3.21106 -3.93613,1.7609 -6.62928,3.21106 -2.58956,1.45015 -4.24688,1.45015 -1.13941,0 -2.07165,-0.72508 -0.82866,-0.72507 -1.45016,-2.07165 -0.51791,-1.34657 -0.82866,-3.31464 -0.31074,-1.96806 -0.31074,-4.35046 0,-3.21106 0.51791,-5.07555 0.51791,-1.86448 1.96807,-3.31464 1.45015,-1.55373 5.07554,-3.31464 3.62539,-1.86448 8.49377,-3.41822 4.86837,-1.55374 10.56541,-2.48598 5.80062,-1.03583 11.91199,-1.03583 10.87617,0 18.54127,2.17524 7.76869,2.07165 12.74065,6.5257 4.97196,4.35046 7.25078,11.29049 2.27881,6.94003 2.27881,16.46962 z m -25.58488,-39.56852 h -9.94392 q -6.31853,0 -10.77258,0.93224 -4.45405,0.93224 -7.25078,2.79673 -2.79673,1.86448 -4.1433,4.55763 -1.24299,2.58956 -1.24299,6.00779 0,5.80062 3.62539,9.11526 3.72897,3.31464 10.25467,3.31464 5.48987,0 10.0475,-2.79673 4.66122,-2.79673 9.42601,-8.18302 z M 809.2652,262.15095 q 0,3.72897 -0.20716,6.11137 -0.20717,2.38239 -0.6215,3.72897 -0.41433,1.34657 -1.13941,1.86448 -0.62149,0.51791 -1.65732,0.51791 -0.82866,0 -1.86448,-0.31074 -1.03583,-0.41433 -2.3824,-0.82866 -1.24299,-0.41433 -2.79673,-0.72508 -1.55374,-0.41433 -3.41822,-0.41433 -2.17523,0 -4.35047,0.93224 -2.17523,0.82866 -4.55763,2.69315 -2.27881,1.86448 -4.86838,4.97196 -2.48598,3.10747 -5.38629,7.6651 v 57.59188 q 0,1.03583 -0.62149,1.86449 -0.6215,0.72508 -2.17523,1.24299 -1.45016,0.51791 -3.93614,0.72508 -2.48598,0.31074 -6.31853,0.31074 -3.83256,0 -6.31854,-0.31074 -2.48598,-0.20717 -4.03971,-0.72508 -1.45016,-0.51791 -2.07165,-1.24299 -0.6215,-0.82866 -0.6215,-1.86449 v -92.3956 q 0,-1.03583 0.51791,-1.7609 0.51792,-0.82866 1.86449,-1.34658 1.34657,-0.51791 3.41822,-0.72507 2.17523,-0.31075 5.38629,-0.31075 3.31464,0 5.48988,0.31075 2.17523,0.20716 3.31464,0.72507 1.24299,0.51792 1.7609,1.34658 0.51791,0.72507 0.51791,1.7609 v 11.49766 q 3.62539,-5.17913 6.83645,-8.49377 3.21106,-3.41822 6.11137,-5.38629 2.90031,-1.96807 5.80062,-2.69315 2.90031,-0.82866 5.80062,-0.82866 1.34657,0 2.90031,0.20717 1.55374,0.10358 3.21106,0.51791 1.65732,0.31075 2.90031,0.82866 1.24299,0.41433 1.7609,0.93225 0.62149,0.51791 0.82866,1.1394 0.31075,0.6215 0.51791,1.76091 0.20717,1.03582 0.31075,3.21105 0.10358,2.17524 0.10358,5.90421 z m 42.15806,83.79825 q 0,1.03583 -0.62149,1.86449 -0.6215,0.72508 -2.17523,1.24299 -1.45016,0.51791 -3.93614,0.72508 -2.48598,0.31074 -6.31853,0.31074 -3.83256,0 -6.31854,-0.31074 -2.48598,-0.20717 -4.03971,-0.72508 -1.45016,-0.51791 -2.07165,-1.24299 -0.6215,-0.82866 -0.6215,-1.86449 v -92.18844 q 0,-1.03582 0.6215,-1.7609 0.62149,-0.82866 2.07165,-1.34657 1.55373,-0.6215 4.03971,-0.93224 2.48598,-0.31075 6.31854,-0.31075 3.83255,0 6.31853,0.31075 2.48598,0.31074 3.93614,0.93224 1.55373,0.51791 2.17523,1.34657 0.62149,0.72508 0.62149,1.7609 z m 1.96807,-123.67752 q 0,7.87227 -3.21106,10.87616 -3.21105,3.0039 -11.91198,3.0039 -8.80452,0 -11.91199,-2.90032 -3.0039,-2.90031 -3.0039,-10.46183 0,-7.87227 3.10748,-10.87616 3.21106,-3.10748 12.01557,-3.10748 8.70093,0 11.80841,3.00389 3.10747,2.90031 3.10747,10.46184 z M 965.67479,345.9492 q 0,1.03583 -0.62149,1.86449 -0.6215,0.72508 -2.07165,1.24299 -1.45016,0.51791 -4.03972,0.72508 -2.48598,0.31074 -6.21495,0.31074 -3.83255,0 -6.42212,-0.31074 -2.48598,-0.20717 -3.93613,-0.72508 -1.45016,-0.51791 -2.07165,-1.24299 -0.6215,-0.82866 -0.6215,-1.86449 v -52.7235 q 0,-6.73286 -1.03582,-10.56541 -0.93224,-3.83256 -2.79673,-6.5257 -1.86449,-2.79673 -4.86838,-4.24689 -2.90031,-1.55373 -6.83644,-1.55373 -4.97197,0 -10.04751,3.62538 -5.07554,3.62539 -10.56542,10.56542 v 61.42443 q 0,1.03583 -0.62149,1.86449 -0.6215,0.72508 -2.17523,1.24299 -1.45016,0.51791 -3.93614,0.72508 -2.48598,0.31074 -6.31853,0.31074 -3.83256,0 -6.31854,-0.31074 -2.48598,-0.20717 -4.03971,-0.72508 -1.45016,-0.51791 -2.07165,-1.24299 -0.6215,-0.82866 -0.6215,-1.86449 v -92.3956 q 0,-1.03583 0.51791,-1.7609 0.51792,-0.82866 1.86449,-1.34658 1.34657,-0.51791 3.41822,-0.72507 2.17523,-0.31075 5.38629,-0.31075 3.31464,0 5.48988,0.31075 2.17523,0.20716 3.31464,0.72507 1.24299,0.51792 1.7609,1.34658 0.51791,0.72507 0.51791,1.7609 v 10.669 q 7.66511,-8.2866 15.53738,-12.4299 7.97585,-4.14331 16.5732,-4.14331 9.42601,0 15.84813,3.10748 6.5257,3.10748 10.46183,8.49377 4.03972,5.2827 5.80062,12.4299 1.7609,7.14719 1.7609,17.1947 z m 104.30761,0.31075 q 0,1.45016 -1.0359,2.27882 -1.0358,0.82866 -3.3146,1.1394 -2.1752,0.41433 -6.5257,0.41433 -4.6612,0 -6.8364,-0.41433 -2.0717,-0.31074 -3.0039,-1.1394 -0.8287,-0.82866 -0.8287,-2.27882 v -7.35436 q -5.697,6.11137 -13.0514,9.52959 -7.2508,3.41823 -16.1589,3.41823 -7.3543,0 -13.5693,-1.96807 -6.11135,-1.86449 -10.66898,-5.59346 -4.45405,-3.83255 -6.94003,-9.42601 -2.48598,-5.59345 -2.48598,-13.05139 0,-8.07944 3.10748,-13.98364 3.21105,-6.00779 9.42601,-9.84034 6.3185,-3.93614 15.641,-5.80062 9.3224,-1.86449 21.6487,-1.86449 h 9.0117 v -5.59345 q 0,-4.35047 -0.9323,-7.56153 -0.8286,-3.31464 -2.9003,-5.48987 -1.968,-2.17523 -5.3863,-3.21106 -3.3146,-1.03582 -8.2866,-1.03582 -6.5257,0 -11.7048,1.45015 -5.0755,1.45016 -9.0117,3.21106 -3.9361,1.7609 -6.62925,3.21106 -2.58956,1.45015 -4.24688,1.45015 -1.13941,0 -2.07165,-0.72508 -0.82866,-0.72507 -1.45016,-2.07165 -0.51791,-1.34657 -0.82866,-3.31464 -0.31075,-1.96806 -0.31075,-4.35046 0,-3.21106 0.51792,-5.07555 0.51791,-1.86448 1.96806,-3.31464 1.45016,-1.55373 5.07555,-3.31464 3.62542,-1.86448 8.49372,-3.41822 4.8684,-1.55374 10.5655,-2.48598 5.8006,-1.03583 11.9119,-1.03583 10.8762,0 18.5413,2.17524 7.7687,2.07165 12.7407,6.5257 4.9719,4.35046 7.2507,11.29049 2.2789,6.94003 2.2789,16.46962 z m -25.5849,-39.56852 h -9.9439 q -6.3186,0 -10.7726,0.93224 -4.4541,0.93224 -7.2508,2.79673 -2.7967,1.86448 -4.1433,4.55763 -1.243,2.58956 -1.243,6.00779 0,5.80062 3.6254,9.11526 3.729,3.31464 10.2547,3.31464 5.4898,0 10.0475,-2.79673 4.6612,-2.79673 9.426,-8.18302 z m 209.3402,39.05061 q 0,1.03582 -0.6214,1.86448 -0.518,0.82866 -2.0717,1.34658 -1.4502,0.51791 -3.9361,0.82866 -2.486,0.31074 -6.3186,0.31074 -3.7289,0 -6.2149,-0.31074 -2.486,-0.31075 -3.9362,-0.82866 -1.4501,-0.51792 -2.0716,-1.34658 -0.6215,-0.82866 -0.6215,-1.86448 V 236.66965 h -0.2072 l -38.8434,108.96881 q -0.4143,1.34657 -1.3466,2.27881 -0.9322,0.82866 -2.5895,1.34657 -1.5538,0.51792 -4.0398,0.6215 -2.4859,0.20716 -6.0077,0.20716 -3.5219,0 -6.0078,-0.31074 -2.486,-0.20717 -4.1433,-0.72508 -1.5538,-0.6215 -2.486,-1.45016 -0.9323,-0.82866 -1.243,-1.96806 l -37.4969,-108.96881 h -0.2071 v 109.07239 q 0,1.03582 -0.6215,1.86448 -0.518,0.82866 -2.0717,1.34658 -1.5537,0.51791 -4.0397,0.82866 -2.3824,0.31074 -6.215,0.31074 -3.7289,0 -6.2149,-0.31074 -2.486,-0.31075 -4.0397,-0.82866 -1.4502,-0.51792 -2.0717,-1.34658 -0.5179,-0.82866 -0.5179,-1.86448 V 226.3114 q 0,-5.28271 2.7967,-8.07944 2.7968,-2.79673 7.458,-2.79673 h 17.8162 q 4.7648,0 8.183,0.82866 3.4182,0.72508 5.9042,2.58957 2.486,1.7609 4.1433,4.76479 1.6573,2.90031 2.9003,7.25078 l 29.0031,79.86212 h 0.4143 l 30.039,-79.65496 q 1.3465,-4.35046 2.9003,-7.35436 1.6573,-3.00389 3.729,-4.86837 2.1752,-1.86449 5.0755,-2.58957 2.9003,-0.82866 6.7329,-0.82866 h 18.3341 q 2.7967,0 4.7648,0.72508 2.0716,0.72508 3.3146,2.17523 1.3466,1.34658 1.9681,3.41823 0.725,1.96806 0.725,4.55763 z m 121.088,-46.92288 q 0,11.8084 -3.1075,21.54516 -3.1074,9.73676 -9.426,16.78037 -6.3185,7.04361 -15.8481,10.87616 -9.5296,3.83256 -22.2702,3.83256 -12.3263,0 -21.4416,-3.41823 -9.1153,-3.41822 -15.1231,-9.94392 -6.0077,-6.5257 -8.9081,-16.05529 -2.9003,-9.52959 -2.9003,-21.75233 0,-11.8084 3.1075,-21.54516 3.2111,-9.84034 9.5296,-16.78037 6.3185,-7.04361 15.7445,-10.87616 9.5296,-3.83256 22.2703,-3.83256 12.4299,0 21.5452,3.41823 9.1152,3.31464 15.0194,9.84034 6.0078,6.5257 8.9081,16.05529 2.9003,9.52959 2.9003,21.85591 z m -26.8278,1.03582 q 0,-6.83644 -1.1395,-12.53348 -1.0358,-5.80062 -3.6253,-10.04751 -2.5896,-4.24688 -6.9401,-6.62928 -4.2469,-2.38239 -10.7726,-2.38239 -5.8006,0 -10.151,2.17523 -4.3505,2.07165 -7.1472,6.21495 -2.7968,4.03972 -4.2469,9.84034 -1.3466,5.69704 -1.3466,13.0514 0,6.83644 1.1394,12.63706 1.1394,5.69704 3.6254,9.94392 2.5896,4.24689 6.94,6.62929 4.3505,2.27881 10.7726,2.27881 5.9042,0 10.2547,-2.07165 4.3504,-2.17523 7.1472,-6.21495 2.7967,-4.03972 4.1433,-9.73676 1.3466,-5.80062 1.3466,-13.15498 z m 75.5116,49.2017 q 0,10.87616 -1.8645,17.60903 -1.8644,6.73286 -5.697,11.29049 -3.729,4.66121 -9.426,6.94003 -5.697,2.3824 -13.3622,2.3824 -4.2468,0 -7.2507,-0.6215 -3.0039,-0.51791 -4.3505,-1.13941 -1.3466,-0.62149 -1.8645,-1.55373 -0.5179,-0.93225 -0.7251,-2.17524 -0.2071,-1.1394 -0.3107,-2.69314 -0.1036,-1.45016 -0.1036,-3.83256 0,-2.90031 0.2072,-4.86837 0.1036,-1.86449 0.5179,-3.0039 0.4143,-1.1394 0.9322,-1.65732 0.5179,-0.51791 1.3466,-0.51791 0.5179,0 2.0717,0.20717 1.6573,0.31074 3.5218,0.31074 2.6931,0 4.6612,-0.82866 1.968,-0.82866 3.211,-2.69314 1.243,-1.7609 1.8645,-4.66122 0.6215,-2.79672 0.6215,-9.01167 v -94.77801 q 0,-1.03582 0.6215,-1.7609 0.6215,-0.82866 2.0717,-1.34657 1.4501,-0.6215 3.9361,-0.93224 2.486,-0.31075 6.3185,-0.31075 3.8326,0 6.3186,0.31075 2.4859,0.31074 3.9361,0.93224 1.5537,0.51791 2.1752,1.34657 0.6215,0.72508 0.6215,1.7609 z m 1.9681,-126.785 q 0,7.87227 -3.2111,10.87616 -3.1074,3.0039 -11.912,3.0039 -8.7009,0 -11.8084,-2.90032 -3.1074,-2.90031 -3.1074,-10.46183 0,-7.87227 3.211,-10.87616 3.2111,-3.10748 11.912,-3.10748 8.8045,0 11.8084,3.00389 3.1075,2.90031 3.1075,10.46184 z m 50.2375,123.67752 q 0,1.03583 -0.6215,1.86449 -0.6215,0.72508 -2.1752,1.24299 -1.4502,0.51791 -3.9362,0.72508 -2.4859,0.31074 -6.3185,0.31074 -3.8325,0 -6.3185,-0.31074 -2.486,-0.20717 -4.0397,-0.72508 -1.4502,-0.51791 -2.0717,-1.24299 -0.6215,-0.82866 -0.6215,-1.86449 v -92.18844 q 0,-1.03582 0.6215,-1.7609 0.6215,-0.82866 2.0717,-1.34657 1.5537,-0.6215 4.0397,-0.93224 2.486,-0.31075 6.3185,-0.31075 3.8326,0 6.3185,0.31075 2.486,0.31074 3.9362,0.93224 1.5537,0.51791 2.1752,1.34657 0.6215,0.72508 0.6215,1.7609 z m 1.9681,-123.67752 q 0,7.87227 -3.2111,10.87616 -3.211,3.0039 -11.912,3.0039 -8.8045,0 -11.912,-2.90032 -3.0039,-2.90031 -3.0039,-10.46183 0,-7.87227 3.1075,-10.87616 3.2111,-3.10748 12.0156,-3.10748 8.7009,0 11.8084,3.00389 3.1075,2.90031 3.1075,10.46184 z"
       id="text6"
       aria-label="marinaMoji" /><path
       id="path4"
       style="display:inline;fill:#203758;fill-opacity:1;stroke-width:0.387489"
       d="m 258.40836,125.05679 c -76.95269,0 -82.62009,0.0457 -86.60352,0.6875 -20.26353,3.26474 -35.68022,13.95437 -43.9668,30.48633 -3.2169,6.4178 -5.09952,13.75764 -5.8125,22.64844 -0.53415,6.66527 -0.54165,148.31852 -0.008,155.81055 1.33008,18.66676 7.1605,31.74841 18.7168,41.99023 10.25908,9.09215 22.79384,13.86522 38.625,14.71094 8.38083,0.44771 157.77927,0.14799 162.55273,-0.32617 14.73111,-1.4633 27.02208,-7.04243 36.65235,-16.63672 9.33714,-9.30227 13.95034,-19.52328 15.92382,-35.28321 0.7416,-5.92175 0.74885,-157.31608 0.008,-162.74414 -2.04928,-15.01082 -6.8121,-25.37449 -15.75977,-34.29687 -8.95314,-8.92785 -19.52812,-14.05334 -33.75976,-16.36133 -3.94736,-0.64011 -9.66447,-0.68555 -86.56836,-0.68555 z m 1.26757,35.98828 c 24.08924,0 40.41326,9.85801 46.50391,28.08008 3.81817,11.4232 0.74423,25.45218 -6.65039,30.34571 -3.90117,2.5817 -8.79871,2.87594 -12.08203,0.72461 -1.21067,-0.79325 -3.77188,-3.89398 -5.69141,-6.88868 -4.52895,-7.06564 -7.29605,-8.52028 -16.17773,-8.50976 -5.89311,0.007 -7.04962,0.288 -12.71485,3.08789 -10.50452,5.19163 -19.92936,15.90289 -24.88476,28.28125 -1.17576,2.93704 -2.72934,8.94826 -3.45313,13.35742 -3.13158,19.07782 3.54094,37.04347 19.11524,51.46289 7.93175,7.34358 9.70751,8.13777 5.51953,2.46875 -1.86644,-2.52655 -4.94766,-7.52482 -6.8457,-11.10547 -8.64784,-16.31409 -9.21158,-35.90107 -1.47461,-51.19531 1.90346,-3.76274 4.4716,-6.51924 3.16601,-3.39844 -3.71458,8.87921 -3.66947,22.59398 0.11133,33.39258 8.09288,23.11452 28.65575,40.74603 56.49219,48.4375 9.25925,2.55839 25.4928,3.68423 26.94531,1.86914 0.93229,-1.16505 2.30805,-47.93891 1.38281,-47.01367 -0.27056,0.27055 -4.14844,7.82109 -8.61914,16.7793 -8.10799,16.24657 -8.1364,16.28782 -10.70117,16.17382 -3.89564,-0.17322 -11.05102,-2.64202 -18.16016,-6.26367 -6.79193,-3.46004 -8.69368,-5.31318 -7.35156,-7.16211 21.66664,-29.84697 38.47666,-71.29927 40.9668,-101.01758 0.77115,-9.20347 0.6296,-9.07874 16.81055,-14.76171 9.94717,-3.49358 21.61993,-4.6398 23.9121,-2.34766 1.27194,1.27197 1.36915,6.97037 1.36915,80.26367 0,62.17401 -0.21331,79.05573 -1.00391,79.65625 -1.12911,0.85765 -22.88937,3.23312 -36.31445,3.96485 -4.85537,0.2646 -13.5236,0.0598 -19.26172,-0.45704 -38.59371,-3.47575 -67.75302,-18.89829 -85.09571,-45.0039 -9.51126,-14.31711 -12.83618,-26.54648 -12.21875,-44.9375 0.30083,-8.96047 0.74331,-12.01983 2.5625,-17.66016 2.56928,-7.9659 7.28421,-17.13124 11.39063,-22.14258 3.55424,-4.33748 2.5796,-4.54043 -5.83789,-1.21875 -17.31813,6.83406 -28.94348,20.12185 -34.47461,39.4043 -1.97622,6.88947 -2.10895,8.26273 -1.69141,17.58398 0.53967,12.04564 2.44401,19.89049 7.34766,30.27344 15.40829,32.62578 44.05518,49.4109 93.13867,54.57227 l 5.61914,0.59179 -3.61133,0.59766 c -5.94704,0.98676 -28.69505,0.63493 -37.7207,-0.58398 -48.44457,-6.54263 -79.98356,-37.48843 -79.69922,-78.19922 0.0962,-13.77878 3.87063,-26.21907 11.85547,-39.0625 3.31041,-5.32464 0.35588,-3.3844 -5.64648,3.70703 -6.11479,7.22424 -12.41087,19.32206 -14.87891,28.58594 -2.20381,8.27218 -2.46318,24.46935 -0.52734,33.01757 3.84453,16.97703 14.9191,34.61823 28.60156,45.5586 2.71097,2.16763 4.75616,4.11493 4.54297,4.32812 -0.63531,0.63531 -16.82075,-7.70182 -21.01758,-10.82617 -21.34516,-15.89066 -31.22996,-38.56241 -29.67578,-68.0664 1.81516,-34.45923 20.87686,-65.22068 54.46484,-87.89258 21.0081,-14.18051 40.73638,-20.85157 61.66406,-20.85157 z"
       inkscape:label="new_icon" /></g></svg>
