<?xml version="1.0" encoding="UTF-8" standalone="no"?>
<!-- Created with Inkscape (http://www.inkscape.org/) -->

<svg
   width="26.022566mm"
   height="25.998259mm"
   viewBox="0 0 26.022566 25.998259"
   version="1.1"
   id="svg1"
   xml:space="preserve"
   inkscape:version="1.4.3 (0d15f75042, 2025-12-25)"
   sodipodi:docname="menu_ascii_light.svg"
   inkscape:export-filename="../256/menu_ascii_light.png"
   inkscape:export-xdpi="249.87544"
   inkscape:export-ydpi="249.87544"
   xmlns:inkscape="http://www.inkscape.org/namespaces/inkscape"
   xmlns:sodipodi="http://sodipodi.sourceforge.net/DTD/sodipodi-0.dtd"
   xmlns="http://www.w3.org/2000/svg"
   xmlns:svg="http://www.w3.org/2000/svg"><sodipodi:namedview
     id="namedview1"
     pagecolor="#ffffff"
     bordercolor="#000000"
     borderopacity="0.25"
     inkscape:showpageshadow="2"
     inkscape:pageopacity="0.0"
     inkscape:pagecheckerboard="0"
     inkscape:deskcolor="#d1d1d1"
     inkscape:document-units="mm"
     showguides="true"
     inkscape:zoom="1.4814521"
     inkscape:cx="-113.06474"
     inkscape:cy="154.57807"
     inkscape:window-width="1920"
     inkscape:window-height="1009"
     inkscape:window-x="0"
     inkscape:window-y="0"
     inkscape:window-maximized="1"
     inkscape:current-layer="layer1"
     showgrid="false"><sodipodi:guide
       position="17.324723,27.920567"
       orientation="0,-1"
       id="guide1"
       inkscape:locked="false" /><sodipodi:guide
       position="10.991219,272.43241"
       orientation="0,-1"
       id="guide2"
       inkscape:locked="false" /><sodipodi:guide
       position="1.9752346,281.17106"
       orientation="1,0"
       id="guide3"
       inkscape:locked="false" /><sodipodi:guide
       position="24.033848,277.55962"
       orientation="1,0"
       id="guide4"
       inkscape:locked="false" /><sodipodi:guide
       position="-13.285874,6.0026109"
       orientation="0,-1"
       id="guide5"
       inkscape:locked="false" /></sodipodi:namedview><defs
     id="defs1" /><g
     inkscape:label="Light"
     inkscape:groupmode="layer"
     id="layer1"
     transform="translate(-1.9887171,-2.0008707)"
     style="display:inline"><rect
       style="display:inline;fill:#203859;fill-opacity:1;stroke-width:1.61;stroke-linejoin:bevel;paint-order:stroke fill markers"
       id="rect2"
       width="26.022566"
       height="25.998259"
       x="1.9887171"
       y="2.0008707"
       ry="6.2886238" /><g
       id="g19"
       inkscape:label="A"
       style="display:inline"><path
         style="fill:#ffffff;fill-opacity:1;stroke-width:0.372281"
         d="m 7.0027942,24.019148 c -0.02826,-0.07372 1.369333,-4.038362 3.1058158,-8.810332 1.736483,-4.771969 3.157251,-8.7170648 3.157251,-8.7668786 0,-0.049813 0.09186,-0.20736 0.204149,-0.3501022 0.202209,-0.2570755 0.216426,-0.2595176 1.50211,-0.2580234 0.713876,8.191e-4 1.35165,0.035628 1.417267,0.077326 0.171257,0.1088358 0.14436,0.037747 3.23732,8.5542352 3.541126,9.7505 3.413637,9.387141 3.35092,9.550576 -0.07925,0.206512 -2.545302,0.197674 -2.752838,-0.0099 -0.08092,-0.0809 -0.511869,-1.244421 -0.957719,-2.585607 l -0.810629,-2.438519 -3.45716,0.02313 -3.45716,0.02313 -0.845399,2.472614 c -0.464962,1.359938 -0.9082138,2.512377 -0.9849928,2.560974 -0.07679,0.0486 -0.706128,0.08904 -1.398549,0.08987 -0.971969,0.0011 -1.270685,-0.02905 -1.310386,-0.132515 z"
         id="path16" /><path
         style="fill:#203859;fill-opacity:1;stroke-width:0.372281"
         d="m 17.599828,16.430359 c 0,-0.02193 -0.576222,-1.693419 -1.280489,-3.714427 -0.704276,-2.021008 -1.280497,-3.6947937 -1.280497,-3.7195227 0,-0.02473 -0.02115,-0.02384 -0.04695,0.002 -0.04651,0.04654 -2.612543,7.3414237 -2.612543,7.4271837 0,0.02456 1.1746,0.04465 2.610225,0.04465 1.435635,0 2.610236,-0.01794 2.610236,-0.03987 z"
         id="path17" /></g></g></svg>
