<?xml version="1.0" encoding="UTF-8" standalone="no"?>
<!-- Created with Inkscape (http://www.inkscape.org/) -->

<svg
   width="30mm"
   height="30mm"
   viewBox="0 0 30 30"
   version="1.1"
   id="svg1"
   xml:space="preserve"
   inkscape:version="1.4.3 (0d15f75042, 2025-12-25)"
   sodipodi:docname="toolbar_marks_light.svg"
   inkscape:export-filename="../src/ibus-marinamoji/icons/256/toolbar_marks_light.png"
   inkscape:export-xdpi="216.74667"
   inkscape:export-ydpi="216.74667"
   xmlns:inkscape="http://www.inkscape.org/namespaces/inkscape"
   xmlns:sodipodi="http://sodipodi.sourceforge.net/DTD/sodipodi-0.dtd"
   xmlns="http://www.w3.org/2000/svg"
   xmlns:svg="http://www.w3.org/2000/svg"><sodipodi:namedview
     id="namedview1"
     pagecolor="#ffffff"
     bordercolor="#000000"
     borderopacity="0.25"
     inkscape:showpageshadow="2"
     inkscape:pageopacity="0.0"
     inkscape:pagecheckerboard="0"
     inkscape:deskcolor="#d1d1d1"
     inkscape:document-units="mm"
     showguides="true"
     inkscape:zoom="0.61354589"
     inkscape:cx="-378.94476"
     inkscape:cy="-151.5779"
     inkscape:window-width="1920"
     inkscape:window-height="1009"
     inkscape:window-x="0"
     inkscape:window-y="0"
     inkscape:window-maximized="1"
     inkscape:current-layer="g21"
     showgrid="false"><sodipodi:guide
       position="19.31344,25.919696"
       orientation="0,-1"
       id="guide1"
       inkscape:locked="false" /><sodipodi:guide
       position="12.979936,270.43154"
       orientation="0,-1"
       id="guide2"
       inkscape:locked="false" /><sodipodi:guide
       position="3.9639517,279.17019"
       orientation="1,0"
       id="guide3"
       inkscape:locked="false" /><sodipodi:guide
       position="26.022565,275.55875"
       orientation="1,0"
       id="guide4"
       inkscape:locked="false" /><sodipodi:guide
       position="-11.297157,4.0017402"
       orientation="0,-1"
       id="guide5"
       inkscape:locked="false" /></sodipodi:namedview><defs
     id="defs1" /><g
     inkscape:label="Light"
     inkscape:groupmode="layer"
     id="g21"
     style="display:inline"><path
       d="m 15.974692,25.998295 c 0.995364,0 1.371391,-0.752053 1.371391,-1.526225 0,-0.641457 -0.530861,-1.437748 -1.017483,-1.968609 -0.376027,-0.398146 -0.906888,-0.884768 -1.614702,-1.37139 1.592582,-1.371391 2.919734,-2.720662 4.202648,-3.915099 0.464503,-0.398145 1.592582,-0.641456 1.592582,-1.282913 0,-0.796291 -1.990728,-2.720662 -2.875496,-2.720662 -0.442384,0 -0.796291,0.619338 -1.437748,0.752053 -0.685695,0.132715 -3.052449,0.353907 -3.87086,0.376026 0.55298,-0.752052 1.039603,-1.437748 1.415629,-1.990728 0.353907,-0.508741 0.995364,-0.707814 0.995364,-1.260794 0,-0.55298 -1.150198,-1.5262248 -1.92437,-1.9243704 C 11.993236,8.7453188 11.042111,8.7231996 9.8919124,8.7895572 L 9.7591972,9.1655836 c 0.5308608,0.2654304 1.0174828,0.5087416 1.3492708,0.8626484 0.309669,0.309669 0.309669,0.530861 0.199073,0.862649 -0.486622,1.282914 -1.6589398,3.561191 -2.8533766,5.308608 -1.2386752,1.769536 -2.7649,3.671787 -4.4901975,5.5298 l 0.3539072,0.376026 c 2.3446351,-1.37139 4.2026479,-3.31788 5.7067539,-4.9547 0.486622,-0.530861 0.973244,-1.10596 1.415628,-1.681059 0.309669,0.309668 0.597219,0.55298 0.818411,0.55298 0.309669,0 0.575099,-0.154835 1.039602,-0.243312 0.663576,-0.110596 2.344635,-0.331788 3.118807,-0.376026 0.28755,0 0.398146,0.132715 0.265431,0.420265 -0.685695,1.305033 -1.703179,2.919734 -3.05245,4.622912 -1.039602,-0.575099 -2.344635,-1.128079 -3.9150982,-1.526224 l -0.2654304,0.353907 c 2.2782776,1.791655 3.6275486,3.118807 4.8662236,5.374965 0.442384,0.84053 0.752053,1.349272 1.65894,1.349272 z"
       id="text15"
       style="font-weight:bold;font-size:22.1192px;line-height:0.9;font-family:'Noto Serif CJK JP';-inkscape-font-specification:'Noto Serif CJK JP, Bold';text-orientation:upright;fill:#203859;stroke-width:1.03684;paint-order:markers stroke fill"
       inkscape:label="odoriji"
       aria-label="々&#10;" /><path
       style="font-weight:bold;font-size:23.4998px;line-height:0.9;font-family:Arial;-inkscape-font-specification:'Arial, Bold';text-orientation:upright;fill:#203859;stroke-width:1.10155;paint-order:markers stroke fill"
       d="M 19.85238,13.108044 V 8.7362554 H 15.446167 V 5.7184588 H 19.85238 V 1.3466699 h 2.937475 v 4.3717889 h 4.417687 v 3.0177966 h -4.417687 v 4.3717886 z"
       id="text16"
       aria-label="+" /></g></svg>
