<?xml version="1.0" encoding="UTF-8" standalone="no"?>
<!-- Created with Inkscape (http://www.inkscape.org/) -->

<svg
   width="30mm"
   height="30mm"
   viewBox="0 0 30 30"
   version="1.1"
   id="svg1"
   xml:space="preserve"
   inkscape:version="1.4.3 (0d15f75042, 2025-12-25)"
   sodipodi:docname="toolbar_kata_half_dark.svg"
   inkscape:export-filename="../src/ibus-marinamoji/icons/mode_dark_kyu.png"
   inkscape:export-xdpi="96"
   inkscape:export-ydpi="96"
   xmlns:inkscape="http://www.inkscape.org/namespaces/inkscape"
   xmlns:sodipodi="http://sodipodi.sourceforge.net/DTD/sodipodi-0.dtd"
   xmlns="http://www.w3.org/2000/svg"
   xmlns:svg="http://www.w3.org/2000/svg"><sodipodi:namedview
     id="namedview1"
     pagecolor="#ffffff"
     bordercolor="#000000"
     borderopacity="0.25"
     inkscape:showpageshadow="2"
     inkscape:pageopacity="0.0"
     inkscape:pagecheckerboard="0"
     inkscape:deskcolor="#d1d1d1"
     inkscape:document-units="mm"
     showguides="true"
     inkscape:zoom="1.6330502"
     inkscape:cx="43.476923"
     inkscape:cy="70.114193"
     inkscape:window-width="1920"
     inkscape:window-height="1009"
     inkscape:window-x="0"
     inkscape:window-y="0"
     inkscape:window-maximized="1"
     inkscape:current-layer="g21"
     showgrid="false"><sodipodi:guide
       position="19.31344,25.919696"
       orientation="0,-1"
       id="guide1"
       inkscape:locked="false" /><sodipodi:guide
       position="12.979936,270.43154"
       orientation="0,-1"
       id="guide2"
       inkscape:locked="false" /><sodipodi:guide
       position="3.9639517,279.17019"
       orientation="1,0"
       id="guide3"
       inkscape:locked="false" /><sodipodi:guide
       position="26.022565,275.55875"
       orientation="1,0"
       id="guide4"
       inkscape:locked="false" /><sodipodi:guide
       position="-11.297157,4.0017402"
       orientation="0,-1"
       id="guide5"
       inkscape:locked="false" /></sodipodi:namedview><defs
     id="defs1" /><g
     inkscape:label="Light"
     inkscape:groupmode="layer"
     id="g21"
     style="display:inline"><path
       style="font-weight:bold;font-size:26.1854px;line-height:1.2;font-family:'Noto Serif CJK JP';-inkscape-font-specification:'Noto Serif CJK JP, Bold';font-variation-settings:'opsz' 32, 'wght' 300;text-orientation:upright;fill:#ffffff;stroke-width:1.20233;paint-order:markers stroke fill;fill-opacity:1"
       d="m 9.9597918,25.27777 0.3266232,0.366595 c 1.959737,-1.178343 3.869224,-3.744512 4.949593,-6.389237 0.678369,-1.623495 1.130617,-3.194619 1.45724,-4.844299 0.200998,-0.864118 0.653245,-1.256899 0.653245,-1.859164 0,-0.157112 -0.125624,-0.34041 -0.326623,-0.523708 1.205992,-1.230713 2.33661,-2.7232807 2.989856,-3.5612138 C 20.361473,7.995406 20.96447,7.864479 20.96447,7.209844 c 0,-1.1259723 -1.808989,-2.8542087 -2.38686,-2.8542087 -0.376872,0 -0.803994,0.6808204 -1.331616,0.8379328 -0.72862,0.2094832 -5.125466,0.8379328 -6.13046,0.8379328 -0.653245,0 -1.180867,-0.6808204 -1.633114,-1.6496802 L 9.1306723,4.4865624 c -0.150749,0.9688598 -0.1004994,1.4925678 0,2.1733882 0.1758738,1.1259722 1.1557427,2.9065794 1.7838637,2.9065794 0.552746,0 1.004993,-0.6808204 1.55774,-0.9426744 0.979868,-0.4189664 3.844099,-1.3354554 4.547594,-1.3354554 0.200999,0 0.276373,0.1047416 0.251249,0.3404102 C 17.044995,8.5976702 16.467124,10.090238 15.839003,11.320952 15.236008,11.059098 14.582761,10.8758 14.05514,10.8758 13.628018,10.84961 12.924523,11.006727 12.5979,11.111468 l -0.02513,0.366596 c 0.376872,0.235669 0.67837,0.445152 1.004993,0.733191 0.301498,0.28804 0.427122,0.471337 0.452247,0.916489 0.02513,1.256899 -0.251248,3.430288 -0.854244,5.472749 -0.678371,2.225759 -1.65824,4.582445 -3.215979,6.677277 z"
       id="text24"
       inkscape:label="ア_half"
       aria-label="ｱ" /><rect
       style="display:inline;fill:#ffffff;fill-opacity:1;stroke-width:0.845;stroke-linejoin:bevel"
       id="rect24"
       width="4.2833419"
       height="21.917955"
       x="3.9639518"
       y="4.0803041" /><rect
       style="display:inline;fill:#ffffff;fill-opacity:1;stroke-width:0.845;stroke-linejoin:bevel"
       id="rect24-3"
       width="4.2833419"
       height="21.917955"
       x="21.739223"
       y="4.0803041" /></g></svg>
