<?xml version="1.0" encoding="UTF-8" standalone="no"?>
<!-- Created with Inkscape (http://www.inkscape.org/) -->

<svg
   width="30mm"
   height="30mm"
   viewBox="0 0 30 30"
   version="1.1"
   id="svg1"
   xml:space="preserve"
   inkscape:version="1.4.3 (0d15f75042, 2025-12-25)"
   sodipodi:docname="toolbar_kyu_dark.svg"
   inkscape:export-filename="../256/toolbar_kyu_dark.png"
   inkscape:export-xdpi="216.74667"
   inkscape:export-ydpi="216.74667"
   xmlns:inkscape="http://www.inkscape.org/namespaces/inkscape"
   xmlns:sodipodi="http://sodipodi.sourceforge.net/DTD/sodipodi-0.dtd"
   xmlns="http://www.w3.org/2000/svg"
   xmlns:svg="http://www.w3.org/2000/svg"><sodipodi:namedview
     id="namedview1"
     pagecolor="#ffffff"
     bordercolor="#000000"
     borderopacity="0.25"
     inkscape:showpageshadow="2"
     inkscape:pageopacity="0.0"
     inkscape:pagecheckerboard="0"
     inkscape:deskcolor="#d1d1d1"
     inkscape:document-units="mm"
     showguides="true"
     inkscape:zoom="0.61354589"
     inkscape:cx="-378.94476"
     inkscape:cy="-151.5779"
     inkscape:window-width="1920"
     inkscape:window-height="1009"
     inkscape:window-x="0"
     inkscape:window-y="0"
     inkscape:window-maximized="1"
     inkscape:current-layer="layer1"
     showgrid="false"><sodipodi:guide
       position="19.31344,25.919696"
       orientation="0,-1"
       id="guide1"
       inkscape:locked="false" /><sodipodi:guide
       position="12.979936,270.43154"
       orientation="0,-1"
       id="guide2"
       inkscape:locked="false" /><sodipodi:guide
       position="3.9639517,279.17019"
       orientation="1,0"
       id="guide3"
       inkscape:locked="false" /><sodipodi:guide
       position="26.022565,275.55875"
       orientation="1,0"
       id="guide4"
       inkscape:locked="false" /><sodipodi:guide
       position="-11.297157,4.0017402"
       orientation="0,-1"
       id="guide5"
       inkscape:locked="false" /></sodipodi:namedview><defs
     id="defs1" /><g
     inkscape:label="Dark"
     inkscape:groupmode="layer"
     id="layer1"
     style="display:inline"><rect
       style="display:inline;fill:#ce7676;fill-opacity:1;stroke-width:1.61;stroke-linejoin:bevel;paint-order:stroke fill markers"
       id="rect3"
       width="26.022566"
       height="25.998259"
       x="1.9887171"
       y="2.0008707"
       ry="6.2886238" /><path
       style="font-weight:bold;font-size:23.1222px;line-height:1.2;font-family:'Noto Serif CJK JP';-inkscape-font-specification:'Noto Serif CJK JP, Bold';font-variation-settings:'opsz' 32, 'wght' 300;text-orientation:upright;fill:#ffffff;stroke-width:1.08385;paint-order:markers stroke fill"
       d="m 13.947943,10.554465 v 1.549188 H 10.757079 V 10.554465 Z M 8.9997921,7.5948238 C 8.1905151,10.022655 6.4563501,12.774197 4.5603297,14.346506 l 0.231222,0.2081 c 1.2023544,-0.554933 2.3353422,-1.294843 3.3758412,-2.173487 v 6.058017 h 0.462444 c 1.3179654,0 2.1272421,-0.601178 2.1272421,-0.763033 v -0.4162 h 13.064043 c 0.323711,0 0.578055,-0.115611 0.6243,-0.369955 -0.94801,-0.786155 -2.474076,-1.89602 -2.474076,-1.89602 l -1.364209,1.618554 h -4.09263 v -1.618554 h 5.341228 c 0.323711,0 0.554933,-0.115611 0.6243,-0.369955 -0.901766,-0.739911 -2.289098,-1.734165 -2.289098,-1.734165 l -1.225477,1.456698 h -2.450953 v -1.572309 h 5.294984 c 0.323711,0 0.554933,-0.115611 0.624299,-0.369956 -0.901765,-0.73991 -2.289097,-1.734165 -2.289097,-1.734165 l -1.248599,1.433577 h -2.381587 v -1.549188 h 6.451094 c 0.323711,0 0.554933,-0.115611 0.624299,-0.369955 C 22.64189,9.3752332 21.092703,8.311612 21.092703,8.311612 l -1.341088,1.5723096 h -4.439462 c 0.508688,-0.346833 1.040499,-0.7167882 1.410454,-1.0173768 0.508688,-0.023122 0.786155,-0.2080998 0.901766,-0.578055 1.202354,-0.023122 2.011631,-0.3005886 2.011631,-0.4855662 V 6.9474022 h 5.179373 c 0.323711,0 0.578055,-0.115611 0.624299,-0.3699552 C 24.584155,5.76817 23.127456,4.6351822 23.127456,4.6351822 L 21.832613,6.2768584 H 19.636004 V 5.0051374 C 20.237181,4.9126486 20.422159,4.7045488 20.445281,4.380838 L 17.000073,4.1033716 V 6.2768584 H 12.8612 v -1.271721 c 0.601177,-0.092489 0.786154,-0.3005886 0.809277,-0.6011772 L 10.271513,4.1033716 V 6.2768584 H 4.5834519 l 0.1618554,0.6705438 h 5.5262057 v 0.9711324 z m 5.0406399,0.092489 c -0.06937,0.6242994 -0.231222,1.502943 -0.346833,2.196609 H 11.057668 L 10.687713,9.7451884 c 0.254344,-0.346833 0.508688,-0.6705438 0.716788,-1.0173768 0.601177,0.069367 0.786155,-0.023122 0.855521,-0.2774664 L 11.728212,8.311612 C 12.398756,8.2191232 12.8612,8.0341456 12.8612,7.8954124 V 6.9474022 h 4.138873 v 1.2254766 z m -0.09249,8.9251694 h -3.190864 v -1.618554 h 3.190864 z m 2.335342,4.83254 0.2081,0.647421 h 4.092629 V 23.84973 H 9.7859469 v -1.734165 h 4.9481511 c 0.300588,0 0.53181,-0.115611 0.601177,-0.369955 -0.809277,-0.716788 -2.127242,-1.68792 -2.127242,-1.68792 l -1.15611,1.387332 H 9.7859469 v -1.433577 c 0.2543441,-0.02312 0.4393221,-0.06937 0.5549331,-0.161855 1.433576,-0.161856 2.797786,-0.439322 3.768918,-0.716788 0.601178,0.208099 1.040499,0.208099 1.248599,0 l -2.10412,-1.872899 c -0.855521,0.601178 -2.404709,1.410455 -3.8845297,2.011632 L 7.1962605,18.670358 v 7.144759 h 0.3930774 c 1.4335764,0 2.1734868,-0.508688 2.196609,-0.624299 V 24.497152 H 20.584014 v 1.109866 h 0.439322 c 0.855522,0 2.173487,-0.462444 2.196609,-0.6243 v -4.878784 c 0.4162,-0.06937 0.716788,-0.254344 0.832399,-0.4162 l -2.497197,-1.89602 -1.202355,1.294843 H 15.91333 l 0.2081,0.670544 h 4.462584 v 1.687921 z m -2.335342,-8.670825 v 1.572309 h -3.190864 v -1.572309 z"
       id="text10"
       aria-label="舊" /></g></svg>
