<?xml version="1.0" encoding="UTF-8" standalone="no"?>
<!-- Created with Inkscape (http://www.inkscape.org/) -->

<svg
   width="26.022566mm"
   height="25.998259mm"
   viewBox="0 0 26.022566 25.998259"
   version="1.1"
   id="svg1"
   xml:space="preserve"
   inkscape:version="1.4.3 (0d15f75042, 2025-12-25)"
   sodipodi:docname="toolbar_settings_light.svg"
   inkscape:export-filename="../src/ibus-marinamoji/icons/small_dark_composer.png"
   inkscape:export-xdpi="96"
   inkscape:export-ydpi="96"
   xmlns:inkscape="http://www.inkscape.org/namespaces/inkscape"
   xmlns:sodipodi="http://sodipodi.sourceforge.net/DTD/sodipodi-0.dtd"
   xmlns="http://www.w3.org/2000/svg"
   xmlns:svg="http://www.w3.org/2000/svg"><sodipodi:namedview
     id="namedview1"
     pagecolor="#ffffff"
     bordercolor="#000000"
     borderopacity="0.25"
     inkscape:showpageshadow="2"
     inkscape:pageopacity="0.0"
     inkscape:pagecheckerboard="0"
     inkscape:deskcolor="#d1d1d1"
     inkscape:document-units="mm"
     showguides="true"
     inkscape:zoom="1.4814521"
     inkscape:cx="42.525843"
     inkscape:cy="154.24056"
     inkscape:window-width="1920"
     inkscape:window-height="1009"
     inkscape:window-x="0"
     inkscape:window-y="0"
     inkscape:window-maximized="1"
     inkscape:current-layer="layer1"
     showgrid="false"><sodipodi:guide
       position="17.324723,27.920567"
       orientation="0,-1"
       id="guide1"
       inkscape:locked="false" /><sodipodi:guide
       position="10.991219,272.43241"
       orientation="0,-1"
       id="guide2"
       inkscape:locked="false" /><sodipodi:guide
       position="1.9752346,281.17106"
       orientation="1,0"
       id="guide3"
       inkscape:locked="false" /><sodipodi:guide
       position="24.033848,277.55962"
       orientation="1,0"
       id="guide4"
       inkscape:locked="false" /><sodipodi:guide
       position="-13.285874,6.0026109"
       orientation="0,-1"
       id="guide5"
       inkscape:locked="false" /></sodipodi:namedview><defs
     id="defs1" /><g
     inkscape:label="Light"
     inkscape:groupmode="layer"
     id="layer1"
     transform="translate(-1.9887171,-2.0008707)"
     style="display:inline"><g
       id="g18"
       inkscape:label="Settings"
       style="display:inline"><path
         id="path13"
         style="fill:#203859;fill-opacity:1;stroke-width:0.372281"
         d="M 13.20457 3.6477986 L 12.978227 3.9113484 C 12.788482 4.1320145 12.739881 4.3353885 12.680571 5.1639851 C 12.641637 5.7079502 12.55913 6.1930525 12.49712 6.2419555 C 12.435109 6.290858 12.140856 6.4091315 11.842896 6.5049885 C 11.544935 6.6008452 11.136454 6.7616672 10.935458 6.8625894 C 10.734462 6.9635122 10.489765 7.0460408 10.391305 7.0460408 C 10.292841 7.0460408 9.8828825 6.7835193 9.4802495 6.4626139 C 9.0776148 6.1417082 8.6504454 5.8606888 8.5309534 5.8378458 C 8.1521687 5.7654368 7.7793498 6.0153768 6.8576706 6.9618082 C 5.8204979 8.0268347 5.63759 8.2763361 5.63759 8.6216552 C 5.63759 8.9163573 6.1960558 9.6388338 6.350208 9.5435628 C 6.3787072 9.5259484 6.3971651 9.5204899 6.404985 9.5259928 L 6.4055018 9.5265095 C 6.4059391 9.526994 6.4072339 9.5285046 6.4075688 9.5290934 C 6.411822 9.5387034 6.4050273 9.5608118 6.385348 9.5926554 C 6.3453992 9.6572942 6.468961 9.8949806 6.6700851 10.140426 L 7.025619 10.574508 L 6.7134933 11.396163 C 6.5418977 11.847959 6.3477871 12.275079 6.2819951 12.345459 C 6.2162054 12.415838 5.7296328 12.538364 5.2009241 12.617794 C 4.6722154 12.69722 4.1614099 12.804235 4.0655929 12.855505 C 3.7202049 13.040355 3.6525034 13.45211 3.6852544 15.168542 C 3.7164205 16.801887 3.7187461 16.816984 3.9725753 17.035095 C 4.1695862 17.204384 4.4499387 17.281849 5.1921391 17.373059 C 5.7222948 17.438211 6.1905774 17.513297 6.2329025 17.539457 C 6.3362961 17.603358 6.9181742 19.135417 6.9176152 19.342448 C 6.9173642 19.432625 6.6292277 19.860125 6.2773442 20.292261 C 5.6097012 21.11217 5.53445 21.338359 5.7765996 21.801212 C 5.9917666 22.212488 7.9259639 24.063997 8.2167607 24.136987 C 8.5325183 24.216238 8.740172 24.111108 9.6120244 23.431087 C 9.9832401 23.14155 10.324624 22.904504 10.370634 22.904504 C 10.458413 22.904504 11.911884 23.509718 12.335372 23.722542 C 12.560044 23.835449 12.588567 23.923561 12.660417 24.729716 C 12.74892 25.722726 12.871126 26.047343 13.224724 26.226265 L 13.224724 26.225749 C 13.388397 26.308565 13.97834 26.349322 15.027198 26.350289 L 16.585759 26.351839 L 16.864295 26.07382 C 17.144012 25.794102 17.18412 25.614835 17.285458 24.188147 C 17.312406 23.808767 17.273084 23.835788 18.657467 23.248153 C 19.179827 23.026424 19.56326 22.915779 19.64242 22.964449 C 19.713718 23.008294 20.072625 23.276331 20.439787 23.559761 C 21.189143 24.13823 21.399617 24.230828 21.761154 24.140088 C 22.129091 24.047743 24.139758 22.052922 24.240072 21.680806 C 24.3514 21.267839 24.258061 21.061193 23.567762 20.192525 C 23.240742 19.781004 22.972966 19.424072 22.972966 19.399292 C 22.972966 19.250124 23.623403 17.803257 23.752763 17.664514 C 23.857888 17.551765 24.195709 17.461182 24.785775 17.388562 C 26.307575 17.201264 26.322116 17.178796 26.322116 14.99491 L 26.322116 13.335063 L 26.047714 13.060661 C 25.806986 12.819933 25.651299 12.771646 24.770789 12.663786 C 24.219103 12.596204 23.728496 12.489981 23.680416 12.428141 C 23.63234 12.366302 23.452574 11.924115 23.281474 11.445255 L 22.970382 10.574508 L 23.287159 10.164713 C 23.461377 9.9393057 23.730906 9.6057593 23.886089 9.4236734 C 24.24845 8.9985023 24.368688 8.6750948 24.287098 8.3446695 C 24.248324 8.1876397 23.75938 7.631798 23.080453 6.973177 C 22.01241 5.9370772 21.913762 5.8657385 21.545146 5.8657511 C 21.211647 5.8657623 21.037708 5.9563041 20.412399 6.4553792 C 20.006089 6.7796656 19.594336 7.0451517 19.497726 7.045524 C 19.401118 7.0459045 19.112983 6.9414422 18.857455 6.8134968 C 18.601925 6.6855512 18.160085 6.5045832 17.875603 6.4114542 C 17.290153 6.2198024 17.303168 6.2477467 17.213628 4.97795 C 17.163139 4.2619394 17.118745 4.1048865 16.909253 3.8942952 C 16.666506 3.650287 16.649015 3.6477986 14.934697 3.6477986 L 13.20457 3.6477986 z M 14.884571 10.420512 C 15.576561 10.400834 16.279093 10.541756 16.938192 10.85356 C 17.615906 11.174169 18.553624 12.043354 18.923601 12.693758 C 20.318066 15.145164 19.203668 18.258947 16.568706 19.272685 C 15.955118 19.508755 14.579783 19.605143 13.980233 19.454069 C 12.874849 19.175536 11.620116 18.228796 11.061032 17.251619 C 10.311574 15.941712 10.275472 14.192784 10.969564 12.832251 C 11.085625 12.604754 11.44246 12.14524 11.762798 11.811641 C 12.607316 10.932164 13.731253 10.453308 14.884571 10.420512 z " /></g></g></svg>
