<?xml version="1.0" encoding="UTF-8" standalone="no"?>
<!-- Created with Inkscape (http://www.inkscape.org/) -->

<svg
   width="30mm"
   height="30mm"
   viewBox="0 0 30 30"
   version="1.1"
   id="svg1"
   xml:space="preserve"
   inkscape:version="1.4.3 (0d15f75042, 2025-12-25)"
   sodipodi:docname="toolbar_kata_dark.svg"
   inkscape:export-filename="../256/toolbar_kata_dark.png"
   inkscape:export-xdpi="216.74667"
   inkscape:export-ydpi="216.74667"
   xmlns:inkscape="http://www.inkscape.org/namespaces/inkscape"
   xmlns:sodipodi="http://sodipodi.sourceforge.net/DTD/sodipodi-0.dtd"
   xmlns="http://www.w3.org/2000/svg"
   xmlns:svg="http://www.w3.org/2000/svg"><sodipodi:namedview
     id="namedview1"
     pagecolor="#ffffff"
     bordercolor="#000000"
     borderopacity="0.25"
     inkscape:showpageshadow="2"
     inkscape:pageopacity="0.0"
     inkscape:pagecheckerboard="0"
     inkscape:deskcolor="#d1d1d1"
     inkscape:document-units="mm"
     showguides="true"
     inkscape:zoom="0.61354589"
     inkscape:cx="-378.94476"
     inkscape:cy="-151.5779"
     inkscape:window-width="1920"
     inkscape:window-height="1009"
     inkscape:window-x="0"
     inkscape:window-y="0"
     inkscape:window-maximized="1"
     inkscape:current-layer="layer1"
     showgrid="false"><sodipodi:guide
       position="19.31344,25.919696"
       orientation="0,-1"
       id="guide1"
       inkscape:locked="false" /><sodipodi:guide
       position="12.979936,270.43154"
       orientation="0,-1"
       id="guide2"
       inkscape:locked="false" /><sodipodi:guide
       position="3.9639517,279.17019"
       orientation="1,0"
       id="guide3"
       inkscape:locked="false" /><sodipodi:guide
       position="26.022565,275.55875"
       orientation="1,0"
       id="guide4"
       inkscape:locked="false" /><sodipodi:guide
       position="-11.297157,4.0017402"
       orientation="0,-1"
       id="guide5"
       inkscape:locked="false" /></sodipodi:namedview><defs
     id="defs1" /><g
     inkscape:label="Dark"
     inkscape:groupmode="layer"
     id="layer1"
     style="display:inline"><path
       style="font-weight:bold;font-size:26.1854px;line-height:1.2;font-family:'Noto Serif CJK JP';-inkscape-font-specification:'Noto Serif CJK JP, Bold';font-variation-settings:'opsz' 32, 'wght' 300;text-orientation:upright;fill:#ffffff;stroke-width:1.22744;paint-order:markers stroke fill"
       d="m 5.7172883,26.070978 0.3665956,0.445152 c 6.1797541,-2.723282 9.6885981,-7.200985 11.8096151,-12.516621 0.104742,-0.235669 0.104742,-0.445152 0.05237,-0.62845 2.173388,-1.047416 4.215849,-2.173388 5.368007,-2.828023 0.62845,-0.366596 2.068647,-0.445152 2.068647,-1.3616411 0,-1.0997868 -2.592355,-3.5088436 -3.5874,-3.5088436 -0.654635,0 -1.047416,0.4975226 -2.016276,0.6284496 -1.859163,0.261854 -10.3694183,1.2568992 -12.7784751,1.2568992 -0.8379328,0 -1.178343,-0.3665956 -1.9115342,-1.178343 l -0.392781,0.1047416 c -0.078556,0.7331912 -0.026185,1.4925678 0.1832978,2.0162758 0.392781,1.0736014 1.8853488,2.4352425 2.8542086,2.4352425 0.785562,0 1.1521576,-0.707006 2.1733882,-0.9950455 2.5923547,-0.6808204 9.1648897,-1.9115342 10.2646767,-1.9115342 0.497523,0 0.654635,0.130927 0.392781,0.654635 -0.602264,1.0736014 -1.99009,2.5661697 -3.561214,3.8492537 -0.62845,-0.34041 -1.623495,-0.707006 -2.854209,-0.733191 -0.654635,-0.02618 -1.230714,0.07856 -1.832978,0.209483 l -0.05237,0.392781 c 1.073602,0.471337 1.963905,0.942675 1.963905,1.780607 0,1.728237 -3.430287,8.431699 -8.5102547,11.888172 z"
       id="text6"
       inkscape:label="ア"
       aria-label="ア" /></g></svg>
