<?xml version="1.0" encoding="UTF-8" standalone="no"?>
<!-- Created with Inkscape (http://www.inkscape.org/) -->

<svg
   width="30mm"
   height="30mm"
   viewBox="0 0 30 30"
   version="1.1"
   id="svg1"
   xml:space="preserve"
   inkscape:version="1.4.3 (0d15f75042, 2025-12-25)"
   sodipodi:docname="toolbar_marks_dark.svg"
   inkscape:export-filename="../src/ibus-marinamoji/icons/mode_dark_kyu.png"
   inkscape:export-xdpi="96"
   inkscape:export-ydpi="96"
   xmlns:inkscape="http://www.inkscape.org/namespaces/inkscape"
   xmlns:sodipodi="http://sodipodi.sourceforge.net/DTD/sodipodi-0.dtd"
   xmlns="http://www.w3.org/2000/svg"
   xmlns:svg="http://www.w3.org/2000/svg"><sodipodi:namedview
     id="namedview1"
     pagecolor="#ffffff"
     bordercolor="#000000"
     borderopacity="0.25"
     inkscape:showpageshadow="2"
     inkscape:pageopacity="0.0"
     inkscape:pagecheckerboard="0"
     inkscape:deskcolor="#d1d1d1"
     inkscape:document-units="mm"
     showguides="true"
     inkscape:zoom="3.8837134"
     inkscape:cx="35.018032"
     inkscape:cy="54.715675"
     inkscape:window-width="1920"
     inkscape:window-height="1009"
     inkscape:window-x="0"
     inkscape:window-y="0"
     inkscape:window-maximized="1"
     inkscape:current-layer="g21"
     showgrid="false"><sodipodi:guide
       position="19.31344,25.919696"
       orientation="0,-1"
       id="guide1"
       inkscape:locked="false" /><sodipodi:guide
       position="12.979936,270.43154"
       orientation="0,-1"
       id="guide2"
       inkscape:locked="false" /><sodipodi:guide
       position="3.9639517,279.17019"
       orientation="1,0"
       id="guide3"
       inkscape:locked="false" /><sodipodi:guide
       position="26.022565,275.55875"
       orientation="1,0"
       id="guide4"
       inkscape:locked="false" /><sodipodi:guide
       position="-11.297157,4.0017402"
       orientation="0,-1"
       id="guide5"
       inkscape:locked="false" /><sodipodi:guide
       position="31.142978,27.985507"
       orientation="0,-1"
       id="guide8"
       inkscape:locked="false" /></sodipodi:namedview><defs
     id="defs1" /><g
     inkscape:label="Light"
     inkscape:groupmode="layer"
     id="g21"
     style="display:inline"><rect
       style="display:inline;fill:#000000;fill-opacity:1;stroke:#ffffff;stroke-width:2;stroke-linejoin:bevel;stroke-dasharray:none;stroke-dashoffset:0;stroke-opacity:1"
       id="rect11"
       width="12.30226"
       height="5.598115"
       x="8.8488693"
       y="2.7944627"
       ry="1.5089717" /><rect
       style="display:inline;fill:#000000;fill-opacity:1;stroke:#ffffff;stroke-width:1.94943;stroke-linejoin:bevel;stroke-dasharray:none;stroke-opacity:1;paint-order:normal"
       id="rect9"
       width="26.063494"
       height="20.488159"
       x="1.9682537"
       y="6.3621712"
       ry="3.019542" /><path
       d="m 17.554852,24.319522 c 0.887998,0 1.223464,-0.670932 1.223464,-1.361597 0,-0.572266 -0.473599,-1.282665 -0.907731,-1.756264 -0.335467,-0.355199 -0.809066,-0.789332 -1.440531,-1.223464 1.420797,-1.223465 2.604795,-2.427196 3.749327,-3.492794 0.414399,-0.3552 1.420797,-0.572266 1.420797,-1.144532 0,-0.710399 -1.775997,-2.427196 -2.565329,-2.427196 -0.394666,0 -0.710399,0.552533 -1.282664,0.670933 -0.611733,0.118399 -2.723196,0.315732 -3.453328,0.335466 0.493333,-0.670933 0.927465,-1.282665 1.262932,-1.775997 0.315732,-0.453866 0.887998,-0.631466 0.887998,-1.124798 0,-0.493333 -1.026132,-1.361598 -1.716797,-1.7167974 -0.730132,-0.3749327 -1.578664,-0.394666 -2.604796,-0.3354661 l -0.118399,0.3354661 c 0.473599,0.2367996 0.907731,0.4538659 1.203731,0.7695984 0.276266,0.276266 0.276266,0.473599 0.1776,0.769599 -0.434133,1.144531 -1.479998,3.177061 -2.545596,4.735992 -1.1050648,1.578664 -2.4666624,3.275727 -4.0058597,4.933325 l 0.3157327,0.335466 c 2.0917298,-1.223465 3.749327,-2.959995 5.091191,-4.420259 0.434133,-0.4736 0.868265,-0.986665 1.262931,-1.499731 0.276267,0.276266 0.532799,0.493332 0.730132,0.493332 0.276267,0 0.513066,-0.138133 0.927466,-0.217066 0.591999,-0.09867 2.091729,-0.295999 2.782395,-0.335466 0.256533,0 0.355199,0.1184 0.236799,0.374933 -0.611732,1.164264 -1.519464,2.604795 -2.723195,4.124259 -0.927465,-0.513066 -2.09173,-1.006398 -3.492794,-1.361597 l -0.2368,0.315732 c 2.03253,1.598398 3.236262,2.782396 4.341326,4.795192 0.394666,0.749865 0.670932,1.203731 1.479998,1.203731 z"
       id="text15"
       style="font-weight:bold;font-size:19.7333px;line-height:0.9;font-family:'Noto Serif CJK JP';-inkscape-font-specification:'Noto Serif CJK JP, Bold';text-orientation:upright;fill:#ffffff;stroke-width:0.925;paint-order:markers stroke fill;fill-opacity:1"
       inkscape:label="odoriji"
       aria-label="々&#10;" /></g></svg>
