<?xml version="1.0" encoding="UTF-8" standalone="no"?>
<!-- Created with Inkscape (http://www.inkscape.org/) -->

<svg
   width="30mm"
   height="30mm"
   viewBox="0 0 30 30"
   version="1.1"
   id="svg1"
   xml:space="preserve"
   inkscape:version="1.4.3 (0d15f75042, 2025-12-25)"
   sodipodi:docname="toolbar_odoriji_dark.svg"
   inkscape:export-filename="../src/ibus-marinamoji/icons/mode_dark_kyu.png"
   inkscape:export-xdpi="96"
   inkscape:export-ydpi="96"
   xmlns:inkscape="http://www.inkscape.org/namespaces/inkscape"
   xmlns:sodipodi="http://sodipodi.sourceforge.net/DTD/sodipodi-0.dtd"
   xmlns="http://www.w3.org/2000/svg"
   xmlns:svg="http://www.w3.org/2000/svg"><sodipodi:namedview
     id="namedview1"
     pagecolor="#ffffff"
     bordercolor="#000000"
     borderopacity="0.25"
     inkscape:showpageshadow="2"
     inkscape:pageopacity="0.0"
     inkscape:pagecheckerboard="0"
     inkscape:deskcolor="#d1d1d1"
     inkscape:document-units="mm"
     showguides="true"
     inkscape:zoom="2.9046227"
     inkscape:cx="53.018934"
     inkscape:cy="49.404007"
     inkscape:window-width="1920"
     inkscape:window-height="1009"
     inkscape:window-x="0"
     inkscape:window-y="0"
     inkscape:window-maximized="1"
     inkscape:current-layer="g21"
     showgrid="false"><sodipodi:guide
       position="19.31344,25.919696"
       orientation="0,-1"
       id="guide1"
       inkscape:locked="false" /><sodipodi:guide
       position="12.979936,270.43154"
       orientation="0,-1"
       id="guide2"
       inkscape:locked="false" /><sodipodi:guide
       position="3.9639517,279.17019"
       orientation="1,0"
       id="guide3"
       inkscape:locked="false" /><sodipodi:guide
       position="26.022565,275.55875"
       orientation="1,0"
       id="guide4"
       inkscape:locked="false" /><sodipodi:guide
       position="-11.297157,4.0017402"
       orientation="0,-1"
       id="guide5"
       inkscape:locked="false" /></sodipodi:namedview><defs
     id="defs1" /><g
     inkscape:label="Light"
     inkscape:groupmode="layer"
     id="g21"
     style="display:inline"><rect
       style="display:inline;fill:none;stroke:#ffffff;stroke-width:1.8572;stroke-linejoin:bevel;stroke-dasharray:none;stroke-opacity:1;paint-order:stroke fill markers"
       id="rect8"
       width="24.165369"
       height="24.141062"
       x="2.917316"
       y="2.9294696"
       ry="5.3628421" /><path
       style="fill:#ffffff;fill-opacity:1;stroke-width:0.175998"
       d="M 9.6676263,24.270753 C 9.5636676,24.217512 9.2976305,24.044719 9.076434,23.88677 6.9813064,22.390717 5.8752312,20.214366 5.8752312,17.587981 c 0,-1.572015 0.3113992,-2.991305 0.9154779,-4.172561 1.003741,-1.962776 2.6967442,-3.211987 4.9751469,-3.6709935 0.410424,-0.08268 0.743606,-0.108874 1.676383,-0.131771 l 1.164155,-0.02858 0.02328,-1.8160823 c 0.0128,-0.9988453 0.04077,-1.8514958 0.06212,-1.8947793 0.105314,-0.2134134 0.44929,-0.3087595 0.682942,-0.1893026 0.08964,0.045829 2.072634,1.5761659 4.406655,3.400748 3.115441,2.4354467 4.2591,3.3546657 4.301699,3.4575137 0.09272,0.223851 0.02896,0.463369 -0.173507,0.651774 -0.194509,0.181001 -8.14175,6.397359 -8.4203,6.58639 -0.258957,0.175731 -0.499135,0.161974 -0.701282,-0.04017 l -0.15833,-0.15832 v -1.820739 -1.820739 l -0.82655,6.16e-4 c -0.622459,4.58e-4 -0.93018,0.02201 -1.246249,0.08724 -1.545301,0.318947 -2.7907461,1.409266 -3.2777685,2.86951 -0.1974965,0.592156 -0.2533637,1.016342 -0.2237976,1.699263 0.048503,1.120362 0.3359771,2.017803 0.9614941,3.001614 0.129607,0.203843 0.235648,0.409106 0.235648,0.456138 0,0.109922 -0.20356,0.314305 -0.3122053,0.313464 -0.045984,-3.52e-4 -0.1686642,-0.04421 -0.2726229,-0.09745 z"
       id="path5" /></g></svg>
