<?xml version="1.0" encoding="UTF-8" standalone="no"?>
<!-- Created with Inkscape (http://www.inkscape.org/) -->

<svg
   width="30mm"
   height="30mm"
   viewBox="0 0 30 30"
   version="1.1"
   id="svg1"
   xml:space="preserve"
   inkscape:version="1.4.3 (0d15f75042, 2025-12-25)"
   sodipodi:docname="toolbar_dict_light.svg"
   inkscape:export-filename="../src/ibus-marinamoji/icons/mode_dark_kyu.png"
   inkscape:export-xdpi="96"
   inkscape:export-ydpi="96"
   xmlns:inkscape="http://www.inkscape.org/namespaces/inkscape"
   xmlns:sodipodi="http://sodipodi.sourceforge.net/DTD/sodipodi-0.dtd"
   xmlns="http://www.w3.org/2000/svg"
   xmlns:svg="http://www.w3.org/2000/svg"><sodipodi:namedview
     id="namedview1"
     pagecolor="#ffffff"
     bordercolor="#000000"
     borderopacity="0.25"
     inkscape:showpageshadow="2"
     inkscape:pageopacity="0.0"
     inkscape:pagecheckerboard="0"
     inkscape:deskcolor="#d1d1d1"
     inkscape:document-units="mm"
     showguides="false"
     inkscape:zoom="2.1135937"
     inkscape:cx="134.84143"
     inkscape:cy="19.161677"
     inkscape:window-width="1920"
     inkscape:window-height="1009"
     inkscape:window-x="0"
     inkscape:window-y="0"
     inkscape:window-maximized="1"
     inkscape:current-layer="svg1"
     showgrid="false"><sodipodi:guide
       position="19.31344,25.919696"
       orientation="0,-1"
       id="guide1"
       inkscape:locked="false" /><sodipodi:guide
       position="12.979936,270.43154"
       orientation="0,-1"
       id="guide2"
       inkscape:locked="false" /><sodipodi:guide
       position="3.9639517,279.17019"
       orientation="1,0"
       id="guide3"
       inkscape:locked="false" /><sodipodi:guide
       position="26.022565,275.55875"
       orientation="1,0"
       id="guide4"
       inkscape:locked="false" /><sodipodi:guide
       position="-11.297157,4.0017402"
       orientation="0,-1"
       id="guide5"
       inkscape:locked="false" /></sodipodi:namedview><defs
     id="defs1" /><g
     inkscape:label="Light"
     inkscape:groupmode="layer"
     id="g21"
     style="display:inline"><path
       style="fill:#203859;stroke-width:0.0988682;fill-opacity:1"
       d="m 7.0946837,27.582515 c -1.334163,-0.207744 -2.391875,-1.328697 -2.530758,-2.682082 -0.0376,-0.366128 -0.03744,-19.4845466 9.8e-5,-19.8125781 0.157105,-1.3714336 1.204261,-2.4655794 2.554457,-2.6690988 0.38661,-0.058278 15.3768943,-0.058278 15.7635013,0 1.344496,0.2026552 2.383811,1.2828499 2.554249,2.6547121 0.03668,0.2954015 0.03754,13.0925378 0.0011,13.4463328 -0.174984,1.688796 -1.324433,3.082466 -2.92485,3.546295 -0.566962,0.16432 0.05515,0.151053 -7.825937,0.166901 l -7.1806023,0.01445 -0.20265,0.09676 c -0.341984,0.163304 -0.580041,0.468116 -0.647377,0.82891 -0.03439,0.184301 -0.03406,1.628977 3.96e-4,1.810781 0.08125,0.428428 0.375816,0.761452 0.786603,0.8893 0.154947,0.04826 0.395231,0.04954 8.9201153,0.04954 7.096778,0 8.76088,0.0063 8.76088,0.03347 0,0.08361 -0.336779,0.545574 -0.558965,0.766717 -0.480041,0.477781 -1.03987,0.764289 -1.682754,0.86119 -0.367981,0.05547 -15.4306493,0.05394 -15.7873343,-0.0016 z M 15.11798,18.624517 c 0.81483,-0.03412 1.34542,-0.109268 1.956624,-0.277061 1.857559,-0.509971 3.147205,-1.733704 3.746793,-3.555292 0.219247,-0.666108 0.332521,-1.32064 0.381144,-2.202504 C 21.2696,11.373665 21.118791,10.142206 20.785147,9.1810924 20.126192,7.282899 18.635898,6.0336201 16.54364,5.6255282 15.799399,5.4803648 15.888553,5.4839394 12.757147,5.4736121 l -2.9101743,-0.00963 v 6.5758539 c 0,3.616718 0.0079,6.5837 0.01744,6.593289 0.02645,0.02646 4.5954973,0.01891 5.2535653,-0.0086 z M 12.044315,12.048123 V 7.2976549 l 1.157532,3.746e-4 c 1.643228,5.445e-4 2.231413,0.041076 2.910171,0.200526 1.742841,0.409434 2.609559,1.4470334 2.880358,3.4482575 0.05771,0.426476 0.06674,1.632014 0.01548,2.066542 -0.171563,1.454369 -0.700533,2.470644 -1.583156,3.041611 -0.396863,0.25673 -0.939871,0.467981 -1.495806,0.581914 -0.591265,0.121178 -0.817379,0.135271 -2.38699,0.148799 l -1.497598,0.01292 z"
       id="path22"
       inkscape:label="dictionary" /></g></svg>
