<?xml version="1.0" encoding="UTF-8" standalone="no"?>
<!-- Created with Inkscape (http://www.inkscape.org/) -->

<svg
   width="30mm"
   height="30mm"
   viewBox="0 0 30 30"
   version="1.1"
   id="svg1"
   xml:space="preserve"
   inkscape:version="1.4.3 (0d15f75042, 2025-12-25)"
   sodipodi:docname="toolbar_hira_dark.svg"
   inkscape:export-filename="../256/toolbar_hira_dark.png"
   inkscape:export-xdpi="216.74667"
   inkscape:export-ydpi="216.74667"
   xmlns:inkscape="http://www.inkscape.org/namespaces/inkscape"
   xmlns:sodipodi="http://sodipodi.sourceforge.net/DTD/sodipodi-0.dtd"
   xmlns="http://www.w3.org/2000/svg"
   xmlns:svg="http://www.w3.org/2000/svg"><sodipodi:namedview
     id="namedview1"
     pagecolor="#ffffff"
     bordercolor="#000000"
     borderopacity="0.25"
     inkscape:showpageshadow="2"
     inkscape:pageopacity="0.0"
     inkscape:pagecheckerboard="0"
     inkscape:deskcolor="#d1d1d1"
     inkscape:document-units="mm"
     showguides="true"
     inkscape:zoom="0.61354589"
     inkscape:cx="-378.94476"
     inkscape:cy="-151.5779"
     inkscape:window-width="1920"
     inkscape:window-height="1009"
     inkscape:window-x="0"
     inkscape:window-y="0"
     inkscape:window-maximized="1"
     inkscape:current-layer="layer1"
     showgrid="false"><sodipodi:guide
       position="19.31344,25.919696"
       orientation="0,-1"
       id="guide1"
       inkscape:locked="false" /><sodipodi:guide
       position="12.979936,270.43154"
       orientation="0,-1"
       id="guide2"
       inkscape:locked="false" /><sodipodi:guide
       position="3.9639517,279.17019"
       orientation="1,0"
       id="guide3"
       inkscape:locked="false" /><sodipodi:guide
       position="26.022565,275.55875"
       orientation="1,0"
       id="guide4"
       inkscape:locked="false" /><sodipodi:guide
       position="-11.297157,4.0017402"
       orientation="0,-1"
       id="guide5"
       inkscape:locked="false" /></sodipodi:namedview><defs
     id="defs1" /><g
     inkscape:label="Dark"
     inkscape:groupmode="layer"
     id="layer1"
     style="display:inline"><path
       style="font-weight:bold;font-size:26.1854px;line-height:1.2;font-family:'Noto Serif CJK JP';-inkscape-font-specification:'Noto Serif CJK JP, Bold';font-variation-settings:'opsz' 32, 'wght' 300;text-orientation:upright;fill:#ffffff;stroke-width:1.22744;paint-order:markers stroke fill"
       d="m 9.0690149,10.80489 c 0.785562,0 1.6234951,-0.05237 2.4614271,-0.157113 -0.157112,1.073602 -0.34041,2.199574 -0.445151,3.273175 -3.5612147,1.780608 -6.6510919,5.001412 -6.6510919,8.405514 0,1.571124 0.8641182,2.382871 2.1733882,2.382871 1.6496802,0 3.6397707,-0.837933 5.5251197,-2.382871 0.366595,0.628449 0.837932,0.995045 1.414011,0.995045 0.733191,0 1.256899,-0.34041 1.256899,-1.152158 0,-0.654635 -0.261854,-1.230713 -0.549893,-1.885348 1.93772,-2.121018 3.718327,-4.739558 4.530074,-6.912946 2.435242,0.523708 3.901625,2.382871 3.901625,4.791928 0,3.535029 -2.985136,6.624906 -9.845711,7.907991 l 0.104742,0.497523 c 7.410468,-0.02619 12.621363,-2.251945 12.621363,-7.672323 0,-3.168433 -2.461428,-6.022642 -6.520165,-6.54635 0.02619,-0.314224 -0.07856,-0.602264 -0.314225,-0.864118 -0.523708,-0.549893 -1.30927,-0.837933 -2.3305,-0.995045 l -0.209483,0.314225 c 0.707005,0.471337 1.047416,0.916489 1.047416,1.466382 -1.414012,0.05237 -2.749467,0.314225 -4.006367,0.759377 0.130927,-0.890304 0.28804,-1.806793 0.471338,-2.697096 2.775652,-0.4713377 5.368007,-1.2045289 6.59872,-1.6758661 0.680821,-0.261854 1.021231,-0.6284496 1.021231,-1.2307138 0,-0.7593766 -0.759377,-1.178343 -2.147203,-1.178343 -0.314225,0 -2.016276,1.0997868 -4.922855,1.8067926 l 0.130927,-0.5760788 c 0.235669,-0.9688598 0.916489,-1.2830846 0.916489,-1.963905 0,-0.6808204 -1.859163,-1.571124 -3.377917,-1.571124 -0.523708,0 -1.30927,0.3665956 -1.859163,0.654635 l 0.02618,0.3665956 c 0.523708,0.1047416 1.073602,0.2356686 1.466383,0.392781 0.445152,0.1571124 0.549893,0.3142248 0.549893,0.785562 0,0.523708 -0.104741,1.3616408 -0.235668,2.3305006 -0.759377,0.1047416 -1.544939,0.1571124 -2.3566863,0.1571124 -1.4663824,0 -2.487613,-0.392781 -3.796883,-1.2568992 L 5.4292443,7.6364563 C 6.0315085,9.6265467 6.9218121,10.80489 9.0690149,10.80489 Z m 7.9341761,2.435242 c -0.576079,1.518753 -2.068647,3.639771 -3.535029,5.210895 -0.261854,-0.759377 -0.445152,-1.675866 -0.445152,-2.854209 0,-0.418966 0.02619,-0.890304 0.07856,-1.361641 1.387827,-0.628449 2.644726,-0.942674 3.901625,-0.995045 z m -5.656046,7.096243 c -1.335456,0.995046 -2.8542089,1.754422 -3.9539957,1.754422 -0.4451518,0 -0.6284496,-0.235668 -0.6284496,-0.733191 0,-1.64968 1.5973094,-4.189664 4.1896643,-5.944086 l -0.02619,0.995045 c 0,1.335456 0.130927,2.723282 0.418967,3.92781 z"
       id="text5"
       aria-label="あ" /></g></svg>
