<?xml version="1.0" encoding="UTF-8" standalone="no"?>
<!-- Created with Inkscape (http://www.inkscape.org/) -->

<svg
   width="30mm"
   height="30mm"
   viewBox="0 0 30 30"
   version="1.1"
   id="svg1"
   xml:space="preserve"
   inkscape:version="1.4.3 (0d15f75042, 2025-12-25)"
   sodipodi:docname="toolbar_kata_half_light.svg"
   inkscape:export-filename="../src/ibus-marinamoji/icons/mode_dark_kyu.png"
   inkscape:export-xdpi="96"
   inkscape:export-ydpi="96"
   xmlns:inkscape="http://www.inkscape.org/namespaces/inkscape"
   xmlns:sodipodi="http://sodipodi.sourceforge.net/DTD/sodipodi-0.dtd"
   xmlns="http://www.w3.org/2000/svg"
   xmlns:svg="http://www.w3.org/2000/svg"><sodipodi:namedview
     id="namedview1"
     pagecolor="#ffffff"
     bordercolor="#000000"
     borderopacity="0.25"
     inkscape:showpageshadow="2"
     inkscape:pageopacity="0.0"
     inkscape:pagecheckerboard="0"
     inkscape:deskcolor="#d1d1d1"
     inkscape:document-units="mm"
     showguides="true"
     inkscape:zoom="1.260727"
     inkscape:cx="-180.84803"
     inkscape:cy="142.37816"
     inkscape:window-width="1920"
     inkscape:window-height="1009"
     inkscape:window-x="0"
     inkscape:window-y="0"
     inkscape:window-maximized="1"
     inkscape:current-layer="g21"
     showgrid="false"><sodipodi:guide
       position="19.31344,25.919696"
       orientation="0,-1"
       id="guide1"
       inkscape:locked="false" /><sodipodi:guide
       position="12.979936,270.43154"
       orientation="0,-1"
       id="guide2"
       inkscape:locked="false" /><sodipodi:guide
       position="3.9639517,279.17019"
       orientation="1,0"
       id="guide3"
       inkscape:locked="false" /><sodipodi:guide
       position="26.022565,275.55875"
       orientation="1,0"
       id="guide4"
       inkscape:locked="false" /><sodipodi:guide
       position="-11.297157,4.0017402"
       orientation="0,-1"
       id="guide5"
       inkscape:locked="false" /><sodipodi:guide
       position="31.142978,27.985507"
       orientation="0,-1"
       id="guide8"
       inkscape:locked="false" /></sodipodi:namedview><defs
     id="defs1" /><g
     inkscape:label="Light"
     inkscape:groupmode="layer"
     id="g21"
     style="display:inline"><path
       style="font-weight:bold;font-size:26.1854px;line-height:1.2;font-family:'Noto Serif CJK JP';-inkscape-font-specification:'Noto Serif CJK JP, Bold';font-variation-settings:'opsz' 32, 'wght' 300;text-orientation:upright;fill:#203859;stroke-width:1.22744;paint-order:markers stroke fill"
       d="m 5.3632736,26.385203 0.3404102,0.366595 c 2.0424612,-1.178343 4.0325516,-3.744512 5.1585242,-6.389237 0.707005,-1.623495 1.178343,-3.194619 1.518753,-4.844299 0.209483,-0.864118 0.68082,-1.256899 0.68082,-1.859164 0,-0.157112 -0.130927,-0.34041 -0.34041,-0.523708 1.256899,-1.230713 2.435242,-2.723281 3.116063,-3.5612141 0.366595,-0.4713372 0.995045,-0.6022642 0.995045,-1.2568992 0,-1.1259722 -1.885349,-2.8542086 -2.487613,-2.8542086 -0.392781,0 -0.837933,0.6808204 -1.387826,0.8379328 -0.759377,0.2094832 -5.341822,0.8379328 -6.389238,0.8379328 -0.6808204,0 -1.2307138,-0.6808204 -1.702051,-1.6496802 L 4.4991554,5.5939951 c -0.1571124,0.9688598 -0.1047416,1.4925678 0,2.1733882 0.1832978,1.1259722 1.2045284,2.9065797 1.8591634,2.9065797 0.5760788,0 1.047416,-0.6808207 1.6234948,-0.9426747 1.0212306,-0.4189664 4.0063664,-1.3354554 4.7395574,-1.3354554 0.209483,0 0.288039,0.1047416 0.261854,0.3404102 -0.235669,0.9688598 -0.837933,2.4614279 -1.492568,3.6921419 -0.628449,-0.261854 -1.30927,-0.445152 -1.8591632,-0.445152 -0.4451518,-0.02619 -1.178343,0.130927 -1.5187532,0.235668 l -0.026185,0.366596 c 0.392781,0.235669 0.7070058,0.445152 1.047416,0.733191 0.3142248,0.28804 0.4451518,0.471337 0.4713372,0.916489 0.026185,1.256899 -0.261854,3.430288 -0.8903036,5.472749 -0.7070058,2.225759 -1.7282364,4.582445 -3.3517312,6.677277 z"
       id="text24"
       inkscape:label="ア_half"
       aria-label="ｱ" /><rect
       style="display:inline;fill:#203859;fill-opacity:1;stroke:none;stroke-width:1.61861;stroke-linejoin:bevel"
       id="rect23"
       width="8.8357344"
       height="2.20017"
       x="17.198044"
       y="24.315916"
       ry="0"
       inkscape:label="spacer" /></g></svg>
