<?xml version="1.0" encoding="UTF-8" standalone="no"?>
<!-- Created with Inkscape (http://www.inkscape.org/) -->

<svg
   width="30mm"
   height="30mm"
   viewBox="0 0 30 30"
   version="1.1"
   id="svg1"
   xml:space="preserve"
   inkscape:version="1.4.3 (0d15f75042, 2025-12-25)"
   sodipodi:docname="toolbar_shin_dark.svg"
   inkscape:export-filename="../256/toolbar_shin_dark.png"
   inkscape:export-xdpi="216.74667"
   inkscape:export-ydpi="216.74667"
   xmlns:inkscape="http://www.inkscape.org/namespaces/inkscape"
   xmlns:sodipodi="http://sodipodi.sourceforge.net/DTD/sodipodi-0.dtd"
   xmlns="http://www.w3.org/2000/svg"
   xmlns:svg="http://www.w3.org/2000/svg"><sodipodi:namedview
     id="namedview1"
     pagecolor="#ffffff"
     bordercolor="#000000"
     borderopacity="0.25"
     inkscape:showpageshadow="2"
     inkscape:pageopacity="0.0"
     inkscape:pagecheckerboard="0"
     inkscape:deskcolor="#d1d1d1"
     inkscape:document-units="mm"
     showguides="true"
     inkscape:zoom="0.61354589"
     inkscape:cx="-378.94476"
     inkscape:cy="-151.5779"
     inkscape:window-width="1920"
     inkscape:window-height="1009"
     inkscape:window-x="0"
     inkscape:window-y="0"
     inkscape:window-maximized="1"
     inkscape:current-layer="layer1"
     showgrid="false"><sodipodi:guide
       position="19.31344,25.919696"
       orientation="0,-1"
       id="guide1"
       inkscape:locked="false" /><sodipodi:guide
       position="12.979936,270.43154"
       orientation="0,-1"
       id="guide2"
       inkscape:locked="false" /><sodipodi:guide
       position="3.9639517,279.17019"
       orientation="1,0"
       id="guide3"
       inkscape:locked="false" /><sodipodi:guide
       position="26.022565,275.55875"
       orientation="1,0"
       id="guide4"
       inkscape:locked="false" /><sodipodi:guide
       position="-11.297157,4.0017402"
       orientation="0,-1"
       id="guide5"
       inkscape:locked="false" /></sodipodi:namedview><defs
     id="defs1" /><g
     inkscape:label="Dark"
     inkscape:groupmode="layer"
     id="layer1"
     style="display:inline"><rect
       style="display:inline;fill:#759bce;fill-opacity:1;stroke-width:1.61;stroke-linejoin:bevel;paint-order:stroke fill markers"
       id="rect2"
       width="26.022566"
       height="25.998259"
       x="1.9887171"
       y="2.0008707"
       ry="6.2886238" /><path
       style="font-weight:bold;font-size:23.1222px;line-height:1.2;font-family:'Noto Serif CJK JP';-inkscape-font-specification:'Noto Serif CJK JP, Bold';font-variation-settings:'opsz' 32, 'wght' 300;text-orientation:upright;fill:#ffffff;stroke-width:1.08385;paint-order:markers stroke fill"
       d="M 8.4034361,4.1727382 V 7.271113 H 4.4264177 l 0.1849776,0.6705438 h 1.618554 L 6.0218495,8.0341456 C 6.4611713,9.0515224 6.9004931,10.554465 6.8542487,11.803064 8.6115359,13.629718 11.039367,10.068899 6.3224381,7.9416568 H 11.1781 C 10.993123,9.2827444 10.600045,11.13252 10.183846,12.450486 H 4.0333403 L 4.2183179,13.12103 H 15.386341 c 0.32371,0 0.554932,-0.115611 0.601177,-0.369956 -0.832399,-0.832399 -2.242854,-2.011631 -2.242854,-2.011631 l -1.248598,1.711043 h -1.78041 c 1.063621,-1.017377 2.127243,-2.265976 2.797786,-3.213986 0.508689,0.046244 0.763033,-0.1618554 0.855522,-0.4161996 L 11.501811,7.9416568 h 3.144619 c 0.323711,0 0.531811,-0.115611 0.601177,-0.3699552 C 14.43833,6.7624246 13.050998,5.6294368 13.050998,5.6294368 L 11.848644,7.271113 H 11.062489 V 5.074504 c 0.601177,-0.092489 0.763033,-0.3237108 0.809277,-0.6242994 z m -0.069367,9.2951248 v 2.612808 H 4.2645623 l 0.1849776,0.647422 h 3.3064746 c -0.7861548,2.450953 -2.080998,5.017517 -3.7920408,6.867293 l 0.2543442,0.277467 C 5.7906275,22.90172 7.1779595,21.74561 8.3340695,20.427645 v 5.36435 h 0.4855662 c 0.9711324,0 2.1041203,-0.485566 2.1041203,-0.716788 v -7.375982 c 0.73991,0.878644 1.502943,2.196609 1.641676,3.375841 2.057876,1.618554 4.185118,-2.474075 -1.526065,-3.630185 l -0.115611,0.06937 v -0.786155 h 3.930774 c 0.300589,0 0.531811,-0.115611 0.601177,-0.346833 -0.786155,-0.809277 -2.127242,-1.919143 -2.127242,-1.919143 l -1.202355,1.618554 h -1.202354 v -1.734165 c 0.531811,-0.06937 0.693666,-0.300588 0.73991,-0.578055 z M 22.7392,4.0802494 C 21.860557,4.8895264 20.265125,5.999392 18.715937,6.8317912 L 15.987518,5.9762698 v 7.7690592 c 0,4.277607 -0.393078,8.462725 -3.491452,11.7692 l 0.231222,0.254344 c 5.410594,-3.005886 5.873038,-7.792181 5.873038,-11.9773 v -0.832399 h 2.196609 v 12.832821 h 0.462444 c 1.387332,0 2.196609,-0.601177 2.219732,-0.763032 V 12.959174 h 1.919142 c 0.323711,0 0.578055,-0.115611 0.6243,-0.369955 -0.971133,-0.924888 -2.635931,-2.31222 -2.635931,-2.31222 l -1.479821,2.034754 H 18.600326 V 7.5948238 c 2.057876,-0.2543442 4.185119,-0.7167882 5.572451,-1.1792322 0.693666,0.231222 1.15611,0.1849776 1.410454,-0.069367 z"
       id="text1"
       aria-label="新" /></g></svg>
